<?xml version="1.0" ?><svg xmlns="http://www.w3.org/2000/svg" width="147.59558mm" height="343.13837mm" viewBox="0 0 147.59558 343.13837">
    <path d="m 2495.2366,-1565.1216 c -0.1648,-5.017 -4.1164,-9.9283 -0.5881,-13.3153 3.5282,-3.3871 34.4834,-4.7842 37.8706,-5.0806 3.3872,-0.2964 41.7517,0.8891 42.0809,4.9536 0.3294,4.0644 -5.9746,5.4404 -5.6923,9.0815 0.2823,3.6411 -1.0818,5.5251 4.0222,5.4404 5.1044,-0.085 22.746,-1.9687 28.0385,9.9707 5.2924,11.9393 1.5054,23.0107 -3.8577,26.546 -5.3631,3.5352 -29.6378,6.7317 -29.6378,6.7317 l 0.3998,23.1166 c 0,0 5.2692,3.8528 4.9869,6.9223 -0.2824,3.0695 -7.1745,6.9435 -7.1745,6.9435 l -2.0913,88.3783 -0.5307,106.6284 c 0,0 7.339,0.5927 7.2919,7.4303 -0.047,6.8377 -7.3454,8.233 -2.4291,11.8317 4.9159,3.5988 19.1,7.2822 19.2174,12.7015 0.1178,5.4192 -10.3497,8.404 -16.8888,8.9968 -6.5392,0.5927 -76.0233,2.6673 -79.6457,1.4183 -3.6224,-1.2489 -12.3021,-3.7046 -10.4204,-7.261 1.8818,-3.5564 12.6784,-5.9485 14.278,-9.399 1.5994,-3.4506 1.2465,-8.1713 1.2465,-8.1713 0,0 -6.2333,-3.6411 -4.2103,-8.3194 2.0227,-4.6784 8.6796,-7.1975 10.4907,-7.5362 1.8113,-0.3387 0.7657,-147.0976 0.7657,-147.0976 l -0.5554,-51.327 c 0,0 -7.6213,-4.5513 -6.1629,-7.4939 1.4584,-2.9424 5.3395,-3.7469 5.3395,-3.7469 l -2.8225,-20.1529 c 0,0 -33.6365,1.5877 -34.1776,-19.8777 -0.5411,-21.4655 13.3178,-26.3211 18.3986,-27.062 5.0808,-0.741 12.4579,-1.2508 12.4579,-1.2508 z" fill="#fff" fill-opacity=".988235" paint-order="markers stroke fill" transform="translate(300.32325,492.48022) translate(-2761.1418,1093.9717)"/>
    <path d="m 2560.0098,-1586.45 c -7.2915,-0.034 -18.7921,0.3839 -37.5269,1.1731 -30.8318,1.2986 -32.7907,1.7921 -32.7907,8.2651 0,1.759 0.9158,4.114 2.035,5.2333 3.8714,3.8711 2.2713,4.8892 -7.4063,4.7103 -8.3154,-0.1536 -10.0156,0.2626 -14.2477,3.4907 -6.687,5.1003 -9.2122,10.6695 -9.2542,20.4122 -0.084,19.1613 11.5623,30.6002 31.1547,30.6002 6.9645,-0.677 5.859,0.9551 5.859,7.2962 0,4.8303 -0.6878,7.8669 -2.035,8.985 -3.0076,2.4959 -2.4749,7.2546 1.1984,10.7053 l 3.2339,3.038 -0.7937,27.387 c -0.4554,15.0627 -0.6399,58.3718 -0.4553,96.2427 l 0.2994,60.907 c 0.028,5.678 0.1173,7.8802 -2.8016,7.9492 -1.5614,0.037 -4.3382,1.4985 -6.1701,3.3301 -4.3824,4.3825 -4.3578,10.3452 0.062,15.1143 5.9051,5.0535 0.2988,6.0135 -4.0644,7.952 -4.8848,2.1604 -8.0173,4.5304 -9.0842,6.8724 -2.101,4.6112 -0.5065,7.2834 6.4585,10.8231 4.7475,2.4128 7.9433,2.7032 29.0768,2.6422 27.2906,-0.079 63.8474,-2.5403 70.0991,-4.7196 5.6066,-1.9547 8.2334,-7.8414 5.9531,-13.3464 -1.7106,-4.1304 -4.5816,-5.7399 -13.518,-8.2838 -3.7975,-1.081 -4.5586,-2.7669 -2.6634,-5.4038 3.6707,-5.1072 2.559,-10.2753 -3.0257,-13.3759 -5.2663,-2.8707 -4.1636,-1.3839 -3.8306,-7.293 l 0.8262,-14.6633 c 0.6096,-10.8202 1.1084,-53.8641 1.1084,-95.6525 v -75.9789 l 3.7311,-3.1734 c 4.5648,-3.8821 5.07,-10.2138 1.0175,-12.7445 -2.2675,-1.4164 -2.713,-3.1639 -2.713,-10.6412 -0.9331,-10.4813 1.0324,-8.8869 10.5952,-8.3333 8.8215,0.5106 11.5134,0.1455 16.0744,-2.1813 5.9712,-3.0463 9.0386,-6.8789 11.1782,-13.9676 v 0 c 1.6518,-5.4728 0.7088,-16.5128 -1.8299,-21.4219 -4.2221,-8.1644 -12.9442,-12.3347 -25.7989,-12.3347 -9.338,0 -11.4814,-1.782 -6.149,-5.1123 3.6056,-2.2525 3.5424,-8.6405 -0.1193,-11.9543 -1.8919,-1.712 -4.3092,-2.5037 -13.684,-2.5477 z m -31.2611,6.2663 c 3.6069,0.01 7.5992,0.042 12.0142,0.094 22.2058,0.263 30.9387,0.8115 31.3237,1.9684 1.1442,3.4384 -5.6327,4.2402 -39.656,4.6917 -34.3474,0.4557 -35.2758,0.3977 -35.2758,-2.204 0,-3.5244 6.3458,-4.6133 31.5939,-4.5501 z m 22.0689,10.358 c 2.4987,0.01 4.6711,0.032 6.3743,0.073 4.664,0.1118 8.4796,0.7594 8.4796,1.4386 0,1.923 -20.2669,3.1423 -43.6454,2.6262 -18.7625,-0.4143 -24.675,-1.204 -22.7232,-3.0349 0.5409,-0.5073 34.0243,-1.165 51.5147,-1.1028 z m -45.4251,8.3359 c 8.5317,0.02 17.122,0.3404 23.6389,0.3592 55.8782,0.1599 60.1927,-0.029 66.7034,6.5112 2.6599,2.672 3.7409,5.1692 3.8029,10.4061 0.1941,16.4915 -10.5835,23.0464 -27.5353,17.2703 -7.3297,-2.4974 -10.4015,-6.1179 -10.4015,-12.2592 0,-8.3292 12.9315,-15.1017 21.254,-11.1317 4.8729,2.3241 5.8606,8.6844 2.0754,13.3589 -2.3841,2.9441 -2.9201,3.056 -6.8523,1.4273 -4.5782,-1.8965 -5.7551,-6.0031 -2.1198,-7.398 3.1233,-1.1981 3.2809,-1.1021 3.2809,1.9891 0,1.9416 0.7306,2.6725 2.3586,2.359 5.3186,-1.0243 1.996,-9.2423 -3.7368,-9.2423 -1.3976,0 -4.1932,1.4217 -6.2135,3.1594 -4.6582,4.0067 -3.7406,9.3897 2.1171,12.4189 9.2388,4.7777 17.2678,0.4969 18.649,-9.9797 1.0639,-8.07 -6.8956,-15.3525 -16.8429,-15.1138 -4.3245,0.104 -25.4652,0.098 -46.978,0.06 -33.0082,-0.058 -39.8215,0.2676 -43.6505,2.0846 -5.0205,2.3824 -8.8176,8.9175 -8.8176,15.1764 0,5.1293 5.1755,12.8316 9.6883,14.4187 11.4364,4.022 21.0739,-9.2239 12.7605,-17.5374 -3.9922,-3.992 -8.9495,-4.2892 -12.1709,-0.7297 -1.8776,2.0747 -2.0472,3.1725 -0.8407,5.4271 1.9318,3.6083 3.6121,3.5972 4.5609,-0.031 0.8161,-3.1201 3.3598,-2.9438 5.455,0.3783 2.1311,3.3784 0.061,6.5484 -4.2757,6.5484 -7.7354,0 -12.1592,-10.1389 -7.1841,-16.4641 3.6502,-4.6403 9.6693,-5.7554 16.4409,-3.0458 9.303,3.7224 13.2424,13.6465 8.8149,22.2084 -3.2675,6.3189 -7.0824,8.1535 -16.9307,8.1535 -16.3754,0 -23.7737,-7.0551 -23.7737,-22.6978 -0.01,-7.742 0.5656,-8.6373 4.4271,-12.8891 4.0203,-4.4266 18.0767,-5.2284 32.2962,-5.1951 z m 39.473,9.6708 c 9.0152,-0.021 15.3789,0.095 15.3789,0.3142 0,0.2914 -1.2304,1.643 -2.7342,3.0039 -1.5037,1.3609 -3.1078,4.8135 -3.5651,7.6724 l -0.831,5.1981 H 2535.757 2518.4 l -0.9287,-4.4095 c -0.5112,-2.4252 -2.4096,-5.9879 -4.2188,-7.9174 l -3.2892,-3.5083 25.1406,-0.2847 c 3.4567,-0.039 6.7566,-0.062 9.7616,-0.069 z m -10.7058,1.8541 c -1.3892,0.01 -2.8704,0.3018 -4.0524,0.9426 -1.7069,0.9255 -4.6191,1.7225 -6.471,1.7715 -3.6859,0.097 -5.4072,4.0671 -2.8654,6.6089 1.0742,1.0741 1.4841,0.8474 1.4841,-0.8222 0,-2.7556 0.5201,-2.8312 4.2184,-0.6108 2.4499,1.4709 3.0993,1.2912 4.8953,-1.3565 2.3557,-3.4722 4.454,-3.9894 4.454,-1.0976 0,3.0964 2.6841,3.9463 6.3185,2.0009 2.5556,-1.3677 3.9333,-1.4243 5.8301,-0.2398 1.3657,0.8528 2.8544,1.1796 3.3078,0.726 2.9068,-2.9075 -2.1796,-6.3269 -8.0057,-5.3815 -2.6052,0.4228 -4.7372,0.2376 -4.7372,-0.4114 0,-1.3455 -2.061,-2.1403 -4.3765,-2.1301 z m -15.2321,18.8309 c 3.0065,0.036 9.9373,0.252 17.9126,0.5679 14.96,0.5926 19.3337,1.1804 19.3337,2.5994 0,1.4437 -3.6798,1.8376 -17.2987,1.8526 -9.5145,0.01 -18.7421,0.4047 -20.5062,0.8769 -2.8818,0.7714 -3.1055,0.5285 -2.2056,-2.3931 0.5508,-1.7883 1.0806,-3.3525 1.1726,-3.4763 0.023,-0.031 0.5894,-0.039 1.5916,-0.027 z m 22.3221,9.0713 c 3.5567,0 4.0706,0.4812 4.0706,3.8111 0,2.096 -0.8504,4.9731 -1.8888,6.3934 -1.6045,2.1941 -2.2163,2.3102 -4.0705,0.7716 -1.2165,-1.0097 -2.1818,-3.8382 -2.1818,-6.3934 0,-4.1873 0.3514,-4.5827 4.0705,-4.5827 z m 16.0233,0 c 2.2584,0 5.0721,0.3707 6.2524,0.8237 2.4187,0.9281 2.4707,1.3313 0.7359,5.6513 -2.6091,6.4958 -8.2904,4.9646 -10.1803,-2.7435 -0.8458,-3.45 -0.605,-3.7315 3.192,-3.7315 z m -27.8954,0.019 c 2.7141,-0.021 3.0587,3.3788 0.7534,7.4435 -2.5014,4.4114 -4.3344,4.9135 -6.8585,1.8774 -4.5698,-5.497 -2.1076,-9.2569 6.1051,-9.3209 z m -15.4192,1.0547 c 1.1727,-0.084 1.2044,1.1733 -0.1964,3.7042 -1.8061,3.2631 -5.1543,5.9757 -7.4491,6.0337 -3.1545,0.08 -1.7213,-3.3289 2.975,-7.076 2.1557,-1.7201 3.7583,-2.5966 4.6705,-2.6619 z m 5.549,14.2932 c 1.6063,2.8013 7.5337,3.3297 10.9001,1.587 3.7196,-1.9255 4.4213,-1.9289 7.1081,-0.047 4.1648,2.9171 6.0775,2.6269 9.9043,-1.5023 3.6781,-4.3745 6.082,-0.4836 8.7788,1.9498 1.1052,0.9973 4.0813,1.5967 6.5504,0 2.4447,-1.5765 -0.7314,3.4991 -1.828,4.1826 -2.0693,1.2899 -4.7505,0.8156 -6.5662,-1.305 -2.9183,-3.4086 -5.685,-3.2873 -8.2403,0.3612 -1.9529,2.788 -2.2185,2.827 -4.593,0.678 -3.311,-2.9961 -5.3023,-2.8794 -7.3707,0.4325 -2.6516,3.058 -5.012,2.4071 -6.2278,0.4566 -1.4632,-2.3473 -3.7334,-2.946 -6.7083,-0.6354 -2.4239,1.9442 -4.1382,1.0963 -4.7801,-1.1772 -0.4873,-1.8643 -1.8509,-2.7135 -4.3558,-2.7135 -2.5049,0 -3.8677,0.8492 -4.3553,2.7135 -1.0942,4.184 -3.1068,3.2115 -3.1068,-1.5017 0,-3.0202 0.5289,-4.0126 1.8661,-3.4995 1.0265,0.3939 3.5354,-0.1495 5.5753,-1.2077 3.7927,-2.1182 5.7045,-1.8147 7.4492,1.2281 z m -6.4906,12.6225 c 5.0935,-0.036 11.7967,0.032 20.4313,0.1633 18.8422,0.2862 35.0214,0.7656 35.9544,1.0656 0.9327,0.2999 1.6961,1.1004 1.6961,1.7787 0,3.4758 -4.0944,3.9115 -25.1003,2.6716 -11.9398,-0.7049 -26.1063,-0.9138 -31.4818,-0.4645 -6.8358,0.5713 -10.6083,0.2955 -12.5502,-0.9173 -5.0212,-3.1358 -4.2299,-4.1884 11.0505,-4.2974 z m -8.5302,13.5209 c 0.023,-2.271 14.1933,-2.1897 30.3485,-1.7032 26.2209,0.7898 27.6239,1.2211 27.5074,3.772 -0.024,0.5217 -1.0391,31.7746 -1.4883,69.7891 -0.4492,38.0145 -1.2286,80.4124 -1.7317,94.2175 l -0.8671,22.7081 c 0.099,6.2942 -51.0854,5.7826 -50.9962,1.1407 l -0.017,-24.1579 c -0.1316,-38.7131 -2.1408,-152.224 -2.5248,-160.6866 z m 50.3566,6.9554 c -0.9343,0.1712 -1.7507,3.0525 -1.7038,8.3447 0.076,8.5814 0.321,25.0434 0.321,48.1423 0,30.1135 -0.5763,62.3201 -1.2801,71.5697 -2.1141,27.7708 -2.3406,50.3951 -0.511,51.0259 1.8691,0.6444 2.579,-4.036 4.2612,-28.1032 1.4199,-20.3147 2.0603,-124.8048 1.4557,-140.685 -0.2742,-7.2021 -1.4841,-10.4885 -2.543,-10.2944 z m -12.0204,0.5601 c -0.5534,0.028 -1.0286,0.1778 -1.2925,0.4414 -0.5272,0.5272 -0.9591,40.7457 -0.9591,89.3749 0,77.6882 0.2471,88.4168 2.035,88.4168 1.5596,0 2.2164,-2.3786 2.8087,-10.1756 0.4253,-5.5967 0.8829,-45.4541 1.0175,-88.5719 0.2169,-69.5549 0.01,-78.4865 -1.849,-79.1993 -0.5758,-0.2209 -1.2073,-0.3144 -1.7606,-0.2863 z m -14.6839,0.082 c -0.1044,-3e-4 -0.2139,0.011 -0.3287,0.034 -1.9306,0.3706 -2.2526,7.425 -2.991,65.5231 -0.455,35.8093 -1.2809,74.266 -1.8355,85.4594 -0.8515,17.1805 -0.6887,20.7725 1.0469,23.0518 2.0249,2.6593 2.0781,2.6489 3.5357,-0.6785 0.8142,-1.8581 1.9962,-15.8947 2.6273,-31.1924 1.448,-35.1118 1.8235,-107.1253 0.6635,-127.2558 -0.7024,-12.1938 -1.1516,-14.9367 -2.7182,-14.9412 z m -11.8029,1.0929 c -2.8098,0 -3.7448,16.7574 -4.2778,76.6579 -0.2589,29.1027 -0.8498,62.9876 -1.3136,75.3003 -0.8215,21.8105 -0.1254,27.2606 3.2179,25.1943 1.0122,-0.6255 1.5625,-9.5007 1.6779,-26.9704 0.093,-14.3207 0.5948,-37.0275 1.1147,-50.4595 0.5196,-13.4319 1.0524,-41.3645 1.187,-62.0721 0.1996,-30.9922 -0.085,-37.6505 -1.6061,-37.6505 z m 48.0586,186.1706 c 0.4804,-0.031 0.8633,0.3681 1.3792,1.1829 v 5e-4 c 2.1892,3.4586 1.325,5.2164 -3.8659,7.8646 -4.7536,2.4252 -7.3367,2.558 -36.0763,1.8562 -33.1649,-0.81 -35.6567,-1.4284 -29.7093,-7.3757 2.3849,-2.3848 3.1511,-2.5118 5.9552,-0.9876 7.3757,4.0092 56.1233,3.0862 60.3523,-1.1425 0.9063,-0.9064 1.4843,-1.3675 1.9648,-1.3984 z m -0.6315,16.6119 c 1.0977,0.01 1.8425,0.6156 2.7843,1.9601 1.0238,1.4617 5.2536,3.5042 9.3121,4.8235 3.5968,1.1692 7.4037,2.6104 7.4502,5.4942 0,2.528 -0.8635,3.7088 -3.7316,4.146 -6.2376,0.9509 -63.6898,7.8917 -93.0739,2.0252 -5.282,-2.0083 -4.4242,-3.9539 3.127,-7.0921 4.6636,-1.938 6.7132,-4.0018 7.8713,-6.2394 1.1518,-2.2254 2.57,-3.7023 6.0409,-3.6575 l 24.7262,0.3192 c 16.2894,0.2103 31.149,-0.4739 33.0177,-1.1844 1.0315,-0.3922 1.8172,-0.6008 2.4758,-0.5948 z" transform="translate(300.32325,492.48022) translate(-2761.1418,1093.9717)"/>
</svg>