<?xml version="1.0" ?><svg xmlns="http://www.w3.org/2000/svg" width="530.28357mm" height="433.01978mm" viewBox="0 0 530.28357 433.01978">
    <path d="m 2161.9974,-1622.2013 c -11.4424,-0.064 -21.6506,0.2206 -23.4864,0.7049 -3.6719,0.9686 -11.648,12.5909 -13.4839,16.693 -1.836,4.102 -14.308,4.5009 -16.6496,8.8878 -2.3423,4.387 -0.1902,21.4788 -0.1902,21.4788 0,0 -9.6222,6.1529 -10.3818,9.4573 -0.7596,3.3044 0.1901,18.5732 3.1021,20.3394 2.9121,1.7661 14.5599,10.4262 14.5599,10.4262 l -7.9763,88.9346 -14.5604,-0.57 c 0,0 1.447,-12.6082 -6.7107,-13.1609 -8.2331,-0.5579 -26.0252,3.1195 -26.3281,7.431 0,0 -10.262,-17.5719 -16.276,-18.3125 -6.014,-0.7406 -11.5214,-2.7341 -14.4337,5.5262 -2.912,8.261 -10.1291,80.3316 -10.1291,80.3316 0,0 -11.7112,1.4247 -13.4839,6.0394 -1.7725,4.6149 -3.6086,41.7608 -3.6086,41.7608 l -9.9389,2.222 c 0,0 -3.7982,-73.2098 -4.9377,-82.2115 -1.1396,-9.0017 -3.1662,-22.7321 -11.3321,-23.8145 -8.1663,-1.0825 -10.6349,-0.1711 -12.6608,9.4573 -2.0256,9.6284 -7.2171,56.3459 -7.2171,56.3459 0,0 -14.6872,-2.5066 -18.802,-1.2532 -4.1148,1.2534 -16.4591,5.697 -17.4087,10.6536 -0.9496,4.9566 1.5193,60.3343 1.5193,60.3343 0,0 -9.6858,-0.5128 -12.9145,0.4558 -3.2284,0.9685 -4.4312,16.6362 -4.4312,16.6362 0,0 -4.1147,-1.823 -6.7738,4.9568 -2.6588,6.7798 0.5701,10.7676 -2.975,17.2625 -3.5452,6.4949 -14.0415,34.1227 1.3038,36.5461 l 180.4841,1.8232 108.9494,-4.1021 144.8434,0.171 4.1144,7.2926 c 0,0 -7.3436,1.4812 -7.2801,4.6716 0.063,3.1905 3.482,7.5202 8.7364,8.3178 5.2543,0.7976 9.8121,0.6271 10.8252,-2.2216 1.012,-2.8486 2.975,-7.1789 2.975,-7.1789 0,0 13.674,0.8546 15.32,-2.051 1.6459,-2.9056 -0.1897,-11.4515 -0.1897,-11.4515 0,0 26.9053,0.57 30.8296,0.399 3.9249,-0.1709 19.8151,2.1077 22.1574,0.3415 2.3424,-1.7661 -5.8875,-19.2567 -11.7115,-21.3646 -5.8243,-2.108 -12.2815,-3.5894 -11.9016,-6.7799 0.3797,-3.1905 9.3692,-3.4754 8.7995,-8.6599 -0.5699,-5.1845 1.1391,-9.0585 -1.8361,-10.1979 -2.9755,-1.1395 0.823,-16.1232 -2.7218,-18.3451 -3.5452,-2.2219 -10.6355,-3.7605 -10.6355,-3.7605 0,0 -14.0541,-30.0242 -16.9028,-31.9613 -2.8488,-1.9371 -8.7995,-4.6153 -8.7995,-4.6153 0,0 0,-38.0008 -2.912,-40.0518 -2.912,-2.051 -22.8193,-5.193 -22.8193,-5.193 l -0.2237,-44.9429 c 0,0 8.926,-11.2239 8.1664,-14.7563 -0.7599,-3.5315 4.8111,-3.361 9.2423,-2.9052 4.4315,0.4558 18.5488,-0.1142 18.802,-6.951 0.2532,-6.8367 2.7855,-9.3433 2.9755,-16.8067 0.1897,-7.4635 -8.1034,-8.1473 -8.1034,-8.1473 0,0 1.0763,-6.6087 -2.5321,-8.5458 -3.6084,-1.937 -6.1405,-5.4693 -9.4325,-5.7541 -3.2916,-0.2849 -19.9412,-0.2853 -23.1066,1.0821 -3.1653,1.3673 -6.1407,13.9583 -6.1407,13.9583 l -46.9729,8.432 -4.1144,-40.5644 c 0,0 14.4332,-5.6975 15.1928,-10.9389 0.7599,-5.2415 2.7477,-17.1754 -0.9875,-21.6762 -3.7348,-4.5009 -8.9259,-8.4887 -9.3059,-11.2804 -0.3797,-2.7916 -13.1671,-28.6572 -13.1671,-28.6572 0,0 -25.5758,-20.1115 -27.665,-21.4219 -2.0891,-1.3103 -31.9057,-15.5536 -45.4531,-17.3768 -6.7736,-0.9115 -19.4507,-1.3244 -30.8932,-1.3885 z m 14.6234,71.9207 35.0713,7.5778 c 0,0 1.1396,2.6205 2.2159,6.3237 1.076,3.7025 15.4466,20.1114 15.4466,20.1114 l -3.2288,57.5427 -25.5121,4.8426 c 0,0 -0.9496,-12.1353 -2.912,-15.4967 -1.9627,-3.3614 -8.2297,-2.6777 -14.4337,-1.88 -6.2039,0.7976 -18.802,3.4184 -18.802,3.4184 l -4.2411,0.3416 -1.5193,-59.5933 c 0,0 9.9388,-5.0137 13.4204,-10.4831 3.482,-5.4694 4.4948,-12.7051 4.4948,-12.7051 z m 126.8807,104.9057 10.7156,23.5986 -3.6577,62.9372 c 0,0 -4.8169,4.2418 -4.5852,9.2258 0.2318,4.9839 -5.306,12.3326 -5.4348,18.2206 -0.1286,5.888 -2.5244,26.4263 -2.5244,26.4263 l -13.7547,-1.7151 -3.3998,-136.1897 z m -77.9436,7.6921 v 5e-4 c 0.2442,0 0.4719,0.011 0.6795,0.029 l 1.5452,125.2249 -17.7726,1.3446 -3.5807,-105.7987 c 0,0 1.159,-1.7393 4.1729,-4.7526 3.0136,-3.0135 3.8897,-14.2333 3.8897,-14.2333 0,0 7.4027,-1.8335 11.066,-1.8143 z m -48.5697,1.6526 c 1.4425,-0.1855 5.4605,13.2599 6.3878,14.0249 0.9274,0.765 2.9884,6.4906 2.9884,6.4906 l -3.8121,104.9414 -20.7869,-0.093 2.1895,-119.1974 c 2.3183,-1.8545 11.5917,-5.9811 13.0333,-6.1665 z m -73.7164,7.5582 -0.1741,24.0636 c 0,0 -35.9248,9.3431 -36.6717,7.2146 -0.7467,-2.1285 -1.9916,-24.3546 -1.9916,-24.3546 1.1203,-1.1875 38.8374,-6.9236 38.8374,-6.9236 z m 280.7684,202.5328 c -3.9663,0 -9.3886,1.4128 -10.3151,2.7678 -1.2618,1.8451 2.4556,3.5178 6.1505,4.8054 0,0 6.0607,0.7806 8.4377,-0.8821 2.3768,-1.6626 2.0835,-4.4301 -0.8227,-6.0725 -0.772,-0.4363 -2.0158,-0.6196 -3.4504,-0.6186 z m -318.5888,18.2914 c -0.1331,0 -0.2664,0 -0.4,5e-4 -4.2748,0.055 -8.3347,0.042 -9.3612,3.7647 -0.2607,2.7577 1.9,3.9708 6.1593,4.7154 4.2595,0.7446 11.108,-1.82 11.3223,-4.4261 0.2078,-2.5246 -3.5961,-4.0139 -7.7204,-4.0545 z" fill="#fff" fill-opacity=".988235" paint-order="markers stroke fill" transform="translate(174.53161,191.34036) translate(-2061.8141,1436.8513)"/>
    <path d="m 2382.7052,-1250.8559 c -23.3309,0.9788 -46.0693,-0.017 -82.9437,-3.64 -20.0532,-1.9693 -57.2622,-1.8883 -76.446,0.1664 -8.4086,0.9006 -41.7773,1.8951 -74.1522,2.2097 -35.6563,0.3468 -61.7217,1.4392 -66.2178,2.2737 -5.7893,1.0746 -7.0024,2.491 -6.3064,10.3494 0.2624,2.9629 1.2375,4.8751 1.424,6.7826 0.2835,2.9003 58.9048,-0.5736 70.1965,-1.9801 6.6509,-0.8282 16.8941,-1.5059 22.7631,-1.5059 10.3239,0 10.886,-0.1989 17.305,-6.1157 9.9897,-9.2083 20.109,-7.9756 25.8627,3.1506 l 2.324,4.494 h 55.6629 55.6629 l 1.0483,-3.4401 c 1.6725,-5.4876 5.4157,-8.7912 9.9612,-8.7912 4.3417,0 20.5467,5.4902 24.0334,8.1424 1.0804,0.8221 9.2768,1.5624 18.2134,1.6451 12.3907,0.1148 16.4182,0.6538 16.9617,2.2707 0.5877,1.7486 -1.5305,4.3596 -14.9141,3.7643 l -16.2284,-0.7218 0.3035,3.2971 c 0.4426,4.8075 0.3424,6.0572 -2.6554,8.1571 -1.9589,1.3721 -6.2179,2.4945 -9.4645,2.4945 -4.0686,0 -5.69,0.5939 -5.2176,1.9111 0.3771,1.0512 0.065,3.1152 -0.6909,4.5868 -2.6427,5.1384 -22.8324,1.9088 -25.106,-4.0161 -1.1472,-2.9899 1.9702,-8.5976 4.7799,-8.5976 3.5248,0 2.6129,-2.9092 -1.2005,-3.8313 -1.8922,-0.4577 -21.9213,1.0437 -44.6256,0.7235 -22.7046,-0.3202 -57.793,-1.096 -77.9749,-1.7239 -30.8993,-0.9614 -38.8869,0.9414 -54.6433,1.6577 -22.3103,1.0141 -79.7102,4.5904 -119.0372,2.8309 -18.1025,-0.8099 -56.5882,-1.2529 -85.5242,-0.9845 -37.6658,0.3493 -52.6793,-1.4537 -53.0924,-2.6674 -1.0795,-3.1869 10.9458,-3.7741 94.3317,-4.6063 45.8291,-0.4575 83.472,-0.9768 83.6501,-1.1539 0.1778,-0.1773 0.5699,-4.7079 1.2317,-10.0286 1.2521,-10.0663 1.6771,-9.8006 -7.9693,-8.6215 -4.8816,0.5967 -27.796,1.7124 -50.9211,2.4795 -23.125,0.7669 -51.3333,2.42 -62.6856,3.6735 -23.5957,2.6053 -52.8922,3.0874 -54.2487,0.8925 -0.5045,-0.8164 0.6587,-1.8417 2.5851,-2.2787 6.5048,-1.4757 91.9462,-8.4097 123.4392,-10.018 17.1927,-0.8778 31.6408,-2.0154 32.1072,-2.5278 2.0438,-2.2453 -98.4173,1.4025 -135.2253,4.9101 -14.179,1.3511 -6.8802,-1.9184 10.1686,-4.555 31.2291,-4.8296 45.5584,-5.7579 101.0601,-6.5471 l 57.7163,-0.8206 v -5.0325 c 0,-2.7678 0.3684,-5.9949 0.8204,-7.171 0.6683,-1.7414 -4.2308,-2.4913 -26.3737,-4.0373 -28.7518,-2.0073 -40.4746,-1.5547 -106.1369,4.0963 -29.4322,2.5332 -31.9653,2.9928 -37.8075,6.8589 -11.0198,7.2925 -13.0772,4.4843 -3.0211,-4.1233 7.551,-6.4632 7.7104,-6.4965 44.8545,-9.3868 15.977,-1.2432 38.3376,-3.0067 49.6894,-3.919 19.5794,-1.5731 58.9333,-1.0195 81.4152,1.1455 10.2826,0.9903 10.3199,0.9799 10.3199,-2.8736 0,-2.5397 2.225,-6.0271 6.4823,-10.159 l 2.9714,-3.491 c -11.6046,0.3425 -24.1654,0.3078 -34.7324,1.1835 -22.5719,1.8705 -71.4187,5.5153 -97.799,5.3284 -9.2499,-0.065 -22.5499,0.4836 -29.5558,1.2201 -11.5286,1.2122 -13.2406,1.827 -18.0395,6.4782 -4.7404,4.5945 -6.4416,5.2234 -16.0598,5.9382 -5.9172,0.4396 -11.1213,0.2123 -11.5647,-0.5057 -1.643,-2.6579 2.6064,-4.4956 10.0097,-4.3287 6.3691,0.1434 8.9023,-0.7096 15.4192,-5.1927 7.034,-4.8385 9.5568,-5.5837 25.7367,-7.602 9.8662,-1.2307 20.6559,-2.2431 23.978,-2.2499 4.5688,-0.014 5.6089,-0.4423 4.2718,-1.7793 -1.3338,-1.3341 -6.7483,-1.3415 -22.093,-0.03 -11.179,0.9551 -26.4439,2.1059 -33.9222,2.5572 -7.4778,0.4515 -15.3209,1.2535 -17.428,1.7824 -2.4553,0.6162 -3.4815,0.3944 -2.8565,-0.6167 0.5365,-0.8683 3.416,-2.0365 6.3982,-2.596 5.0984,-0.9564 5.375,-1.3095 4.6299,-5.9068 -4.3816,-27.0276 -4.347,-47.1886 0.091,-54.1852 3.7385,-5.8914 16.1197,-11.0965 26.3951,-11.0965 h 9.0869 l 1.041,-13.378 c 0.5724,-7.3578 2.1977,-21.2901 3.6114,-30.9604 2.5354,-17.3373 2.6407,-17.6177 7.5511,-20.0871 5.8421,-2.9385 14.396,-1.6758 18.8184,2.7776 3.9165,3.9446 7.3321,32.1871 8.5269,70.5088 0.8083,25.9246 1.325,30.8929 3.1409,30.1961 1.1957,-0.4587 2.3334,-0.834 2.5284,-0.834 0.195,0 0.047,-4.2186 -0.325,-9.3745 -0.6567,-9.0775 1.2898,-22.2329 4.535,-30.6496 1.0133,-2.6276 3.7198,-4.951 7.5545,-6.4855 4.457,-1.7834 5.9835,-3.2684 6.0059,-5.8435 0.052,-6.0286 4.4293,-47.3377 6.2777,-59.2578 3.1249,-20.1481 7.8536,-25.3153 22.0862,-24.135 12.3115,1.021 13.7347,3.0555 17.4177,24.8995 1.7015,10.0908 3.4849,23.851 3.9634,30.5783 1.5368,21.607 1.7852,21.8563 15.2038,15.2552 4.4545,-2.1911 10.3564,-3.7662 14.1426,-3.7745 l 6.4978,-0.012 v -9.2672 -9.2672 l -6.88,0.8581 c -3.784,0.4721 -9.9764,1.2443 -13.7604,1.7163 -10.8022,1.3474 -8.1802,-1.8462 3.7419,-4.5578 5.8422,-1.3288 12.0346,-2.4161 13.7604,-2.4161 2.6232,0 3.1381,-0.9687 3.1381,-5.9025 v -5.9026 l -14.5251,0.7597 c -10.1333,0.53 -14.5248,0.2432 -14.5248,-0.9485 0,-1.7743 3.6184,-2.923 11.4672,-3.6404 3.9521,-0.361 4.6529,-1.1067 5.0654,-5.3883 0.5119,-5.3084 -0.3423,-5.7051 -10.7988,-5.0157 -6.1628,0.4065 -5.1344,-2.46 1.2538,-3.4967 8.3112,-1.3488 12.3292,0.8463 13.56,7.4081 0.9079,4.8395 1.5143,5.4906 4.3955,4.718 1.8381,-0.4929 3.7545,-0.9057 4.2589,-0.9172 0.5041,-0.012 1.3726,-7.5263 1.9299,-16.6995 0.5569,-9.1733 2.3724,-27.5776 4.0341,-40.8985 1.6616,-13.3209 3.029,-24.912 3.0389,-25.7577 0,-0.8459 -1.9706,-2.4183 -4.401,-3.4942 -2.4309,-1.0759 -6.2149,-4.6691 -8.4093,-7.985 -3.2629,-4.931 -3.9897,-7.8218 -3.9897,-15.8746 0,-12.1792 0.7514,-14.2019 6.3509,-17.0975 4.2676,-2.2068 2.1635,-0.881 2.3915,-10.3085 0.1751,-7.239 0.9988,-11.7887 9.7056,-13.5105 5.2311,-1.0346 6.5828,-2.0499 7.7158,-5.7969 0.7558,-2.4984 4.0287,-5.9044 4.8431,-8.1802 2.0668,-5.7749 9.0998,-15.1295 21.8927,-13.7562 5.5431,0.5951 20.0544,1.6226 32.2476,2.2832 28.6884,1.5543 43.2747,7.4948 50.8604,14.3477 3.1339,2.8316 9.6586,6.6638 14.4991,8.5162 7.343,2.81 10.119,5.0323 16.7594,13.4184 4.3773,5.5278 8.8915,12.4586 10.0318,15.4019 1.1402,2.9431 3.7094,7.1357 5.7091,9.317 1.9996,2.1812 4.0656,6.6152 4.5909,9.8531 0.6644,4.0922 2.7447,7.5895 6.8229,11.4688 5.2484,4.9931 5.8669,6.3721 5.8647,13.0805 0,11.0526 -3.8936,17.6997 -11.9955,20.495 -6.6126,2.2817 -6.6417,2.3246 -5.7615,8.409 0.4871,3.3637 1.9515,17.4322 3.2548,31.2635 1.3032,13.8312 2.6753,25.4534 3.049,25.8272 0.3726,0.3736 1.6338,-0.1127 2.7996,-1.0801 2.3308,-1.9344 56.9177,-4.7816 64.1575,-3.3464 5.326,1.0557 5.5409,3.7409 0.351,4.3895 -3.103,0.3879 -3.8698,1.3313 -3.8698,4.7619 0,2.5725 -1.8185,6.3415 -4.5623,9.4542 -4.4783,5.081 -4.5628,5.4901 -4.5866,22.2513 0,9.3914 -0.4031,18.062 -0.8659,19.268 -0.6496,1.6937 1.2048,2.4064 8.1534,3.1326 4.9468,0.5171 10.144,1.3813 11.5491,1.9204 3.8438,1.475 7.327,15.7675 7.4357,30.5128 0.091,12.6406 0.2341,13.1465 4.2556,15.2257 5.6505,2.9221 13.5249,12.1421 14.7249,17.2419 0.5409,2.2969 2.2905,6.3535 3.888,9.0144 1.5979,2.6608 2.7135,5.7187 2.4794,6.7951 -0.2427,1.1086 1.5082,2.3255 4.0345,2.8067 2.4534,0.4672 4.747,1.7095 5.0967,2.7605 0.7598,2.2845 -0.472,2.3122 -13.3793,0.3021 -5.4659,-0.8513 -26.7946,-1.5037 -47.3963,-1.4498 -30.2973,0.079 -44.9292,-0.681 -76.5335,-3.9767 -30.1849,-3.1475 -42.4267,-3.8232 -53.8076,-2.9699 l -14.7327,1.1045 -0.469,4.8328 c -0.5872,6.0535 -3.2694,6.1529 -4.301,0.1595 -0.5504,-3.1998 -1.7656,-4.6412 -4.2044,-4.9886 -4.434,-0.6315 -4.336,1.4521 0.5179,11.0382 l 3.9478,7.7974 68.2933,0.1265 c 37.5614,0.07 83.4292,0.9064 101.9295,1.8592 18.4998,0.9528 35.872,1.7557 38.6049,1.7843 5.9068,0.062 6.9314,4.088 1.3943,5.4778 -3.5512,0.8913 -58.5671,-1.6236 -80.5159,-3.6805 -6.3067,-0.591 -16.6267,-0.3814 -22.9334,0.4662 -6.3067,0.8474 -20.0671,1.4303 -30.5786,1.2949 -10.5111,-0.1352 -49.3076,-0.6981 -86.2141,-1.2507 -79.9871,-1.1979 -83.4123,-0.7631 -83.4721,10.5921 l -0.043,4.4385 99.762,-0.7755 c 99.999,-0.7774 193.7478,0.4282 198.7591,2.5561 3.0585,1.2988 3.6435,5.4096 0.764,5.3686 -1.0509,-0.014 -7.759,-0.6256 -14.9065,-1.3572 -8.5132,-0.8714 -21.6979,-0.6732 -38.2231,0.5741 l -25.227,1.9043 42.8098,0.2384 c 43.9911,0.2448 49.6898,0.7028 49.6898,3.9927 0,1.4073 -6.5481,2.1855 -24.8452,2.9531 z m -9.354,-71.2816 c -4.7724,-9.0595 -7.609,-12.8173 -9.938,-13.1665 -3.9067,-0.5856 -3.612,0.6048 -4.045,-16.3295 -0.4567,-17.8716 -3.0805,-25.8205 -8.7371,-26.4722 l -4.1715,-0.4806 2.3595,6.5962 c 1.2975,3.6281 2.9869,14.6963 3.7539,24.5963 1.4962,19.3041 2.0964,21.2738 8.2337,27.0145 2.3417,2.1902 4.3763,6.1404 4.9224,9.5557 0.9137,5.7138 1.0554,5.8221 7.6157,5.8221 4.837,0 6.6847,-0.6162 6.6847,-2.2291 0,-1.2261 -3.0052,-7.9343 -6.6783,-14.9069 z m -11.8186,92.2795 c -1.4791,-4.242 -2.9523,-5.2033 -12.3517,-8.0582 -12.2186,-3.7114 -13.6146,-3.1262 -14.3913,6.0326 -1.4469,7.1227 1.0384,6.5786 7.3439,8.641 7.1051,2.3239 15.9883,2.2388 19.9196,-0.1911 1.4597,-0.9021 1.4761,-0.6961 -0.5205,-6.4246 z m -5.2233,-89.3351 c -6.773,-5.9963 -8.114,-11.3281 -8.1586,-32.4404 -0.043,-20.703 -1.3235,-25.8249 -6.6083,-26.4543 -3.0655,-0.3649 -4.2772,0.484 -5.7434,4.025 -2.8327,6.8384 -9.3154,12.0577 -16.4074,13.2097 -8.8394,1.4357 -11.8784,5.3057 -12.0324,15.3211 -0.07,4.4884 -0.9191,9.1174 -1.8895,10.2866 -0.9704,1.1693 -2.2255,7.6542 -2.7889,14.411 l -1.0246,12.285 17.3995,1.0025 c 9.5698,0.5515 23.076,1.0056 30.0134,1.0095 12.5481,0.014 12.6135,-0.012 12.6135,-3.9458 0,-2.5988 -1.8406,-5.5823 -5.3733,-8.7099 z m -17.4601,101.3936 c -3.4914,-1.8687 -10.8027,-2.113 -10.8027,-0.361 0,1.2771 8.8369,4.894 11.9578,4.894 2.8221,0 2.1128,-2.7842 -1.1551,-4.533 z m -1.7613,-227.1796 c -0.9136,-0.5646 -8.1125,-0.3777 -16.0204,0.051 -13.3978,0.7263 -16.3505,-0.7756 -12.0601,5.5232 2.259,4.368 2.5233,4.4465 15.0012,4.4465 6.9858,0 13.1603,-0.4587 13.7207,-1.0193 1.6252,-1.6249 1.1798,-7.8748 -0.6414,-9.0003 z m -4.8228,34.866 -0.4904,-11.579 c -0.2993,-3.2533 -4.0356,-2.0911 -6.8786,-2.5622 -3.9188,0.1017 -7.2569,0.3406 -7.5509,3.829 l -2.2547,26.7494 c -1.4186,16.8302 -3.4566,30.3161 -4.1093,30.5784 -1.3741,0.5523 -2.7845,-1.4637 -1.6091,-16.8374 0.9034,-11.8152 0.6773,-18.892 1.7478,-29.7946 1.1726,-11.9425 1.0765,-12.4894 -4.0852,-23.157 -3.9802,-10.1414 -4.502,-10.9936 -14.6882,-10.1134 -5.1712,0.4469 -9.4853,0.8913 -9.5867,0.9878 -0.1037,0.096 0.4521,7.7434 1.2304,16.9934 0.7784,9.2499 1.8935,39.1784 2.4782,66.5079 l 1.0632,49.6898 4.9687,0.479 4.9689,0.4791 v -12.4693 c 0,-10.2935 0.5522,-13.1711 3.1638,-16.4916 2.2692,-2.8848 2.9198,-5.3312 2.3009,-8.6502 -1.1996,-6.4285 3.559,-13.6586 11.6756,-17.7401 8.83,-4.4402 11.5617,-7.0511 12.6738,-12.1148 0.5157,-2.3483 2.3112,-5.513 3.9907,-7.0326 2.3528,-2.1296 2.8621,-4.0061 2.2211,-8.1854 -0.4581,-2.9824 -1.0107,-11.7859 -1.2287,-19.5636 z m -11.4047,-20.2596 c -4.8021,0 -8.0625,0.5732 -7.2624,1.2766 1.3847,1.217 15.9775,0.6086 15.9775,-0.6661 0,-0.3359 -3.9218,-0.6105 -8.7151,-0.6105 z m -37.4613,-109.6463 c -5.2805,-5.6208 -28.714,-12.059 -41.3799,-11.3687 l -4.2305,0.2306 3.9349,7.7643 c 3.8931,7.6826 3.9954,7.7541 9.7474,6.7821 7.0431,-1.1897 23.6087,2.7074 29.4993,6.9397 5.4626,3.9248 5.7955,3.8159 5.7955,-1.894 0,-2.9151 -1.3514,-6.3091 -3.3667,-8.454 z m -4.1927,202.1457 c -0.7866,-8.409 -1.8492,-29.7373 -2.3615,-47.3963 -1.5394,-53.0793 -6.7315,-126.7437 -9.217,-130.7651 -2.3529,-3.8072 -4.0891,-1.1064 -3.2218,5.0116 0.5066,3.5739 1.6092,21.9782 2.4504,40.8986 0.8412,18.9204 2.5964,53.321 3.9009,76.4458 1.3046,23.1249 2.86,51.3334 3.4568,62.6856 1.0618,20.2081 1.1606,20.6512 4.7184,21.1542 3.4654,0.4902 3.5884,0.2076 2.6688,-6.1157 -0.5305,-3.6462 -1.6083,-13.5097 -2.395,-21.9187 z m -8.8763,-188.997 c -11.1452,-4.8679 -12.8671,-5.1755 -28.9732,-5.1755 -19.1873,0 -22.1833,1.2005 -17.4835,7.0044 2.9076,3.5906 3.042,3.6091 6.1026,0.8391 7.5406,-6.8241 36.2178,-3.9243 42.7014,4.318 2.069,2.6303 3.8962,3.4726 6.2157,2.8659 6.0402,-1.5794 3.3861,-4.6326 -8.563,-9.8519 z m 3.7957,-31.6361 c -1.0653,-0.8844 -8.6961,-3.773 -16.9565,-6.4191 -8.2605,-2.6461 -14.6939,-5.1365 -14.296,-5.5344 0.3987,-0.3978 5.319,0.3424 10.9358,1.6452 12.8627,2.9829 13.0807,2.9736 13.0807,-0.5666 0,-3.5671 -9.7955,-7.0562 -24.0832,-8.5788 -5.2571,-0.56 -9.9785,-1.6979 -10.4916,-2.5283 -1.0731,-1.7366 12.3591,-0.3416 24.9925,2.5951 10.5826,2.4601 10.571,0.511 -0.061,-9.541 -5.8755,-5.5571 -10.4205,-8.3427 -16.4902,-10.1071 -5.7268,-1.665 -9.8345,-4.0801 -12.9779,-7.6309 -4.0471,-4.5711 -6.6114,-5.6749 -21.3508,-9.1899 -28.0536,-6.6904 -44.6208,-6.8863 -53.1787,-0.6289 -1.4831,1.0845 -3.5668,5.3986 -4.6299,9.5869 -1.6608,6.5408 -2.8375,8.1167 -8.3407,11.1698 -5.7797,3.2065 -6.4072,4.1247 -6.4072,9.3775 l 0.2798,4.5439 10.3203,1.028 c 14.1217,1.4067 26.432,4.7796 30.8994,8.9418 6.0532,5.6392 40.3117,13.6903 61.0899,13.1922 12.8206,-0.3072 18.4435,0.2779 26.9207,2.8027 5.8937,1.7552 11.1573,3.1912 11.6973,3.1912 1.7692,0 1.028,-5.7033 -0.9556,-7.3493 z m -4.2221,212.7057 c -0.8603,-14.9807 -2.922,-45.47 -4.581,-67.7539 -2.622,-35.2163 -6.019,-93.253 -6.0627,-103.584 0,-1.8921 -0.8074,-3.4403 -1.7766,-3.4403 -1.2901,0 -1.4779,4.81 -0.7008,17.9648 0.5834,9.8807 1.7029,52.3655 2.4877,94.4107 0.7849,42.0452 1.8814,81.0256 2.4375,86.623 0.9677,9.7459 1.1966,10.2043 5.3987,10.8211 5.3499,0.7852 6.3124,-0.03 5.2116,-4.4169 -0.4672,-1.8628 -1.5537,-15.6438 -2.4144,-30.6245 z m -15.2637,-38.7045 c -0.8859,-30.693 -1.7601,-73.8624 -1.9425,-95.932 l -0.3337,-40.1267 -5.3511,-0.012 -5.3511,-0.014 0.403,103.7616 0.4031,103.7616 7.0175,0.9618 c 3.8598,0.5291 7.515,0.6544 8.1235,0.2782 0.6081,-0.3757 0.5513,-4.3284 -0.1257,-8.7836 -0.6778,-4.4551 -1.9572,-33.2126 -2.843,-63.9056 z m -17.8399,-135.803 c -1.964,0.3783 -3.1442,2.708 -4.1324,8.1562 -0.7605,4.1947 -1.4561,50.1363 -1.545,102.0921 -0.169,99.0233 -0.2773,97.2979 5.9532,97.3895 1.0002,0.014 1.6923,-35.9903 2.0013,-104.0725 0.4517,-99.5188 0.351,-104.0715 -2.2771,-103.5653 z m 0.2558,-25.311 c -1.5246,-3.6489 -3.319,-5.5379 -5.261,-5.5379 -6.1914,0 -5.2176,3.0631 3.3706,10.6021 4.7625,4.1813 5.2302,2.929 1.8904,-5.0642 z m -7.4826,6.7472 c -2.3702,-0.9011 -4.0544,-3.1026 -4.7313,-6.1837 -1.0094,-4.5952 -1.1663,-4.6802 -3.9638,-2.1482 -3.7606,3.4032 -4.175,13.6763 -0.495,12.2639 1.3306,-0.5103 4.7704,-0.9279 7.6446,-0.9279 6.1361,0 6.6778,-1.0529 1.5455,-3.0041 z m -6.6391,22.5812 c -4.4735,-2.1221 -12.6083,-16.15 -12.6205,-21.7624 0,-2.5267 -1.0544,-3.219 -5.1933,-3.4285 -2.8521,-0.1444 -9.6647,-1.606 -15.1379,-3.2482 l -9.9525,-2.9857 -4.3756,8.556 c -2.7624,5.4012 -6.0571,9.4179 -8.9357,10.8929 -2.5072,1.2852 -4.6829,2.3455 -4.8336,2.3563 -0.1517,0.014 0.3641,9.5893 1.141,21.2855 0.7785,11.6964 1.7437,59.5043 2.1445,106.2402 l 0.729,84.9741 3.8633,-0.1531 c 2.1249,-0.083 5.5834,-0.2561 7.6857,-0.3822 l 3.8222,-0.2292 v -32.024 c 0,-17.6133 0.7463,-40.757 1.6585,-51.4307 1.3579,-15.8889 1.2885,-19.6353 -0.3813,-20.6679 -1.1221,-0.6937 -2.0942,-1.8023 -2.1592,-2.4637 -0.065,-0.6613 -0.6683,-3.8398 -1.3409,-7.0634 -1.2534,-6.0124 -1.816,-6.2149 -9.0385,-3.254 -2.5258,1.0352 -2.6523,0.7937 -1.1025,-2.102 2.154,-4.0246 3.5425,-4.3263 29.0257,-6.305 15.1778,-1.1784 21.0282,-1.1379 22.5884,0.1568 1.1581,0.9612 2.375,1.4774 2.7039,1.1472 0.3294,-0.3298 1.2378,-14.3603 2.0193,-31.1784 2.2835,-49.1601 2.5054,-44.6466 -2.3092,-46.9307 z m -2.2935,60.5528 c -7.288,2.0222 -31.0878,5.4894 -37.6806,5.4894 -10.8929,0 -8.5812,-2.3927 4.4319,-4.5877 10.1197,-1.707 10.6958,-2.0237 10.6737,-5.8707 -0.047,-8.1232 -5.0677,-10.4314 -17.543,-8.0648 -4.1961,0.796 -8.5842,0.9124 -9.7522,0.2587 -3.1192,-1.7457 -0.4945,-2.8377 11.9461,-4.9711 9.4241,-1.6161 11.5884,-1.5547 15.0981,0.4286 3.422,1.9339 4.0964,3.3694 4.0964,8.7159 v 6.4006 l 10.3205,-0.9612 c 7.4309,-0.6921 10.3199,-0.4582 10.3199,0.8353 0,0.988 -0.8599,2.0351 -1.9108,2.3268 z m 1.3734,74.9145 0.2254,-55.1816 -3.4949,0.6682 c -2.7096,0.5179 -3.7103,2.0141 -4.4531,6.6599 -0.5266,3.2955 -2.3196,7.3537 -3.9842,9.018 -2.9229,2.9229 -2.9765,4.1611 -1.5784,36.2903 0.7966,18.2952 1.652,41.3481 1.9013,51.2283 l 0.4528,17.9643 6.5673,5e-4 6.5672,6e-4 -1.2161,-5.7335 c -0.6687,-3.1533 -1.1138,-30.5651 -0.9891,-60.915 z m -27.8256,-176.285 c -3.3207,-0.922 -7.9294,-1.6801 -10.242,-1.6848 -3.3861,-0.014 -4.2043,0.685 -4.2043,3.554 0,3.2852 1.1719,3.7971 15.0552,6.5794 l 15.0557,3.0167 5.0707,-3.9036 5.0707,-3.9037 -9.8844,-0.991 c -5.4365,-0.545 -12.6013,-1.7452 -15.9216,-2.667 z m -49.2977,295.5167 c -27.1569,0.3061 -49.7197,0.9 -50.1402,1.3202 -1.1719,1.1722 73.6536,2.1342 99.5164,1.2794 21.9058,-0.724 22.4198,-0.8117 11.4666,-1.9567 -6.3067,-0.6592 -33.6859,-0.9485 -60.8428,-0.6429 z m 62.5903,-173.5313 c -3.282,-0.2141 -25.3717,0.3784 -25.6929,0.689 -0.1343,0.1317 0.099,2.0615 0.5309,4.2889 0.2468,7.0219 7.8866,3.5869 13.2428,3.2381 6.8559,-0.4464 13.2844,-1.459 14.2855,-2.2504 2.3798,-1.8812 0.8429,-5.7566 -2.3663,-5.9656 z m -13.2141,196.582 -4.5871,3.7597 h 9.9382 l 9.9377,0.014 -4.2898,-3.7739 c -3.9194,-4.1388 -7.3825,-3.0788 -10.999,2e-4 z m -2.8122,-184.472 c -6.4188,0.3769 -6.8041,2.1602 1.0409,2.0322 3.4696,-0.057 8.9329,-0.7333 11.8477,-0.9779 3.7062,-0.311 5.4951,-1.7596 0.6258,-1.942 -2.5311,-0.095 -5.9417,0.4431 -9.7954,0.6693 -1.2397,0.073 -3.719,0.2184 -3.719,0.2184 z m 13.4519,50.7392 c -1.1476,-45.701 -0.8928,-44.3385 -8.2813,-44.3385 -5.6627,0 -5.9479,0.2422 -6.7553,5.7333 -0.4637,3.1535 -1.5623,21.9017 -2.4413,41.6631 -0.8785,19.7612 -1.9099,40.2296 -2.2913,45.4852 l -0.6934,9.5558 h 11.63 11.6298 l -0.9666,-11.8491 c -0.5317,-6.517 -1.3551,-27.3295 -1.8306,-46.2498 z m -26.5925,74.4911 -3.7217,-8.7477 h -13.4498 c -13.0803,0 -13.476,0.1048 -14.4117,3.8323 -0.5287,2.108 -0.5106,6.2359 0.043,9.1736 0.6258,3.3349 0.403,5.3411 -0.5963,5.3411 -0.9341,0 -1.598,-3.8119 -1.598,-9.1735 v -9.1735 l -11.0849,0.017 c -10.9596,0.017 -11.1664,0.092 -18.3469,6.7144 -4.2498,3.9194 -7.2624,8.0354 -7.2624,9.9216 0,3.1915 0.3771,3.2236 37.5857,3.2236 20.6724,0 37.3568,-0.5356 37.0764,-1.1902 -0.2817,-0.6549 -2.1843,-5.127 -4.2307,-9.9381 z m -9.6097,-249.941 c -2.1622,-1.0548 -8.3034,-2.318 -13.6471,-2.8072 -5.3438,-0.4892 -12.3097,-1.8623 -15.4804,-3.0512 -8.5865,-3.2199 -30.4572,-2.8955 -34.6299,0.5139 -5.1186,3.1343 -1.5743,4.7304 1.6087,8.5766 4.806,5.8068 4.9226,5.8513 7.3101,2.7945 3.8281,-4.901 14.0168,-6.9075 24.3168,-4.7889 10.2039,2.0989 13.3889,3.5584 18.8328,8.63 5.1898,4.8348 11.9174,4.3432 14.6404,-1.0697 2.444,-4.8588 1.92,-6.4218 -2.9514,-8.798 z m -0.047,-18.2441 c -5.5965,-5.0635 -13.0681,-6.7927 -32.4898,-7.519 -23.3894,-0.8747 -32.3957,1.7079 -35.2176,10.0984 -2.5466,7.572 -1.3981,9.6937 3.507,6.4797 5.5093,-3.6099 24.534,-3.5089 35.2232,0.1873 4.7834,1.6539 13.0764,2.9044 20.2582,3.0544 l 12.1588,0.254 v -4.7213 c 0,-2.9545 -1.2872,-5.8858 -3.4398,-7.8336 z m -13.2043,115.9526 c -1.2941,-75.9886 -2.039,-87.5552 -5.4199,-84.1744 -1.2365,1.2368 -1.0558,169.2109 0.2123,195.5519 1.0033,20.8659 1.6096,25.2272 3.5066,25.2272 3.0402,0 4.4228,-14.1376 3.664,-37.4584 -0.3165,-9.6705 -1.1971,-54.2862 -1.9612,-99.1463 z m -26.9651,-156.3772 c -2.7608,5.4652 -4.5897,7.1424 -9.1506,8.3933 -8.7018,2.3862 -9.9752,7.4602 -9.0972,12.7815 l 1.0792,6.5401 8.3292,-1.2791 c 7.8238,-1.2014 7.7857,1.1941 8.7279,-3.8276 0.9729,-5.1865 5.0083,-9.8944 11.2314,-13.103 2.872,-1.4811 3.4398,-3.0355 3.4398,-9.4193 0,-5.9062 0.7827,-8.4155 3.4403,-11.0308 l 3.4398,-3.3855 c -9.6304,-0.6627 -17.2765,6.2923 -21.4398,14.3304 z m 17.0062,247.8788 c -1.8766,-34.2644 -2.1206,-136.4827 -0.4073,-170.092 0.3292,-6.4689 -0.082,-8.7912 -1.5603,-8.7912 -1.5801,0 -2.0161,5.6283 -2.043,26.3738 0,14.5057 -1.0328,48.3903 -2.2532,75.2993 -1.2204,26.9088 -2.3183,63.3734 -2.4401,81.0324 -0.1213,17.659 -0.706,34.1713 -1.2979,36.694 -1.9954,8.4953 -3.5937,-37.0602 -2.6555,-75.6813 1.2469,-51.3553 3.7862,-122.2909 4.854,-135.6115 l 0.882,-11.0048 -5.479,-1.0277 c -3.0134,-0.5655 -5.7715,-0.7355 -6.1286,-0.3784 -1.8618,1.8619 -6.5755,105.7 -7.7257,170.1916 -0.4498,25.2271 -1.1567,48.1035 -1.5706,50.8365 -1.5021,9.9177 -2.9102,4.6043 -3.0389,-11.4669 -0.3294,-41.1535 5.7008,-203.4281 7.6788,-206.6282 0.5735,-0.9277 0.1003,-1.6868 -1.0488,-1.6868 -4.6979,0 -10.1748,62.9577 -14.3648,165.123 -0.5343,13.0341 -0.462,32.4704 0.1604,43.192 l 1.1333,19.4936 h 19.4667 c 10.707,0 19.8511,-0.384 20.3206,-0.853 0.4689,-0.4691 0.5825,-2.0171 0.2513,-3.4401 -0.3294,-1.4229 -1.562,-20.1313 -2.736,-41.5744 z m -68.1893,-36.2663 c -2.1843,0.6344 -6.8923,1.987 -10.6441,2.4864 -6.2639,0.834 -6.9279,1.3456 -8.1231,6.2595 -0.7161,2.9432 -1.6902,21.0035 -2.1649,40.1341 l -0.8624,34.7828 4.3989,10e-5 h 4.3995 v -35.0884 c 0,-26.0321 0.4932,-35.5818 1.9113,-36.9999 1.5289,-1.5291 1.9111,5.5212 1.9111,35.252 0,33.26 0.2557,37.0658 2.4184,36.2353 1.3301,-0.5104 3.2222,-0.9277 4.2043,-0.9275 1.3128,3e-4 1.7865,-9.6962 1.7865,-36.5618 0,-32.2812 0.6319,-40.5622 2.9172,-38.2282 0.3424,0.3502 0.8589,17.3194 1.1463,37.7088 l 0.5231,37.0717 h 4.0605 4.0605 l -0.8274,-17.9648 c -1.0731,-23.3105 0.8057,-56.9517 3.1806,-56.9533 1.2886,-10e-4 1.6218,9.6328 1.2495,36.1102 -0.5105,36.3397 0,40.2162 4.8869,38.3348 1.9547,-0.7503 1.9674,-7.0912 2.425,-43.1662 l 0.4773,-37.6313 c 0.069,-5.4524 -13.5619,-3.6926 -23.335,-0.8543 z m 2.1861,135.2922 c -2.3377,0.447 -3.3701,1.3104 -2.5492,2.1315 1.4917,1.4917 6.4787,0.1604 6.4787,-1.7293 0,-0.6344 -1.7682,-0.8153 -3.9295,-0.4022 z m -20.6855,-176.1145 c -2.8197,-19.0929 -4.3898,-25.2604 -4.4756,-17.5768 -0.044,2.0322 -0.2688,17.0238 -0.5483,33.3146 -0.325,19.0059 0,28.7002 0.9287,27.0536 0.7901,-1.4115 3.1084,-3.202 5.1522,-3.979 4.282,-1.6279 4.2474,-2.898 -1.057,-38.8124 z m -10.2502,-31.4645 c -1.9858,0 -6.3839,67.5184 -7.4544,114.4255 l -0.9881,43.3309 3.5876,-0.5212 3.5876,-0.5211 -0.2513,-25.2272 c -0.1387,-13.8749 0.3467,-27.9791 1.0723,-31.3428 1.681,-7.7773 2.091,-100.1441 0.4446,-100.1441 z m -6.3466,0 c -1.6218,0 -2.2441,3.3026 -4.6082,24.4628 -3.4378,30.7702 -6.1603,76.8734 -6.1617,104.3486 0,27.6483 0.1082,28.6671 3.0563,28.6671 2.931,0 3.0589,-1.0285 3.085,-24.8448 0.043,-24.0829 1.8827,-66.8108 4.3989,-101.2907 1.8077,-24.765 1.8558,-31.343 0.2297,-31.343 z m -7.7465,1.529 c -0.859,0 -2.1687,1.5481 -2.9103,3.4401 -2.7121,6.9181 -9.3707,83.046 -11.6443,133.1221 l -0.9591,21.1292 4.7343,-0.4888 4.7341,-0.4887 0.6417,-31.3427 c 0.3511,-17.2385 1.4481,-43.3829 2.4332,-58.0989 0.9851,-14.7158 2.3051,-34.6682 2.9331,-44.3385 0.6285,-9.6704 1.2452,-18.7867 1.3704,-20.2581 0.1257,-1.4716 -0.4741,-2.6757 -1.3331,-2.6757 z m -20.6079,84.0905 c -5.1551,0 -8.0983,5.5838 -9.213,17.4776 -1.0142,10.8256 -0.7243,14.9019 1.6503,23.1929 1.2261,4.2817 -2.9132,8.2548 -8.6002,8.2548 l -3.4922,-0.1773 v 13.3779 13.3781 l 9.336,-0.5872 10.3217,-0.7643 0.8088,-34.4007 c 0.4446,-18.9204 0.9608,-35.6047 1.1467,-37.0763 0.1907,-1.5092 -0.6617,-2.6755 -1.9555,-2.6755 z m -28.2161,-9.1735 c -0.7527,-6.6106 -1.2685,4.3958 -1.5406,32.8717 -0.2644,27.5287 -0.8604,40.6266 -1.6739,36.6939 -0.6955,-3.3636 -1.3482,-30.5401 -1.4501,-60.3921 -0.1343,-40.0956 -0.6128,-53.2779 -1.8228,-50.4543 -1.0194,2.3785 -1.9212,25.5552 -2.3881,61.3601 l -0.7501,57.5375 c 3.7993,0.3583 5.0077,0.6759 8.8059,1.0453 4.077,0.3965 2.94,-22.8236 3.115,-34.2607 0.2902,-18.9636 -1.6733,-38.9355 -2.2953,-44.4014 z m -11.7675,-45.381 c -1.3933,1.3933 -5.0711,71.3983 -5.095,96.9819 -0.043,25.8957 0.043,26.3737 3.231,26.3737 3.0988,0 3.2071,-0.497 2.2541,-10.3202 -1.2941,-13.341 -1.0341,-81.3849 0.3771,-98.2329 1.0271,-12.2738 0.8143,-16.3824 -0.7654,-14.8025 z m -5.0368,0.354 c -2.8293,2.8416 -6.4421,42.8629 -7.4592,82.6313 -0.9673,37.8251 -0.8637,40.3732 1.643,40.3717 2.4673,0 2.6875,-2.7717 2.8266,-35.5488 0.1171,-27.6444 2.4287,-75.5744 4.2173,-87.4542 0.1387,-0.9173 -0.3163,-0.9173 -1.2277,0 z m -14.9968,91.4025 c -0.7446,-26.6831 -0.9027,-27.8111 -4.0149,-28.6464 -10.912,-2.9286 -22.6349,1.8493 -26.3495,10.7396 -1.5065,3.606 -2.1175,12.1646 -2.1175,29.6566 v 24.5878 l 9.5554,-0.8968 c 26.0838,-2.4481 25.9043,-2.4109 24.7715,-5.113 -0.5886,-1.4032 -1.4185,-15.0506 -1.845,-30.3278 z m -5.817,-13.504 c -0.2773,1.6816 -1.3228,12.2637 -2.3265,23.5153 -1.3634,15.2871 -2.2151,19.7599 -3.3696,17.6973 -1.5438,-2.7592 -0.4521,-39.6853 1.4355,-48.5389 1.8292,-8.5806 5.761,-1.82 4.2606,7.3263 z m -11.7801,27.9027 c -0.8057,10.301 -2.0768,18.7292 -2.8239,18.7292 -1.5829,0 -1.8029,-24.865 -0.3684,-41.8146 0.7042,-8.3276 1.5848,-11.6975 3.058,-11.6975 2.3867,0 2.4088,5.7312 0.1343,34.7829 z m -7.6285,1.5186 c -0.9367,10 -2.034,15.3102 -3.0364,14.6907 -1.4147,-0.8744 -0.5426,-36.9165 1.1068,-45.7337 0.3034,-1.6308 0.6072,-3.4811 0.6719,-4.1117 0.065,-0.6308 0.8047,-1.1468 1.6456,-1.1468 1.8219,0 1.6689,14.3387 -0.3902,36.3015 z m 460.6844,112.7106 c -2.3113,1.4283 -13.8599,-0.9324 -16.2487,-3.3216 -1.2053,-1.205 -2.1909,-3.0895 -2.1909,-4.1877 0,-4.5655 9.6344,-7.8697 15.9471,-5.4696 3.176,1.2075 3.9288,2.509 3.9288,6.7924 0,2.9143 -0.6462,5.6982 -1.4363,6.1865 z m -5.5691,-7.4238 c -3.7271,-1.4304 -8.2839,-1.1 -8.2839,0.601 0,0.8408 1.3197,1.5289 2.9328,1.5289 1.6131,0 4.0211,0.4177 5.3511,0.928 1.3301,0.5104 2.4183,0.2401 2.4183,-0.6009 0,-0.8408 -1.0882,-1.9465 -2.4183,-2.457 z m -18.6125,-253.5448 c -9.1611,0.2605 -47.6022,3.4766 -61.0145,5.1046 -24.9882,3.0333 -20.4518,-0.6756 6.3548,-5.1961 l 12.2222,-2.061 0.9569,-5.8883 c 0.5266,-3.2388 2.2104,-6.8048 3.7415,-7.9246 3.8928,-2.846 29.1016,-2.8244 30.7914,0.026 0.6725,1.1343 3.2868,3.0311 5.8096,4.215 3.4187,1.6046 4.7041,3.3553 5.0481,6.876 0.4162,4.2617 0.044,4.7356 -3.91,4.8478 z m -2.6671,-8.8279 c -1.2617,0 -3.7433,-1.4501 -5.5158,-3.2225 -2.9762,-2.9762 -4.1107,-3.1221 -14.8506,-1.911 -11.5331,1.3004 -11.6371,1.352 -12.6382,6.2802 l -1.0098,4.969 h 18.1539 c 17.1346,0 18.154,-0.1717 18.154,-3.0578 0,-1.6989 -1.0194,-3.0579 -2.2935,-3.0579 z m -19.8759,21.9854 c -10.5116,0.5215 -27.7116,1.3751 -38.2231,1.8967 -12.0462,0.5979 -19.1114,0.397 -19.1114,-0.5428 0,-1.8939 14.9617,-3.2565 49.3076,-4.4905 18.3045,-0.6577 27.1383,-0.4602 27.1383,0.6065 0,0.9548 -7.5761,1.9576 -19.1114,2.5301 z m -62.3462,243.8597 c -2.4197,2.4195 -9.5569,2.1322 -11.7178,-0.4715 -1.4492,-1.7462 -1.1991,-2.5162 1.2413,-3.8223 6.8147,-3.6471 15.0444,-0.2743 10.4765,4.2938 z m -131.8263,1.7153 c -1.2611,0 -2.2931,-1.032 -2.2931,-2.2933 0,-1.2614 1.032,-2.2934 2.2931,-2.2934 1.2616,0 2.2935,1.032 2.2935,2.2934 0,1.2613 -1.0319,2.2933 -2.2935,2.2933 z m -76.787,19.7842 c -7.6034,2.1116 -8.927,2.0455 -14.2595,-0.712 -8.1664,-4.2231 -4.7534,-13.1066 4.9446,-12.8703 1.9473,0.047 5.8959,0.9075 8.7749,1.9112 3.9417,1.3742 5.368,2.8428 5.7746,5.9461 0.4754,3.6286 -0.1517,4.3131 -5.2346,5.725 z m -9.9788,-7.4454 c -2.3126,-0.06 -4.2049,0.54 -4.2049,1.3313 0,2.5798 2.8991,3.3164 8.7399,2.2206 4.7608,-0.8932 5.2194,-1.2767 2.7018,-2.2601 -1.6678,-0.6514 -4.9242,-1.2327 -7.2368,-1.2918 z m -72.0409,9.9651 c -2.9904,1.1476 -5.5518,-0.4161 -5.5518,-3.389 0,-1.501 1.1624,-2.1385 3.3203,-1.8209 4.0318,0.5933 5.4759,3.965 2.2315,5.2099 z" transform="translate(174.53161,191.34036) translate(-2061.8141,1436.8513)"/>
</svg>