<svg xmlns="http://www.w3.org/2000/svg" id="Layer_2" data-name="Layer 2" viewBox="0 0 167.54 167.54"><defs><style>.cls-2{stroke-width:0;fill:#fff}</style></defs><g id="Layer_1-2" data-name="Layer 1"><path stroke-width="0" d="M0 0h167.54v167.54H0z"/><path d="m122.22 122.22-38.45 15.92 31.85-31.85 6.6 15.93zm15.92-38.45-22.52 22.52-9.33-22.52 9.33-22.52 22.52 22.52zm-15.92-38.44-6.6 15.92L83.77 29.4l38.45 15.93z" class="cls-2"/><path d="m106.29 83.77-22.52 54.37-22.52-54.37L83.77 29.4l22.52 54.37zm-22.52 54.37-38.44-15.92 6.59-15.93 31.85 31.85zM61.25 83.77l-9.33 22.52L29.4 83.77l22.52-22.52 9.33 22.52zM83.77 29.4 51.92 61.25l-6.59-15.92L83.77 29.4z" class="cls-2"/></g></svg>