<svg xmlns="http://www.w3.org/2000/svg" data-name="Layer 2" viewBox="0 0 167.54 167.54"><g data-name="Layer 1"><path d="M0 0h167.54v167.54H0z"/><path fill="#fff" d="M120.07 65.84h-15.12c-1.67 0-3.02-1.35-3.02-3.02V47.7c0-10.02-8.13-18.15-18.15-18.15S65.63 37.68 65.63 47.7v15.12c0 1.67-1.35 3.02-3.02 3.02H47.49c-10.02 0-18.15 8.13-18.15 18.15s8.13 18.15 18.15 18.15h15.12c1.67 0 3.02 1.35 3.02 3.02v15.12c0 10.02 8.13 18.15 18.15 18.15s18.15-8.13 18.15-18.15v-15.12c0-1.67 1.35-3.02 3.02-3.02h15.12c10.02 0 18.15-8.13 18.15-18.15s-8.13-18.15-18.15-18.15zm0 21.18h-15.12c-10.02 0-18.15 8.13-18.15 18.15v15.12c0 1.67-1.35 3.02-3.02 3.02s-3.02-1.35-3.02-3.02v-15.12c0-10.02-8.13-18.15-18.15-18.15H47.49c-1.67 0-3.02-1.35-3.02-3.02s1.35-3.02 3.02-3.02h15.12c10.02 0 18.15-8.13 18.15-18.15V47.71c0-1.67 1.35-3.02 3.02-3.02s3.02 1.35 3.02 3.02v15.12c0 10.02 8.13 18.15 18.15 18.15h15.12c1.67 0 3.02 1.35 3.02 3.02s-1.35 3.02-3.02 3.02z"/></g></svg>