<svg xmlns="http://www.w3.org/2000/svg" data-name="Layer 2" viewBox="0 0 167.54 167.54"><g stroke-width="0" data-name="Layer 1"><path d="M0 0h167.54v167.54H0z"/><path fill="#fff" d="m85.45 72.75 16.94-40.89c.72-1.74-1.55-3.15-2.79-1.73L85.17 46.68c-.66.76-1.85.76-2.51 0L68.23 30.13c-1.24-1.42-3.51-.01-2.79 1.73l16.94 40.89c.57 1.37 2.51 1.37 3.08 0zm-8.28 2.04L60.23 33.9c-.72-1.74-3.33-1.13-3.2.75l1.5 21.9c.07 1.01-.77 1.84-1.77 1.77l-21.9-1.5c-1.88-.13-2.49 2.48-.75 3.2L75 76.96c1.37.57 2.74-.8 2.18-2.18zm-4.42 7.3L31.86 65.15c-1.74-.72-3.15 1.55-1.73 2.79l16.55 14.43c.76.66.76 1.85 0 2.51L30.13 99.31c-1.42 1.24-.01 3.51 1.73 2.79l40.89-16.94c1.37-.57 1.37-2.51 0-3.08zm2.04 8.29L33.9 107.32c-1.74.72-1.13 3.33.75 3.2l21.9-1.5c1.01-.07 1.84.77 1.77 1.77l-1.5 21.9c-.13 1.88 2.48 2.49 3.2.75l16.94-40.89c.57-1.37-.8-2.74-2.18-2.18zm7.3 4.41-16.94 40.89c-.72 1.74 1.55 3.15 2.79 1.73l14.43-16.55c.66-.76 1.85-.76 2.51 0l14.43 16.55c1.24 1.42 3.51.01 2.79-1.73L85.16 94.79c-.57-1.37-2.51-1.37-3.08 0zm8.29-2.04 16.94 40.89c.72 1.74 3.33 1.13 3.2-.75l-1.5-21.9c-.07-1.01.77-1.84 1.77-1.77l21.9 1.5c1.88.13 2.49-2.48.75-3.2L92.55 90.58c-1.37-.57-2.74.8-2.18 2.18zm4.41-7.3 40.89 16.94c1.74.72 3.15-1.55 1.73-2.79l-16.55-14.43c-.76-.66-.76-1.85 0-2.51l16.55-14.43c1.42-1.24.01-3.51-1.73-2.79L94.79 82.38c-1.37.57-1.37 2.51 0 3.08zm-2.04-8.28 40.89-16.94c1.74-.72 1.13-3.33-.75-3.2l-21.9 1.5c-1.01.07-1.84-.77-1.77-1.77l1.5-21.9c.13-1.88-2.48-2.49-3.2-.75L90.58 75c-.57 1.37.8 2.74 2.18 2.18z"/></g></svg>