<?xml version="1.0" ?><svg xmlns="http://www.w3.org/2000/svg" width="245.04924mm" height="244.82458mm" viewBox="0 0 245.04924 244.82458">
    <path d="m 20229.721,4756.9121 v 958.1367 h 957.435 v -958.1367 z" fill="#82795d" paint-order="fill markers stroke" transform="translate(279.83403,-256.38851) matrix(0.25550315,0,0,0.25550315,-5448.5884,-959.01749)"/>
    <path d="m 20800.225,4812.4023 -79.035,92.5938 19.889,57.4473 82.99,14.7539 24.205,48.123 -14.973,81.9414 c -27.565,15.1739 -57.78,14.3989 -88.959,7.834 l -38.298,68.1523 51.877,22.2481 97.142,-15.9805 12.014,-24.5976 85.65,-15.1992 0.869,-29.9239 -52.748,-39.0117 22.809,-49.1953 36.904,13.4746 21.065,-108.5762 94.355,-39.6367 -40.213,-48.8828 -84.781,21.3066 -11.662,-31.0214 z m -294.492,110.834 c -1.855,-0.02 -3.712,0.012 -5.57,0.092 -16.38,2.9901 -46.037,6.8941 -59.125,18.4805 -8.45,7.8426 -6.185,26.7115 -10.991,40.9707 -4.806,14.2592 -24.663,17.6825 -40.666,15.4961 -16.002,-2.1864 -46.368,-22.0065 -59.572,-35.8379 -2.83,-2.9652 -5.869,-6.9582 -8.896,-11.1113 -13.453,6.9654 -33.901,18.1766 -37.713,23.9297 -5.748,8.6724 -10.704,22.2382 -19.377,27.4726 -6.786,4.0952 -24.94,8.9854 -33.961,11.3399 v 54.8476 c 12.573,-0.088 37.527,0.5295 39.316,6.8262 2.399,8.4384 2.148,13.9049 -2.213,16.6523 -3.599,2.2675 -27.498,10.1709 -37.103,13.3243 l -0.153,272.4367 c 0,0 0.465,12.3739 0.465,14.7644 0,0 8.569,-18.2581 10.92,-22.8496 2.352,-4.591 19.777,-46.022 28.147,-70.7012 8.37,-24.6789 15.676,-34.0429 28.312,-38.2753 12.635,-4.2328 44.003,0.5737 44.92,-2.4395 0.916,-3.0131 -0.512,-26.6521 -0.552,-39.0273 -0.04,-12.3755 -0.392,-22.1326 1.601,-31.0645 1.993,-8.9319 14.633,-10.367 29.34,-13.416 14.708,-3.0491 63.61,-4.1978 82.662,-9.3633 19.052,-5.1654 23.919,-10.8335 25.713,-25.1816 1.793,-14.3483 -13.964,-20.3611 -24.447,-22.7286 -10.483,-2.3675 -33.643,-6.8173 -36.035,-20.5195 -2.391,-13.7027 9.365,-18.8674 23.794,-31.207 14.428,-12.3396 60.871,-34.4717 79.405,-42.3633 18.534,-7.8916 44.315,-17.0392 50.972,-28.6973 6.656,-11.658 -1.195,-49.0001 -4.742,-56.6406 -0.651,-1.4009 -2.011,-3.504 -3.625,-5.8183 -1.609,-0.4317 -26.78,-7.1402 -55.277,-9.1661 -1.839,-0.1307 -3.69,-0.2042 -5.545,-0.2246 z m 682.979,92.5489 -70.879,3.8457 c 0.215,2.4442 0.314,4.8723 0.447,7.3105 1.963,14.449 2.271,29.0876 5.506,36.2363 5.805,12.8294 11.344,11.6124 24.474,11.0743 4.944,-0.2026 12.675,-0.7863 20.387,-1.4336 7.013,-0.589 15.173,-1.202 20.065,-1.6622 z m -0.07,94.0776 c -12.477,5.8491 -36.613,17.2576 -42.067,20.8696 -7.179,4.754 -16.076,6.7846 -17.416,26.0684 -1.339,19.2838 0.81,18.1795 -8.41,30.7676 -0.566,0.7713 -1.085,1.329 -1.627,1.9921 -2.09,7.2655 -7.338,11.1594 -11.346,16.6075 -4.47,6.0759 -4.33,14.8757 -5.168,32.0136 -0.818,16.7126 9.347,30.4836 8.26,40.1348 1.307,0.2719 2.644,0.4481 4.041,0.4043 16.868,-0.5291 66.937,-10.3904 68.836,-6.6055 1.9,3.785 -0.138,17.0924 -3.078,25.1914 -2.939,8.0989 -26.677,57.1401 -38.932,71.5879 -12.255,14.4479 -21.213,25.0714 -20.942,43.9961 0.271,18.9244 14.741,24.947 25.459,23.1563 10.276,-1.7167 40.125,-34.3508 42.542,-36.9657 l -0.122,-89.3672 z m -584.825,86.4399 -41.049,1.2754 -24.633,17.0703 43.557,96.9629 -30.293,22.7168 -60.758,-19.2715 -43.871,19.7422 -122.559,54.3653 c 0,0 0.697,35.4085 1.045,41.0488 0.348,5.6402 104.126,-3.3087 110.045,-4.7188 5.919,-1.4101 3.994,22.0528 3.994,22.0528 0,0 -71.178,31.0303 -77.968,31.3437 -6.789,0.3134 -38.16,29.9727 -38.16,29.9727 l 28.902,30.707 130.914,-21.3066 31.682,53.7383 67.228,-6.3946 68.908,17.8321 -4.523,71.1289 84.084,17.8613 -5.572,-160.5899 -105.672,-33.8418 18.8,-53.8964 67.028,-18.9571 16.539,-54.5234 69.98,-18.0156 -20.017,-49.0391 -119.961,6.377 z m 266.769,215.8067 -52.935,89.8164 27.252,111.3437 132.738,-10.0586 6.113,23.2813 -54.203,39.5996 69.283,30.5293 24.545,-43.002 71.041,-32.5195 17.549,-47.166 26.157,-45.2109 -28.04,-30.8028 -52.642,38.9434 -20.658,-12.6406 c 0,0 4.952,-36.2903 0.04,-46.3692 -2.884,-5.9222 -39.063,-2.2051 -39.063,-2.2051 l -81.303,67.92 -45.091,-27.1739 53.699,-63.1777 z" fill="#d48700" paint-order="fill markers stroke" transform="translate(279.83403,-256.38851) matrix(0.25550315,0,0,0.25550315,-5448.5884,-959.01749)"/>
    <path d="m 20262.988,4756.9121 c 0.357,1.5294 4.673,19.1538 17.967,30.7539 13.889,12.1202 26.456,15.3527 21.967,24.1934 -4.489,8.8407 -16.688,14.8775 -18.326,29.2793 -1.637,14.4018 1.786,25.9667 -10.299,33.0332 -10.036,5.8693 -27.367,-9.1012 -44.426,-19.5821 v 50.0489 c 0,0 36.401,-6.9389 45.274,-6.8438 8.872,0.095 15.264,-2.6144 19.806,8.793 4.542,11.4073 21.651,42.0183 34.854,55.8496 13.204,13.8314 43.574,33.6515 59.576,35.8379 16.002,2.1864 35.86,-1.2369 40.666,-15.4961 4.806,-14.2592 2.538,-33.1281 10.988,-40.9707 8.451,-7.8425 40.825,-20.4391 70.242,-18.3477 29.417,2.0913 56.352,9.4121 56.352,9.4121 0,0 -17.958,-44.8696 -23.609,-53.1875 -5.651,-8.3177 -28.465,-14.1646 -45.735,-15.6855 -17.27,-1.521 -74.523,3.2319 -82.181,-19.6777 -7.658,-22.9098 -3.91,-33.9362 21.652,-41.3985 25.562,-7.4623 113.815,-5.5622 133.092,-16.9218 18.407,-10.8476 26.749,-27.5645 27.486,-29.0899 h -208.107 c -0.862,1.6205 -13.149,24.2921 -29.1,25.668 -16.531,1.426 -25.826,-6.6536 -29.84,-13.2129 -3.845,-6.2833 -7.746,-11.9466 -8.096,-12.4551 z m 925.651,97.1953 c -21.507,1.0518 -48.868,3.8142 -47.463,32.8125 1.229,10.6253 13.984,16.2296 23.513,15.9395 8.979,-0.2733 22.442,-1.1548 23.941,-1.2637 z m -484.858,324.9102 -99.515,17.2168 45.023,91.8281 114.205,-12.0645 25.067,55.4629 45.251,21.4082 48.1,66.6582 43.289,30.0625 43.543,-13.3144 -17.062,-126.7481 -77.121,-32.9023 29.769,-58.752 -36.734,-36.1914 -94.182,22.8731 z m -105.111,387.4062 c -5.676,0.133 -11.458,1.0523 -17.486,2.9278 -19.288,6.0014 -101.67,20.1292 -122.291,19.8984 -20.622,-0.2309 -43.656,-12.2354 -60.122,-13.5742 -16.465,-1.3388 -33.609,2.7427 -30.794,20.084 1.85,11.392 24.898,24.2806 44.185,31.9902 19.288,7.7096 17.132,27.0076 13.592,35.502 -3.539,8.4942 -33.703,51.8613 -33.703,51.8613 l 210.146,-0.076 c 0,0 5.537,-21.4867 16.127,-37.0019 13.191,-19.3243 40.414,-9.5257 42.973,-52.2012 0.899,-14.9776 -6.399,-42.6333 -25.225,-50.666 -12.942,-5.5225 -24.916,-9.0368 -37.402,-8.7442 z m -316.248,109.9473 c -4.159,-0.03 -8.24,0.7792 -11.943,1.9766 -11.849,3.8318 -11.798,24.5448 -8.772,36.7324 l 60.74,-0.127 c 0,0 -8.38,-9.358 -14.621,-21.416 -6.717,-12.9766 -16.252,-17.101 -25.404,-17.166 z" fill="#e07600" paint-order="fill markers stroke" transform="translate(279.83403,-256.38851) matrix(0.25550315,0,0,0.25550315,-5448.5884,-959.01749)"/>
    <path d="m 20229.719,4756.9121 0.128,97.8641 c 17.059,10.4809 35.904,25.2669 45.94,19.3976 12.085,-7.0665 8.662,-18.6314 10.299,-33.0332 1.638,-14.4018 13.837,-20.4386 18.326,-29.2793 4.489,-8.8407 -8.078,-12.0736 -21.967,-24.1933 -13.296,-11.6019 -17.611,-29.2312 -17.967,-30.7559 z m 94.96,0 c 0.349,0.5065 4.252,6.1726 8.098,12.457 4.014,6.5593 13.309,14.6389 29.84,13.2129 15.953,-1.376 28.24,-24.0529 29.1,-25.6699 z m 672.799,0 c -15.114,26.1308 -29.3,40.1695 -39.759,53.4317 -10.552,13.3787 -28.208,27.1777 -28.208,27.1777 0,0 3.984,26.9961 25.817,31.416 21.835,4.4198 53.363,-5.6742 75.861,-10.6914 22.498,-5.0171 36.365,4.8388 38.356,23.4141 1.991,18.575 -14.733,28.3712 -36.502,36.3144 -21.768,7.9438 -54.55,20.605 -59.926,29.0859 -5.376,8.4814 -14.27,44.4977 -15.398,54.293 -1.128,9.7947 -5.045,45.752 -5.045,45.752 0,0 24.355,3.2858 49.242,-9.1973 24.888,-12.4825 28.273,-30.8798 34.246,-48.3203 5.973,-17.4405 21.901,-21.7415 32.918,-24.3691 11.016,-2.628 29.335,2.8663 37.299,12.0644 7.964,9.1981 12.943,42.3477 12.943,42.3477 l 69.316,-3.8457 v -114.3295 c -1.482,0.1278 -13.481,1.1303 -22.461,1.4037 -9.529,0.2901 -22.284,-5.3147 -23.513,-15.9395 -1.396,-28.8076 24.53,-31.7051 45.972,-32.7734 v -97.2344 z m -712.549,140.6758 c -0.679,-0.016 -1.377,-5e-4 -2.097,0.019 -1.917,0.062 -3.979,0.2132 -6.197,0.1895 -8.809,-0.095 -46.852,6.7949 -46.852,6.7949 v 111.2215 c 0,0 26.86,-7.8489 35.533,-13.0828 8.673,-5.2344 13.629,-18.8003 19.377,-27.4727 3.812,-5.7531 24.26,-16.9643 37.713,-23.9297 -11.094,-15.219 -22.391,-35.7765 -25.959,-44.7383 -2.981,-7.4858 -6.76,-8.8928 -11.512,-9.0019 z m 202.055,27.4043 c -4.196,0.7016 -8.243,1.5745 -12.15,2.5976 7.749,-0.1557 12.616,-0.276 12.402,-0.3339 -0.103,-0.028 -0.182,-0.9257 -0.252,-2.2637 z m 179.344,82.123 -55.637,72.1504 -58.148,0.9395 -21.588,-54.209 -99.578,38.3848 -15.143,31.0214 c 0,0 63.54,27.7317 70.678,28.045 7.137,0.3133 -25.068,37.916 -25.068,37.916 l -116.116,21.7773 -1.742,71.9121 29.422,34.625 c 0,0 1.042,74.7332 3.48,75.2032 l 32.032,0.9414 74.162,-52.9571 66.851,18.9571 25.338,-19.7461 -31.912,-74.1973 3.92,-32.0234 54.828,-11.4278 105.551,-21.6289 41.953,-64.2343 -23.193,-90.0665 z m 289.867,155.4864 -79.211,0.5293 -9.021,24.5273 36.664,37.4102 -25.293,50.4648 81.568,48.8789 44.604,-43.5059 -0.403,-65.5722 z m -712.451,444.3418 v 0 c -0.805,-0.01 -1.584,0.01 -2.334,0.035 -5.994,0.2186 -11.678,1.8177 -11.678,1.8177 v 106.249 l 33.441,0.031 c 12.57,0.01 -2.985,-32.9235 8.805,-36.7363 3.703,-1.1974 7.784,-2.0066 11.943,-1.9766 9.152,0.065 18.687,4.1899 25.404,17.166 6.241,12.0579 11.297,16.9708 11.297,16.9708 l 3.998,4.4921 c 9.122,0.2767 68.93,0.01 68.93,0.01 0,0 30.164,-43.2654 33.703,-51.7598 3.54,-8.4944 5.696,-27.7923 -13.592,-35.5019 -7.843,-3.1349 -16.05,-7.24 -23.457,-11.6387 -4.811,9.4615 -10.862,20.6109 -14.002,24.6192 -5.143,6.565 -29.183,21.5265 -42.099,19.4277 -12.916,-2.0988 -17.908,-14.3696 -22.961,-21.3652 -5.053,-6.9959 -32.469,-20.396 -48.016,-27.6875 -6.803,-3.1902 -13.731,-4.1185 -19.373,-4.1543 z m 944.209,5.2539 c -3.099,0.4709 -15.934,11.7733 -22.928,14.7675 -8.904,3.8116 -30.648,1.3808 -49.424,1.1407 -18.775,-0.2401 -44.089,7.5024 -61.197,12.6347 -17.108,5.1322 -33.947,7.4426 -40.717,26.711 -6.769,19.2681 -14.457,47.6054 -14.457,47.6054 l 189.408,-0.01 v -102.3321 c 0,-0.4306 -0.243,-0.5848 -0.685,-0.5175 z" fill="#bb6f11" paint-order="fill markers stroke" transform="translate(279.83403,-256.38851) matrix(0.25550315,0,0,0.25550315,-5448.5884,-959.01749)"/>
    <path d="m 20719.795,4756.9121 3.174,27.8555 -40.807,31.8515 -21.865,54.7891 50.678,32.2129 55.345,-37.8516 35.686,-58.4394 139.967,26.3203 68.355,-76.7383 z m -406.75,179.0703 c 1.502,2.397 3.015,4.7338 4.572,7.0469 -1.558,-2.3114 -3.079,-4.6638 -4.572,-7.0469 z m 759.898,26.3711 c -1.571,0.083 -3.064,0.2848 -4.441,0.6133 -11.017,2.628 -26.947,6.9289 -32.92,24.3691 -5.973,17.4405 -9.356,35.8385 -34.244,48.3203 -24.887,12.4831 -49.244,9.1973 -49.244,9.1973 0,0 0.467,-4.2015 0.551,-4.9707 -2.187,0.2309 -6.38,0.3792 -12.188,-1.0586 -8.519,-2.1092 -22.689,-6.829 -34.965,18.1797 -12.276,25.0086 10.118,33.3336 16.889,40.5645 6.77,7.2314 21.613,14.964 28.383,30.2304 6.771,15.2664 0.449,27.5535 4.466,38.166 4.018,10.6128 28.941,20.324 42.258,37.0625 8.378,10.5309 11.395,20.4257 13.926,26.877 1.544,8.9937 2.537,18.5368 1.779,25.7207 -1.397,13.2412 -4.381,27.5292 -18.115,36.2031 -13.735,8.6739 -24.633,16.2588 -31.57,19.4434 -6.938,3.1847 -11.873,1.0468 -13.223,33.8984 -1.349,32.8517 1.308,37.336 8.153,49.9903 6.843,12.6544 10.522,18.6882 11.173,25.4765 0.652,6.7882 3.258,12.1524 3.258,12.1524 8.706,-3.436 43.208,-9.9722 58.852,-30.7559 15.645,-20.7838 22.49,-37.3359 28.543,-61.5977 6.053,-24.2611 16.577,-43.5366 25.843,-48.3554 9.265,-4.8188 23.928,-5.5743 25.651,-15.2539 1.722,-9.6795 -9.076,-23.7582 -8.237,-40.8965 0.838,-17.1381 0.698,-25.9378 5.168,-32.0137 4.008,-5.4481 9.256,-9.342 11.346,-16.6074 0.542,-0.6631 1.061,-1.2209 1.627,-1.9922 9.221,-12.5881 7.071,-11.4838 8.41,-30.7676 1.34,-19.2838 10.237,-21.3143 17.416,-26.0683 5.345,-3.5395 28.497,-14.607 41.13,-20.5333 v -39.7969 c -10.45,0.9797 -30.211,3.4711 -39.446,3.8497 -13.13,0.5381 -18.672,1.7552 -24.477,-11.0742 -3.286,-7.2623 -3.53,-22.2291 -5.58,-36.9004 -2.724,-18.6906 -0.747,-33.7087 -13.316,-48.9942 -6.968,-8.048 -21.861,-13.2608 -32.856,-12.6777 z m -837.4,103.6758 c -3.421,-0.036 -5.441,0.017 -5.682,0.023 v 38.9336 c 0.614,-0.2207 33.696,-12.1218 38.016,-14.8437 4.361,-2.7474 4.61,-8.214 2.211,-16.6524 -1.797,-6.3282 -23.702,-7.3472 -34.545,-7.4609 z m 566.988,271.9531 -71.033,5.7969 -13.053,64.8633 -81.826,13.4746 c 0,0 -17.968,45.6103 -13.76,51.082 23.124,30.0707 100.98,28.6641 100.979,28.6641 l 13.756,150.7207 -17.586,49.664 -1.559,12.7793 283.557,0.014 6.816,-23.1328 -82.248,-20.7383 56.485,-43.0273 2.435,-26.9492 -145.539,8.9316 -24.717,-104.1875 53.619,-93.3789 -16.365,-56.7148 z" fill="#ff8e06" paint-order="fill markers stroke" transform="translate(279.83403,-256.38851) matrix(0.25550315,0,0,0.25550315,-5448.5884,-959.01749)"/>
    <path d="m 20597.627,4756.9121 -41.229,35.3867 -145.834,17.0157 7.834,45.2793 123.43,16.9199 36.731,109.8281 -44.391,50.293 15.144,54.3652 64.59,-1.4102 46.133,-75.3593 63.172,3.2402 c 0,0 12.693,92.6741 19.721,96.3457 26.271,13.7255 66.392,17.5829 90.478,-0.5684 21.907,-16.5088 11.196,-70.61 12.239,-76.8769 1.045,-6.267 -18.946,-53.3125 -18.946,-53.3125 l -85.178,-15.4629 -35.138,-60.5137 -45.313,-18.5547 16.311,-59.1933 c 0,0 38.401,-29.6659 36.486,-37.0293 -1.909,-7.3395 6.837,-30.2416 6.895,-30.3926 z m 507.602,498.3731 c 1.547,5.1772 3.228,9.9846 4.455,14.2324 -1.176,-4.2842 -2.922,-9.0543 -4.455,-14.2324 z m -762.655,1.5586 c -0.05,0.492 -0.02,1.5682 -0.103,1.8105 -0.917,3.0132 -32.285,-1.7933 -44.92,2.4395 -12.636,4.2323 -19.943,13.5965 -28.313,38.2753 -8.37,24.6792 -25.794,66.1106 -28.146,70.7012 -1.125,2.1992 -6.345,8.8106 -11.231,14.8477 v 226.6875 c 8.937,-1.3681 25.123,-3.5286 31.76,-0.5 15.547,7.2919 42.963,20.6916 48.016,27.6875 5.053,6.996 10.047,19.2664 22.963,21.3652 12.916,2.0988 36.954,-12.8623 42.097,-19.4277 3.122,-3.9857 9.118,-15.0304 13.916,-24.4571 -10.864,-6.4352 -19.54,-13.7303 -20.642,-20.5136 -2.815,-17.3413 14.331,-21.4228 30.797,-20.084 16.466,1.3388 39.497,13.3433 60.119,13.5742 9.494,0.1063 32.362,-2.9622 55.853,-6.748 -0.844,-6.5849 -3.224,-23.7186 -8.099,-33.7461 -5.882,-12.0998 -17.417,-27.6364 -33.536,-29.4239 -16.118,-1.7874 -86.932,20.4864 -112.371,19.4551 -25.438,-1.0312 -28.951,-10.8619 -32.312,-22.1367 -3.361,-11.2748 2.063,-16.8436 18.105,-27.293 16.042,-10.4498 50.494,-16.8434 72.418,-27.5683 21.924,-10.7248 24.52,-15.469 23.145,-22.3438 -1.375,-6.8744 -0.992,-12.0312 -11.305,-14.0937 -10.313,-2.0625 -39.191,3.0938 -65.775,7.9062 -26.584,4.8119 -37.507,-0.068 -42.547,-16.293 -5.042,-16.2244 3.133,-25.7127 15.432,-37.8125 12.298,-12.0994 39.418,-16.3632 39.417,-16.3632 0,0 1.601,-3.0258 3.282,-18.9063 1.681,-15.881 2.827,-43.9304 -3.514,-58.3672 -5.126,-11.6737 -19.213,-23.4545 -34.506,-28.6718 z m 838.364,14.4472 c -11.086,-0.6408 -51.267,6.9667 -66.026,7.4297 -1.397,0.044 -2.734,-0.1324 -4.041,-0.4043 -0.03,0.2458 0.02,0.5213 -0.02,0.7617 -1.723,9.6796 -16.39,10.4351 -25.655,15.2539 -9.266,4.8188 -19.789,24.0944 -25.842,48.3555 -6.053,24.2618 -12.898,40.8139 -28.543,61.5977 -15.643,20.7834 -50.143,27.3198 -58.849,30.7558 0,0 -1.617,-3.4499 -2.621,-8.2539 -6.862,8.7084 -19.619,12.0951 -35.153,18.5293 -21.144,8.7578 -24.594,21.4175 -37.244,34.3945 -12.651,12.9775 -21.674,35.6684 -7.873,53.5821 13.801,17.9137 38.039,7.1643 53.52,-3.584 15.482,-10.7482 36.716,-39.1702 50.428,-49.9981 13.712,-10.8278 29.279,-12.1817 42.195,-4.7773 12.916,7.4043 4.07,20.0638 1.416,42.5156 -2.654,22.4514 13.36,20.8586 24.949,17.3555 11.589,-3.5031 31.138,-21.8934 41.223,-29.7754 10.086,-7.882 13.538,-8.202 26.631,9.1543 13.093,17.3564 1.59,33.9187 -3.629,45.7812 -5.22,11.8629 -27.688,33.2 -35.739,46.8145 -3.282,5.5511 -5.51,15.6115 -7.045,25.6016 10.771,-2.5312 21.741,-4.397 31.09,-4.2774 18.776,0.2401 40.52,2.671 49.424,-1.1406 8.011,-3.4297 22.361,-13.3712 25.102,-15.2834 l -0.04,-212.1648 c -2.417,2.6149 -32.067,34.8155 -42.343,36.5322 -10.718,1.7907 -25.188,-4.2323 -25.459,-23.1563 -0.271,-18.9247 8.686,-29.5482 20.941,-43.9961 12.255,-14.4478 35.995,-63.489 38.934,-71.5879 2.94,-8.099 4.976,-21.4064 3.076,-25.1914 -0.238,-0.4731 -1.227,-0.7326 -2.81,-0.8242 z m -70.45,1.4258 c 0.06,0.2825 0.108,0.5624 0.155,0.8398 -0.04,-0.2736 -0.102,-0.5611 -0.155,-0.8398 z m -473.783,380.5977 -37.668,61.6875 h 119.85 l 16.873,-48.6797 z" fill="#ff9f36" paint-order="fill markers stroke" transform="translate(279.83403,-256.38851) matrix(0.25550315,0,0,0.25550315,-5448.5884,-959.01749)"/>
    <path d="m 20252.773,4756.9121 c 6.041,23.4711 27.353,45.357 31.915,50.5703 5.314,6.075 4.913,10.4813 -1.465,15.5996 -6.378,5.1183 -9.441,22.8841 -9.588,27.0918 -0.188,5.4056 0.595,15.1712 -5.039,16.1758 -5.634,1.0045 -14.033,-6.0759 -24.77,-13.4902 -3.976,-2.7461 -8.851,-5.1778 -13.955,-6.5269 v 18.9699 c 10.826,1.4743 19.306,9.2838 23.787,12.9105 5.794,4.6878 22.856,7.3181 29.5,3.7305 6.644,-3.5877 5.368,-28.4144 8.504,-37.8379 3.136,-9.4234 12.919,-17.2191 23.815,-28.8907 10.896,-11.6712 -15.627,-25.4015 -26.204,-33.916 -6.171,-4.9675 -10.748,-14.6934 -13.339,-24.3867 z m 57.801,0 c 2.704,5.8843 5.392,11.5776 8.305,16.3516 8.929,14.6375 27.422,24.6636 39.168,26.2422 11.747,1.5785 32.101,-21.3264 36.824,-27.9219 0.179,-0.249 0.263,-0.5038 0.287,-0.7598 5.095,-5.6804 9.315,-10.6796 11.953,-13.9121 h -31.703 c -3.352,4.0173 -5.725,6.981 -8.73,10.7539 -5.304,3.3109 -14.05,4.5012 -19.948,-0.5254 -1.989,-1.6955 -5.684,-5.5758 -9.771,-10.2285 z m 277.721,0 c -9.921,23.8708 -40.959,28.9309 -93.906,30.3711 -57.786,1.5716 -76.478,6.4613 -90.03,23.5488 -13.926,17.5563 -5.237,45.6366 17.537,56.6875 5.31,2.5756 31.108,5.7786 57.319,7.1153 51.834,2.6433 53.432,3.4267 67.853,33.3593 l 5.647,11.7227 -14.803,-3.3379 c -35.666,-8.0438 -94.216,2.6283 -104.129,18.9805 -2.49,4.107 -4.527,15.6704 -4.527,25.6953 0,28.6083 -23.795,39.1053 -52.645,23.2226 -33.088,-18.218 -55.524,-42.88 -70.654,-77.6699 -0.858,-1.9732 -1.468,-3.7006 -2.152,-5.5019 v -0.033 c 0,-0.025 -0.02,-0.047 -0.03,-0.072 -0.183,-0.4794 -0.368,-0.9647 -0.568,-1.4609 h -0.02 c -0.43,-1.078 -0.857,-2.1669 -1.297,-3.2012 -3.338,-7.8602 -9.235,-9.1803 -15.327,-9.0781 -3.655,0.061 -7.379,0.6332 -10.668,0.6152 -5.862,-0.032 -27.437,1.3062 -46.009,2.8825 v 21.1309 c 18.245,-2.124 36.698,-5.3145 43.459,-5.6911 10.631,-0.5924 12.176,9.0745 15.924,16.4453 l 9.527,25.8301 c 0,0 -19.054,15.2657 -26.772,28.3984 -12.966,22.0656 -35.296,24.7991 -42.138,25.8789 v 23.2589 c 26.691,-5.8951 49.039,-14.4881 62.681,-42.7413 6.31,-13.0688 24.144,-15.6543 27.69,-15.6543 3.546,0 14.46,7.2508 24.256,16.1094 22.881,20.6932 43.135,26.9192 67.009,20.6035 20.396,-5.3976 31.488,-20.3523 31.489,-42.4805 0,-18.0224 11.659,-25.3349 46.097,-28.9082 20.481,-2.1256 29.802,-0.9247 48.789,6.291 21.212,8.0576 23.769,10.4284 26.471,24.5469 4.29,22.426 -0.304,30.9309 -19.717,36.5078 -62.17,17.8606 -128.988,60.1572 -136.345,86.3047 -5.009,17.8173 5.9,31.8737 27.99,36.0762 29.694,5.649 38.76,9.9878 38.76,18.5488 0,12.959 -17.306,17.8754 -64.09,18.2031 -68.158,0.4779 -89.548,15.5885 -84.143,59.4473 1.798,14.5835 4.201,23.3185 0.514,27.2246 -4.686,4.9648 -16.194,0.4749 -23.52,0.668 -11.113,0.293 -19.853,2.628 -26.558,8.6113 -8.94,7.9777 -14.728,19.4097 -19.274,36.7969 -8.26,26.5852 -16.488,55.9252 -28.263,81.0101 v 41.003 c 7.477,-9.7321 15.018,-23.7284 21.681,-39.851 16.062,-38.8653 26.998,-64.8124 31.668,-79.3008 4.076,-12.6445 10.089,-20.7432 29.368,-23.2012 15.245,-1.9436 34.381,2.7372 47.3,13.6211 4.31,3.6314 7.039,8.9053 8.643,15.0469 4.628,17.7263 1.611,34.8814 -2.488,47.0449 -1.53,4.5503 -10.939,10.1382 -20.657,13.7227 -31.66,11.6819 -43.063,35.7851 -30.607,64.7129 7.003,16.2607 36.017,21.4313 73.453,13.0918 36.84,-8.2078 45.778,-8.2784 45.778,-0.3555 0,6.1226 -26.23,18.0564 -52.008,23.6621 -25.525,5.5507 -51.484,18.8937 -59.2,30.4297 -28.274,42.2622 24.907,72.0063 86.795,48.5488 29.134,-11.0421 63.167,-14.6109 72.704,-7.623 11.321,8.2986 21.13,27.7703 18.156,36.0488 -3.738,10.3941 -24.722,12.0703 -48.28,7.8379 -73.694,-13.2419 -73.05,-13.2075 -85.96,-4.7285 -15.682,10.2978 -17.669,23.5598 -5.686,37.875 11.859,14.1602 11.91,17.7464 0.4,27.9082 -12.405,10.9538 -30.334,10.465 -37.031,-1.0098 -11.775,-20.1607 -67.097,-44.9331 -87.519,-39.366 -2.291,0.6239 -5.211,1.7955 -6.519,2.8327 v 23.3184 c 4.311,-3.019 7.798,-3.4882 12.274,-2.9445 19.331,2.3478 46.895,11.7788 52.777,21.8215 3.849,6.5722 11.011,15.4897 15.912,19.8184 18.434,16.2769 60.444,4.9309 75.227,-20.3164 6.137,-10.4721 8.613,-11.7286 16.138,-8.1719 39.258,21.6973 -14.83,56.1007 -25.965,80.4492 h 31.678 c 8.768,-11.4901 20.223,-28.4179 27.731,-44.2031 13.205,-27.7618 5.199,-41.9383 -28.655,-56.7246 -34.848,-15.2235 -41.048,-28.0547 -13.543,-28.0547 7.5,0 22.296,3.8925 32.868,8.6543 28.421,12.8017 71.784,11.6974 110.808,-3.6094 17.677,-6.9324 42.871,-13.8636 55.992,-15.4004 22.761,-2.6662 24.498,-2.193 37.682,10.2715 10.953,10.3531 13.824,16.6846 13.824,30.5 0,14.8137 -3.1,20.6405 -20.638,38.7832 -14.854,15.3623 -29.635,41.765 -35.125,59.6973 l 22.009,0.086 c 5.624,-11.6393 17.152,-31.7334 22.209,-35.9277 12.305,-10.2079 24.413,-11.3561 63.414,-6.0215 19.687,2.6905 21.808,3.9657 19.346,11.5586 -4.249,13.107 -6.666,23.1471 -6.832,30.3008 h 24.475 c 6.858,-10.1227 12.777,-25.1434 15.902,-40.9805 6.563,-33.2928 6.178,-71.2252 -1.277,-123.9746 -5.295,-37.4849 -7.318,-43.1612 -18.35,-51.541 -10.687,-8.1177 -17.323,-9.418 -48.057,-9.418 -43.448,0 -53.789,-6.5049 -49.287,-30.9961 4.218,-22.9533 14.724,-29.6011 49.487,-31.3242 43.15,-2.139 50.313,-7.1548 49.56,-34.6992 -0.991,-36.4635 -1.346,-35.7159 19.078,-40.5723 23.503,-5.5874 57.464,-1.7767 76.821,8.6172 16.603,8.9172 32.187,35.4707 32.33,55.1211 0.07,9.0652 -6.912,22.2829 -22.836,43.2129 -31.138,40.9282 -44.676,46.4145 -25.307,100.7246 24.906,69.8521 43.489,79.436 112.973,58.2598 56.677,-17.2738 65.088,-0.6721 24.482,25.8164 -29.625,19.3228 -31.911,22.0422 -27.912,33.166 2.931,8.1547 45.327,24.1797 59.262,27.8633 9.819,2.5956 7.777,7.077 6.672,10.7636 l 22.554,-0.018 c 3.001,-5.6535 5.577,-14.0259 7.993,-24.6738 3.201,-14.1043 8.933,-26.348 13.914,-29.7226 14.02,-9.4944 63.361,-21.78 74.994,-21.875 20.676,-0.1682 53.95,4.8991 69.056,-5.1582 4.646,-3.0929 9.928,-7.4658 13.262,-10.4986 v -23.3047 c -7.608,4.1328 -24.723,13.8009 -32.719,17.4029 -18.837,8.4854 -49.074,-8.3219 -49.074,-14.5313 0,-2.0127 7.439,-11.5227 16.535,-21.1328 20.149,-21.2964 24.67,-31.1802 24.67,-53.9394 0,-14.6553 -2.339,-19.3039 -14.088,-28.0332 -20.481,-15.2172 -30.117,-13.35 -55.146,10.6875 -17.161,16.4822 -23.239,20.0821 -27.531,16.2929 -4.292,-3.7895 -4.212,-8.3334 0.365,-20.5761 10.24,-27.3968 -2.676,-45.17 -32.826,-45.17 -23.599,0 -44.572,13.5081 -65.205,41.9883 -18.546,25.5993 -34.097,34.069 -50.457,27.4863 -15.262,-6.1404 -14.822,-18.7773 1.435,-41.3964 13.521,-18.8118 21.09,-23.0155 80.918,-44.9629 44.183,-16.2069 70.792,-37.6962 81.705,-65.9668 4.168,-10.8071 7.582,-23.9942 7.582,-29.3028 0,-5.3084 7.991,-32.4101 10.434,-36.4433 4.6,-7.5912 35.545,-20.4037 49.443,-20.4727 4.001,-0.02 11.777,-2.3189 20.201,-5.4414 v 0.07 c 0.366,-0.1475 0.56,-0.2346 0.914,-0.3789 3.044,-1.1454 6.099,-2.4661 9.164,-3.7695 6.981,-2.7679 9.19,-2.6496 8.366,4.5664 -1.136,9.955 -18.56,48.8885 -32.879,67.1621 -14.32,18.2732 -32.103,27.3078 -32.86,49.1953 -0.758,21.887 5.75,29.3247 13.159,33.9219 14.323,8.8867 21.365,16.5694 37.275,4.7051 8.884,-6.6244 20.623,-16.951 30.701,-29.6123 l 0.07,-42.1038 c -8.22,16.8345 -22.503,36.764 -32.589,46.1477 -11.213,10.4319 -21.696,10.1614 -25.096,1.1094 -1.856,-4.9387 -5.058,-12.4962 8.049,-28.5879 16.816,-24.6453 36.447,-52.659 49.517,-79.2378 l -0.03,-55.334 c -7.409,2.7546 -23.641,9.062 -31.774,8.6929 v 0.1152 c -24.533,-1.232 -39.155,-7.2066 -42.334,-18.3926 -4.537,-15.9542 3,-38.7356 17.703,-53.5214 12.771,-12.8411 10.007,-21.1198 9.42,-33.5469 -0.269,-5.6868 2.594,-14.7018 8.564,-18.5742 3.52,-2.2824 23.167,-10.4095 38.424,-17.4237 v -22.6347 c -8.483,3.3761 -18.623,8.9429 -23.441,10.6599 -6.971,2.4844 -16.283,5.8786 -24.385,9.4278 -8.074,3.5368 -25.414,12.3144 -24.791,27.4746 0.857,20.8588 -3.506,28.8146 -11.598,37.5605 -10.479,13.9712 -12.164,20.4593 -12.164,46.8438 0,16.8433 1.606,33.4461 3.57,36.8925 2.656,4.6656 -0.5,7.9818 -12.365,12.9786 -21.195,8.9247 -35.512,40.6253 -41.053,71.0097 -6.164,33.786 -14.183,46.1671 -37.834,58.4063 -23.743,12.2881 -25.892,12.5051 -25.892,2.6191 0,-4.2037 -4.08,-15.5714 -9.059,-25.2637 -16.903,-32.8889 -10.49,-64.2141 15.078,-73.6464 31.975,-11.7974 48.555,-49.4246 39.071,-88.6934 -3.901,-16.1394 -9.465,-24.7824 -23.959,-37.1953 -10.382,-8.8932 -22.481,-17.9896 -26.885,-20.2129 -5.728,-2.8954 -8.494,-10.496 -9.736,-26.7852 -2.118,-27.811 -6.028,-34.3482 -28.635,-47.8632 -18.098,-10.8229 -24.202,-24.817 -15.801,-36.2325 3.632,-4.9315 7.941,-4.9951 29.455,-0.4375 30.82,6.5284 60.747,-14.0221 73.074,-24.9062 5.07,-4.4761 14.555,-17.8027 21.077,-29.6133 10.142,-18.3727 13.926,-21.6516 26.162,-22.7031 3.552,-0.3052 6.747,-0.4247 9.64,-0.1524 16.437,1.5463 23.028,19.1223 28.869,83.2696 1.249,13.7211 20.787,23.2157 33.114,24.3652 5.866,0.5471 30.183,-4.0693 48.488,-6.3669 v -20.8574 c -7.98,0.5273 -17.663,1.4607 -22.182,1.8005 -11.844,0.8903 -30.543,-1.3205 -33.38,-9.0274 -0.04,-0.545 -0.366,-2.6683 -0.383,-3.082 l -0.66,-16.1699 20.587,-1.291 c 8.151,-0.5115 26.417,-3.0179 36.031,-5.6036 v -23.2382 c -6.368,0.2105 -16.486,1.1354 -28.462,2.2187 l -29.076,2.6309 -3.041,-13.4219 c -7.084,-31.2664 -34.67,-47.8108 -66.938,-40.1387 -21.612,5.1384 -32.788,17.9962 -43.086,49.5371 -4.175,12.7841 -10.687,21.856 -13.187,23.6719 -11.36,8.2507 -33.405,16.1239 -37.176,12.9238 -4.733,-4.0223 4.927,-73.4291 12.182,-87.4863 3.413,-6.6163 14.681,-12.0613 40.96,-19.789 45.478,-13.3732 58.321,-22.7385 61.702,-45.0059 2.287,-15.0504 0.996,-18.3797 -11.377,-29.3027 -11.377,-10.0469 -17.719,-12.3223 -34.348,-12.3223 -11.218,0 -27.788,2.7295 -36.826,6.0644 -32.805,12.1017 -57.749,4.7612 -50.873,-14.9668 1.781,-5.1086 14.028,-19.3533 27.221,-31.6543 10.706,-13.0029 24.255,-27.8815 32.777,-48.8691 h -22.514 c -3.741,7.1769 -10.898,15.8199 -17.181,23.7676 -19.408,24.5571 -39.182,41.4177 -63.536,41.3867 -9.064,-0.01 -30.894,-4.5196 -48.519,-10.0215 -39.05,-12.1885 -50.532,-12.515 -70.084,-1.9902 -14.554,7.8359 -32.618,34.7158 -32.824,48.8769 -0.06,3.5911 -4.369,11.3217 -9.59,17.1797 -8.35,9.3754 -12.754,10.6524 -36.738,10.6524 -25.037,0 -27.608,-0.842 -31.713,-10.3692 -2.455,-5.7034 -4.463,-18.3274 -4.463,-28.0527 0,-14.82 29.03,-27.2442 44.379,-42.9023 16.292,-16.6216 8.989,-30.021 16.578,-48.5274 h -24.117 c -0.95,8.2381 1.045,24.3935 -8.178,31.8535 -20.642,16.6947 -51.555,35.7039 -51.555,72.168 0,26.488 1.357,31.4381 10.936,39.8945 6.013,5.31 18.073,10.8386 26.804,12.2852 14.403,2.3856 16.897,4.9469 26.838,27.5547 13.731,31.2334 28.511,39.0664 73.803,39.0664 28.244,0.01 31.454,0.8924 38.729,10.6992 5.629,7.5863 8.476,21.638 9.796,48.3613 2.332,47.0528 -0.321,56.4304 -18.791,66.3731 -16.582,8.9282 -31.968,10.0049 -52.531,3.6758 -13.826,-4.2591 -13.959,-4.5845 -14.103,-33.8243 -0.181,-41.016 -15.32,-70.8585 -40.207,-79.2656 -12.806,-4.3264 -45.614,2.4386 -62.102,12.8047 -7.547,4.7438 -18.852,19.315 -26.416,34.0469 -14.081,27.4227 -24.723,33.6761 -48.408,28.4277 -32.171,-7.1299 -38.369,-33.963 -11.529,-49.8867 17.128,-10.1589 27.667,-27.5503 27.668,-45.6602 0,-21.22 -14.35,-66.3717 -27.612,-86.8769 -16.647,-25.7545 -32.257,-32.4756 -84.289,-36.3028 -41.204,-3.0306 -57.488,-9.849 -57.488,-24.0664 0,-13.5205 21.61,-19.3935 79.057,-21.4824 53.427,-1.943 83.122,-9.5883 95.306,-20.3457 6.664,-5.8849 11.2,-18.6562 15.895,-29.5 z m 243.5,69.6094 c 14.039,0.218 38.921,3.4031 55.279,7.0762 27.365,6.1405 30.17,7.7929 34.83,20.5234 2.787,7.6152 9.705,17.1649 15.381,21.2227 12.463,8.9078 45.486,9.8474 63.328,1.8007 33.869,-15.2793 60.077,-9.8489 54.094,11.209 -2.303,8.1063 -8.693,13.0384 -24.711,19.0762 -66.719,25.1519 -72.324,30.8041 -85.156,85.8828 -4.072,17.4686 -7.403,32.4757 -7.402,33.3496 0,0.8736 -4.692,1.5899 -10.43,1.5899 -21.937,0 -44.693,24.2524 -44.35,47.2968 0.255,17.7718 10.789,30.3341 34.848,41.5645 15.117,7.0556 22.221,12.9243 22.221,18.3594 0,7.0924 -3.966,8.2152 -35.368,10.0097 -38.088,2.1769 -53.597,9.9151 -55.097,27.4942 -0.408,4.7736 -3.908,9.8693 -7.785,11.3261 -3.872,1.4568 -28.677,3.391 -55.116,4.2969 -51.891,1.7781 -64.117,-1.283 -64.049,-16.0293 0.05,-8.3562 20.324,-51.3418 24.221,-51.3418 0.989,0 8.487,2.9461 16.658,6.5469 28.951,12.7539 76.539,-1.5139 92.416,-27.709 3.022,-4.9859 5.086,-24.9134 4.811,-46.6367 -0.379,-31.0741 -2.485,-41.8332 -11.648,-59.5098 -6.152,-11.8676 -16.02,-24.2635 -21.922,-27.5429 -5.903,-3.2799 -26.068,-6.8542 -44.811,-7.9434 -41.099,-2.3882 -53.275,-11.1513 -48.861,-35.1621 1.434,-7.8158 4.795,-14.8525 7.463,-15.6387 14.547,-4.2814 32.133,-23.2672 39.103,-42.2109 11.862,-32.2515 21.398,-39.3756 52.053,-38.9004 z m 341.516,18.0918 c -3.23,-0.046 -6.226,0.1742 -8.764,0.6406 -10.152,1.8655 -35.562,12.8202 -37.209,36.0195 -1.645,23.1998 8.189,31.8577 29.5,32.5274 7.91,0.2485 20.61,-0.7262 31.795,-1.9862 v -21.0561 c -8.308,0.725 -17.975,1.5122 -22.867,2.3782 -16.209,2.8701 -17.331,-6.3138 -12.441,-15.7851 4.89,-9.4713 9.938,-7.4135 25.512,-11.4317 2.804,-0.7234 7.141,-0.798 9.797,-0.6314 v -18.8797 c -4.655,-1.0527 -11.05,-1.7341 -15.327,-1.7955 z m -477.088,168.7754 c 6.526,-0.1895 10.182,2.1893 16.095,8.8261 12.143,13.6318 20.72,50.3174 16.69,71.3848 -4.328,22.6159 -21.823,56.1086 -34.916,66.8457 -20.69,16.9626 -53.84,26.7926 -94.211,27.9356 -42.902,1.2148 -60.347,6.9728 -68.908,22.7441 -7.502,13.8226 -1.585,35.6774 15.744,58.1113 12.934,16.7459 20.746,39.3739 16.762,48.543 -3.382,7.7804 -15.041,6.9607 -40.083,-2.8203 -27.668,-10.8086 -50.428,-7.7584 -74.226,9.9472 -9.685,7.205 -22.704,16.1703 -28.928,19.9219 -11.868,7.1512 -25.612,8.9418 -29.125,3.791 -2.385,-3.4966 14.446,-55.6571 -14.295,-79.5449 -7.756,-6.4466 -14.012,-16.339 -16.226,-24.834 -5.31,-20.366 -9.153,-36.4763 -9.153,-39.6875 0,-14.9263 17.914,-21.3662 65.344,-23.4902 47.324,-2.1198 61.489,-9.0098 71.869,-34.959 6.58,-16.4585 6.458,-17.0836 -5.486,-27.6328 -7.915,-6.9882 -19.147,-11.6105 -31.858,-13.1133 -25.738,-3.0428 -28.048,-12.5841 -7.593,-31.416 12.44,-11.4513 69.929,-41.6484 79.289,-41.6484 1.321,0 2.402,6.8726 2.402,15.2715 0,26.4397 23.874,45.3671 57.227,45.3671 28.101,0 40.937,-8.9618 55.158,-38.5039 13.291,-27.6153 22.173,-34.6256 50.754,-40.0566 3.004,-0.5707 5.498,-0.9194 7.674,-0.9824 z m -448.983,45.4707 c -1.114,0 -2.277,0 -3.48,0.016 -4.269,0.053 -9.056,0.4371 -13.889,0.6653 v 20.8483 c 2.965,-0.279 5.706,-0.6717 8.006,-0.746 17.078,-0.5517 21.63,3.6251 15.762,8.2754 -2.849,2.2579 -12.81,7.2058 -23.768,11.3187 v 22.5819 c 12.941,-5.9374 25.044,-12.1834 28.656,-13.7581 8.661,-3.7758 33.565,-12.6232 30.838,-25.4355 -2.724,-12.812 -21.97,-22.1733 -33.689,-23.4141 -2.196,-0.2326 -5.095,-0.3382 -8.436,-0.3515 z m 653.783,107.5742 v 0 c 3.369,0.021 6.81,0.2894 10.215,0.8535 21.153,3.5037 67.455,30.8391 77.237,45.5957 10.438,15.749 15.175,46.8196 8.753,57.4141 -2.833,4.6779 -11.173,11.2532 -18.527,14.6113 -17.82,8.136 -30.621,7.3024 -67.217,-4.3789 -25.268,-8.0662 -27.435,-15.1641 -10.746,-35.2051 17.813,-21.3825 17.837,-35.4732 0.07,-48.6699 -7.541,-5.6021 -17.957,-11.3761 -23.144,-12.8301 -20.302,-5.6904 -0.231,-17.5403 23.355,-17.3906 z m -203.976,18.5234 c 3.185,-0.3497 4.606,1.1972 6.543,4.3926 13.481,22.2389 75.907,31.2576 130.101,18.793 33.081,-7.6096 31.492,-7.6934 46.014,2.3926 12.888,8.9501 13.228,8.7284 2.908,21.6992 -11.899,17.0039 -12.109,42.3784 -0.449,55.4668 7.848,8.8098 27.182,18.1352 52.313,25.2363 6.001,1.6956 7.491,4.4602 5.089,9.4395 -1.873,3.8716 -4.379,17.2398 -5.56,29.707 -1.659,17.4487 0.119,27.2111 7.73,42.3965 5.662,11.2995 8.774,23.6345 7.284,28.873 -2.005,7.0497 -5.872,9.1466 -16.856,9.1465 -18.019,0 -42.709,-21.9124 -46.896,-41.6211 -4.381,-20.6185 -29.308,-43.6425 -55.678,-51.4316 -20.378,-6.0221 -22.774,-8.0797 -27.07,-23.2637 -5.482,-19.3776 -25.995,-39.9503 -43.125,-43.2481 -6.572,-1.2652 -22.246,-0.4005 -34.836,1.9219 -64.962,11.9836 -72.394,9.5487 -90.194,-29.539 -6.835,-15.0103 -11.345,-29.792 -10.017,-32.8477 1.328,-3.056 10.002,-6.7813 19.267,-8.2793 9.267,-1.4981 25.608,-7.0078 36.315,-12.2441 8.982,-4.394 13.932,-6.6408 17.117,-6.9903 z m -118,18.1895 c 5.819,0.262 9.001,4.64 17.062,18.6855 6.47,11.2749 16.076,30.6812 21.346,43.125 13.467,31.7818 27.937,39.2248 70.475,36.25 78.577,-5.4953 81.62,-5.247 88.424,7.2325 9.576,17.5586 4.482,22.9979 -21.542,22.998 -17.724,0 -25.764,2.2898 -36.773,10.4668 -12.545,9.323 -14.084,12.8641 -14.084,32.4395 0,19.8673 -1.126,22.3513 -11.74,25.916 -6.461,2.1685 -18.366,3.9433 -26.451,3.9433 -29.209,0 -49.627,23.3761 -50.205,57.4766 -0.29,16.8886 1.703,21.4531 14.212,32.498 13.645,12.0368 16.422,12.8008 44.481,12.0664 43.346,-1.1342 46.203,2.3555 50.385,61.4512 3.519,49.7531 1.527,72.0644 -7.285,81.4395 -2.948,3.1368 -9.866,5.7031 -15.37,5.7031 -18.128,0 -24.484,-8.4924 -26.49,-35.4258 -2.155,-28.9478 -11.677,-43.4432 -35.955,-54.7637 -12.718,-5.9298 -22.65,-6.9313 -52.322,-5.2695 -20.143,1.1285 -42.29,3.2709 -49.213,4.7598 -9.083,1.9521 -12.636,1.1658 -12.637,-2.8184 -0.02,-3.0387 -4.912,-14.7587 -10.867,-26.0449 -17.905,-33.9575 -50.815,-38.2045 -117.949,-15.2227 -24.057,8.2372 -33.157,9.6145 -43.487,6.5762 -30.951,-9.1064 -12.549,-32.1488 36.436,-45.6094 18.098,-4.9739 39.714,-13.5453 48.035,-19.0488 12.989,-8.5925 14.935,-12.093 13.735,-24.7637 -1.109,-11.7507 -4.135,-15.9085 -14.846,-20.4218 -11.984,-5.0483 -17.104,-4.7209 -46.828,3.0019 -39.137,10.167 -48.868,10.6864 -56.098,2.9941 -15.184,-16.1538 11.497,-40.3671 49.846,-45.2363 37.589,-4.7735 77.976,-25.8101 77.976,-40.6172 0,-10.0754 31.598,-11.1832 56.721,-1.9882 30.634,11.2107 44.559,10.9003 57.52,-1.2813 15.554,-14.6188 11.833,-46.8086 -8.26,-71.5156 -16.91,-20.7897 -23.135,-43.9139 -13.697,-50.8321 3.411,-2.497 11.72,-5.7638 18.468,-7.2597 2.804,-0.6211 5.037,-0.9916 6.977,-0.9043 z m -346.162,50.8886 c -0.916,-0.012 -1.92,0.3438 -3.014,0.634 v 57.4508 c 8.223,-17.2296 11.519,-33.7994 11.582,-43.2781 0.05,-8.1813 -2.152,-14.7234 -8.568,-14.8067 z m 652.775,190.6622 c 19.877,-0.093 22.3,5.5384 9.08,21.1308 -29.74,35.0811 -33.478,57.6864 -12.594,76.1309 25.01,22.0829 63.778,11.457 90.901,-24.9121 15.746,-21.1223 39.133,-36.827 49.564,-33.293 4.63,1.5684 5.47,7.853 3.397,25.3574 -2.513,21.2506 -1.821,23.8508 8.004,29.9258 20.227,12.5095 37.759,8.7549 58.593,-12.5488 18.061,-18.4691 19.038,-18.903 25.653,-11.3555 10.808,12.3328 8.206,24.3626 -9.787,45.1719 -9.164,10.6026 -21.388,28.7098 -27.159,40.2383 -7.019,14.0162 -15.806,23.8548 -26.509,29.6972 -19.246,10.5017 -51.244,12.3693 -56.088,37.7774 -0.61,3.2 -3.687,12.9446 -13.776,14.0136 -12.294,1.3034 -39.011,-10.915 -39.011,-14.0996 0,-1.5639 8.393,-6.1844 18.646,-10.2675 33.562,-13.366 57.953,-46.883 34.738,-63.0313 -10.581,-7.3614 -16.24,-8.3507 -35.482,-6.209 -12.591,1.4009 -41.253,6.059 -53.133,9.4668 -31.785,9.1209 -45.525,6.4776 -54.748,-10.5351 -17.464,-32.2202 -19.244,-60.6847 -19.244,-73.1328 0,-7.6339 7.311,-25.2143 17.182,-41.3672 15.69,-25.6749 18.423,-28.0952 31.773,-28.1582 z m -605.547,225.5742 c -2.854,0 -5.723,0.2939 -8.593,0.832 -11.48,2.1526 -20.517,5.4064 -20.411,32.7676 0.01,3.7321 0.585,7.4945 1.514,11.2285 h 23.17 c -1.767,-6.7734 -2.581,-13.3629 -2.147,-17.9258 1.063,-11.1933 6.484,-9.7101 17.965,-7.414 7.633,1.5266 13.22,13.3119 18.733,25.3398 h 26.181 c -10.246,-11.7606 -24.299,-28.7839 -31.625,-35.2422 -7.814,-6.8882 -16.226,-9.5792 -24.787,-9.5859 z" fill="#ff8d10" transform="translate(279.83403,-256.38851) matrix(0.25550315,0,0,0.25550315,-5448.5884,-959.01749)"/>
</svg>