<?xml version="1.0" ?><svg xmlns="http://www.w3.org/2000/svg" width="229.7767mm" height="244.21306mm" viewBox="0 0 229.7767 244.21306">
    <path d="M 2990.9791,-79.607616 V 164.60539 h 229.7752 V -79.607616 Z" fill="maroon" paint-order="fill markers stroke" transform="translate(181.5875,90.644665) translate(-3172.5658,-11.03704)"/>
    <path d="m 3021.2983,-79.607615 0.8041,24.6047 -0.1473,13.349573 -30.9759,0.4594 v 12.70207 l 30.8219,0.73226 -0.1127,10.28981 -30.7092,0.38292 v 13.2245103 l 30.5661,0.28681 1.6097,84.4935497 -32.1758,0.58601 V 93.65881 l 32.0347,1.1529 -0.3415,10.28982 -31.6932,0.23771 v 12.3455 l 31.2658,0.32918 -0.4393,46.59147 h 14.9449 l -0.2781,-7.59385 -0.7141,-38.93251 12.4623,0.062 0.587,46.30984 7.0523,0.15451 h 3.9625 l -0.038,-46.40699 75.0177,0.36794 -0.081,46.03905 h 10.4635 l 0.8749,-45.98376 11.8158,0.06 0.1679,8.63719 0.6382,37.23287 13.8591,-0.17725 0.478,-10.1415 -0.9834,-35.48207 48.719,-0.47232 v -12.95373 l -49.936,-0.22221 -1.0288,-10.28981 50.9648,-1.38855 V 81.190838 l -50.523,-0.27182 1.0981,-32.752 1.2211,-51.7420597 48.2038,-0.05633 V -17.109102 l -47.8766,-0.35967 0.2413,-10.28981 47.6353,-1.91306 v -11.67836 l -47.7847,-0.30231 -0.7818,-37.955303 h -13.6095 l -0.1954,37.957373 h -12.3191 l -0.8413,-37.957373 h -10.1984 l 0.1732,29.749605 -0.023,8.207768 h -75.3225 l -0.1065,-37.957373 h -10.5135 l -0.3943,37.957373 h -12.0608 l -0.1809,-37.957373 z m 15.4647,51.848003 h 11.869 l -0.1535,10.28981 h -11.7279 z m 23.1221,0 h 75.2491 l -0.028,10.28981 h -75.1959 z m 86.4862,0 h 12.2307 l 0.1618,10.28981 h -12.1636 z m -109.6347,24.1840503 h 11.6133 l 0.2842,58.9230197 -0.5891,25.57053 h -12.9693 l -0.1617,-8.86044 1.8185,-71.12537966 z m 23.2058,0 h 75.1221 l -0.1267,44.8225897 -0.069,39.67096 h -74.8605 l 0.096,-15.98817 z m 86.9647,0 h 12.0939 l 1.1208,42.3560697 -2.6406,42.13748 h -11.02 l 0.3782,-40.41097 0.1742,-39.2642697 z M 3035.3315,94.81171 h 12.5951 l 0.1287,10.28982 h -12.5357 z m 24.5928,0 h 74.9195 l -0.019,10.28982 h -74.9624 z m 86.4061,0 h 11.0815 l 0.2005,10.28982 h -11.3781 z" fill="#0b2d36" paint-order="markers stroke fill" transform="translate(181.5875,90.644665) translate(-3172.5658,-11.03704)"/>
    <path d="m 3036.4317,-79.607615 -0.5746,50.651693 -44.8779,-0.59377 v 12.94598 l 44.7373,-0.35036 -0.1922,16.36851034 -1.0584,93.44597166 -43.4867,0.0651 v 12.47882 l 43.6697,0.36174 2.127,58.8393 h 12.6028 l -1.6919,-41.90804 0.1664,-16.84497 8.922,0.0574 65.3128,-0.38861 23.3898,-0.12092 -0.5462,58.98916 12.4297,0.1819 v -59.23204 l 63.393,0.0377 V 93.31154 l -63.2984,0.68264 1.6334,-38.017832 -0.1302,-34.66817 -0.1803,-38.2819 61.9755,0.37827 v -13.07259 l -62.0324,0.77412 -0.3214,-50.713703 h -13.2137 l 0.7457,36.255153 -0.019,14.45028 -97.5961,-0.04961 0.7116,-50.655823 z m 109.4693,62.634933 -0.096,74.85642 -0.2496,36.212262 -42.2093,0.36173 -43.8433,-1.75286 -11.5208,0.0713 0.4393,-44.438112 -0.6052,-44.2505297 0.3209,-21.0442003 z" fill="#033251" paint-order="markers stroke fill" transform="translate(181.5875,90.644665) translate(-3172.5658,-11.03704)"/>
    <path d="m 3019.9498,-79.607441 c 0.8198,8.09424 0.5746,29.851984 -0.6749,34.170519 h 0.062 c -0.097,0.32673 -0.1944,0.6855 -0.2925,0.84646 -0.19,0.31122 -1.4401,0.57373 -3.1233,0.81029 v 0.0165 c -3.2325,0.4504 -8.8157,0.75382 -16.1985,0.82011 -3.8781,0.0346 -5.2044,0.22423 -8.1387,0.31523 -0.2266,-0.005 -0.4232,0.0169 -0.6055,0.0517 v 3.25303 c 0.1131,0.004 0.2292,-0.006 0.3498,-0.0429 8.5201,0.49847 17.2564,0.43977 21.0772,0.43977 1.4102,0 2.5301,0.021 3.4442,0.0692 v 0.0109 c 3.428,0.18106 3.893,0.83358 3.9125,3.23753 0.017,2.08988 -0.2899,2.87231 -3.9615,3.41581 -1.9063,0.28369 -4.6819,0.50624 -8.9198,0.80563 -6.7684,0.47805 -10.8115,-0.46255 -15.2394,-0.11834 -0.2506,0.017 -0.4651,0.0803 -0.663,0.16278 v 4.03697 c 0.1358,0.007 0.2779,-0.003 0.4319,-0.0522 2.1003,-0.0398 3.2003,0.0284 5.4772,-0.047 l 18.8066,-0.62167 2.0944,-0.0692 2.2418,-0.0734 -0.4134,4.74907 -0.415,4.74751 -1.5482,0.0646 v -0.0615 l -18.7906,0.0594 c -2.7325,0.01 -5.5839,-0.21127 -7.8848,-0.14418 v 4.24212 c 1.8569,0.0582 4.3731,0.0655 6.3634,0.12558 l 18.1416,1.0821 v 0.11059 l 3.7656,0.1142 -0.3519,3.4034104 c -0.1932,1.87249 -0.7015,3.7575499 -1.1291,4.1888899 -0.018,0.0178 -0.2899,0.0313 -0.3395,0.0491 -1.1057,0.35982 -8.2964,0.29662 -17.6486,0.29662 -3.3872,0 -6.4983,-0.0959 -8.8015,-0.03 v 3.16828 c 3.0446,0.2175 7.0707,0.24034 11.761,0.44287 l 12.5683,0.54208 2.0923,0.0941 2.6485,0.11472 0.1436,17.7916797 c 0.1643,14.09497 0.4824,24.5159 1.2883,39.60947 0.3617,5.86473 0.5161,10.78283 0.5462,14.4787 l -0.092,-0.11007 c 0,3.86311 -0.1333,6.56401 -0.3477,6.91534 -0.4337,0.71126 -8.142,1.1319 -17.1825,1.53789 -5.2857,0.2373 -8.7702,0.13942 -12.6095,0.59945 -0.3073,0.0588 -0.5721,0.13072 -0.8165,0.20877 v 3.06183 c 0.2407,0.0481 0.4948,0.0708 0.7586,0.0527 2.7146,0 4.0218,-0.28566 8.6904,-0.45217 l 20.3202,-0.92655 0.307,4.02972 0.03,5.737122 -21.3755,0.11834 c -3.2526,-0.12417 -6.1451,-0.0283 -8.7307,-0.0269 v 3.45767 c 6.1783,-0.022 8.841,-0.42982 10.5001,-0.45682 l 19.6288,-0.31729 0.045,3.82302 v 0.21239 l 0.024,4.54081 -2.3357,0.12867 -2.0966,0.11679 -13.3619,0.73846 c -4.8121,0.26595 -9.0259,0.16136 -12.4034,0.34519 v 2.2779 c 3.1028,0.0161 7.2169,-0.085 11.4443,-0.19534 l 14.2601,-0.36793 2.0944,-0.0538 2.4236,-0.0646 0.041,5.02347 0.041,5.02294 h -2.7266 -2.0943 -14.0287 c -2.5776,0 -4.3798,-0.0355 -5.9169,-0.0491 -1.5373,-0.0136 -3.6838,-0.10393 -5.2007,-0.0202 -0.1202,5.4e-4 -0.2297,0.015 -0.3369,0.032 v 3.21996 c 0.1305,0.0269 0.2691,0.0434 0.4181,0.0449 2.9676,0.23604 5.6936,-0.23422 10.7114,-0.12919 l 14.2808,0.30076 4.2256,0.0878 -0.2026,16.94367 c 0.029,0.93965 0.1124,1.76959 0.1639,2.67322 -0.036,0.28829 -0.1071,0.65829 -0.1065,0.86093 0.01,2.11188 -0.1809,11.03673 -0.6299,12.7646 -0.4302,1.6552 -0.8284,2.89643 -4.2706,3.70623 v 0.0103 c -2.9644,0.69838 -8.2332,1.07177 -18.0175,1.07177 -2.4421,0 -4.5957,-0.20485 -6.5727,-0.30024 v 3.67782 c 2.0974,-0.0607 4.0534,-0.20915 6.7774,-0.19327 8.2798,0.0492 15.1784,-0.54432 18.7678,-0.65836 1.373,-0.0513 2.4805,-0.0629 2.7161,0.0816 0.3619,0.22246 0.6266,1.98755 0.8232,4.43332 h 3.5476 l -0.037,-4.49482 h 6.2828 l 4.4959,-0.30437 0.032,4.79919 h 4.161 c -0.2069,-3.44999 -0.2061,-4.95941 0.802,-5.34748 1.4881,-0.57282 2.7273,-0.94812 3.7533,-0.87953 1.8082,0.1208 2.8882,1.98948 3.5434,6.22701 h 4.9026 c 0.6831,-3.5564 1.6862,-5.35645 3.0835,-5.6255 1.5447,-0.2975 2.4053,1.12987 2.7115,5.6255 h 3.9429 l 0.1235,-5.11028 17.3137,0.41496 c 24.0332,0.91158 26.4299,1.59577 36.3166,1.59577 h 17.4548 l 0.022,3.09955 h 4.0845 l -0.011,-0.709 c 0.1398,-0.60444 0.2787,-1.39544 0.4031,-2.56264 l 3.2354,0.28009 c 1.5572,0.22045 2.2294,0.66288 2.5916,2.99155 h 4.054 l 0.056,-3.23288 h 0.106 c 0.2351,0.19981 0.446,0.21011 0.6237,0.017 l 4.5817,0.11472 3.8778,-0.13745 0.043,3.23856 h 4.2024 l -0.051,-3.38378 6.919,-0.21239 3.2949,-0.0987 0.057,3.69487 h 4.239 c 0.026,-1.23999 0.042,-2.62055 0.1168,-3.37551 6.2132,0.79776 24.1013,0.819 31.4627,0.39688 1.448,-0.0827 2.4453,-0.067 3.0541,2.62826 0.026,0.12403 0.062,0.23829 0.1013,0.35037 h 3.4096 c -0.3509,-3.77813 -2.7845,-3.55453 6.8967,-3.65607 0.2256,-0.002 0.687,-0.0172 0.8909,-0.0115 v -3.68529 c -0.3407,-0.009 -0.9113,0.005 -1.4298,-0.0249 -3.2346,-0.18432 -4.7984,0.11906 -6.2855,-0.56693 0.081,-3.0177 -0.085,-7.65675 -0.4093,-14.22342 l 0.2476,-22.91953 7.2693,-0.28215 c 0.2339,0.002 0.4653,-0.001 0.6077,-0.007 v -3.22281 c -0.1558,0.007 -0.5646,0.0177 -0.8421,-6.2e-4 -8.0198,-0.38264 -6.8857,-0.78484 -7.0329,-3.97324 -0.2157,-4.68055 0.6614,-4.98725 3.9946,-5.29115 1.1515,-0.10492 2.2686,-0.0181 3.8225,-0.0704 0.021,10e-4 0.037,-0.002 0.058,-0.001 v -2.26635 c -0.1138,-0.0102 -0.2327,-0.0119 -0.3566,-0.002 -5.5923,-0.0953 -6.9406,0.23922 -6.9721,-3.63236 l 0.3581,-5.4467 6.8006,-0.047 c 0.061,0.004 0.1122,-0.004 0.17,-0.004 v -3.45219 c -0.057,-0.006 -0.1102,-0.018 -0.17,-0.0191 -5.3077,-0.35993 -6.2927,0.68206 -6.2715,-3.294672 l -0.01,-4.9444 6.4513,-0.26821 v -3.07162 c -0.1098,-0.009 -0.2149,-0.023 -0.3364,-0.0222 -3.5849,0.15466 -5.4985,-0.12657 -5.6002,-1.24749 0.3444,-26.44949 -0.039,-56.40793 0.7033,-80.6689797 l 4.6576,-0.26407 c 0.2069,0.002 0.4373,-0.0239 0.5757,-0.0264 v -3.16573 c -0.1849,0.005 -0.4743,-0.0189 -0.681,-0.0256 l -3.4598,0.0272 c -0.6313,-3.8937899 -0.5059,-5.9954403 0.03,-9.2144203 l 3.5465,-0.0961 c 0.2807,-0.018 0.3916,-0.0187 0.5643,-0.0328 v -4.24489 c -0.1852,0.004 -0.6904,-0.006 -0.8954,0.005 l -4.4753,-0.008 0.051,-5.50819 c 0.029,-3.15782 1.2372,-2.84774 3.8416,-3.11822 0.4248,-0.0441 1.0416,0.0752 1.4785,0.0777 v -3.83242 c 0,-0.0637 -5e-4,-0.10207 -5e-4,-0.19527 -4.3871,-0.31373 -5.3505,-0.58182 -5.4767,-4.28922 -0.1125,-3.30662 0.4818,-3.44149 4.9124,-3.66902 0.3153,-0.0162 0.4175,-0.033 0.5648,-0.0315 v -3.25279 c -0.2287,0.0186 -0.5007,0.005 -0.7645,-0.003 l -4.9276,-0.0668 0.075,-4.874116 v -0.165882 c -0.012,-1.425759 -0.1537,-2.159521 -0.354,-5.567102 -0.2006,-3.408732 -0.4598,-7.400223 -0.7054,-11.14919 -0.497,-7.584447 -0.8765,-12.360337 -1.0893,-15.198039 h -3.6913 c 0.2031,2.295297 0.7989,5.571594 0.7922,10.504269 0,1.18239 0.067,2.581767 0.1737,4.101041 0.1069,1.519484 0.2521,3.157587 0.403,4.816244 0.3021,3.31794 0.6267,6.714998 0.7121,9.402527 l 0.1716,3.260266 0.026,4.847242 -4.8901,0.0904 c -5.7015,0.29478 -19.9093,0.72753 -31.3815,0.0816 l -0.2801,-2.92696 -0.5173,-15.417657 c 0.2427,-9.147144 0.1171,-15.535367 0.3106,-18.759062 h -4.2179 l 0.1664,15.509131 -0.123,4.468978 c -0.2112,7.630927 -0.1781,11.810993 -0.6175,14.15159 -0.5142,2.7515 -1.6834,2.92837 -4.7775,2.63033 l -4.5428,-0.43564 -0.019,-2.14973 -0.058,-8.581906 c -0.013,-2.047062 -0.097,-4.362969 -0.184,-6.68848 -0.121,-3.518165 -0.2292,-6.991233 -0.1147,-9.633521 h -0.045 c 0.026,-0.663818 0.065,-1.278201 0.1245,-1.813843 l -0.01,-7.456909 h -4.1842 c -0.022,0.05984 -0.045,0.107437 -0.066,0.175183 l 0.062,8.60516 c 0,0.128387 6e-4,0.357205 0.015,0.490409 0.06,4.791871 0.1714,12.540763 0.2129,17.661454 l 0.064,7.242453 0.021,2.3275 h -4.886 -4.8886 l -0.019,-2.3275 -0.1292,-15.824875 0.1639,-18.349784 h -3.9027 c -0.2031,2.221011 0.2648,6.144181 0.6424,18.699634 7e-4,0.02408 0,0.03379 0,0.05788 0.1296,4.315186 0.2172,7.554802 0.231,10.015926 0.014,2.067063 -0.042,3.446224 -0.1473,4.552693 -0.025,0.270276 -0.036,0.625546 -0.069,0.850586 -0.3104,2.07303 -0.9789,2.32803 -2.2319,2.32803 -1.5135,0 -3.038,-0.47153 -3.389,-1.04749 -0.064,-0.10472 -0.1323,-0.7117 -0.2005,-1.28054 -0.1363,-1.135047 -0.2742,-3.310921 -0.4031,-5.787752 -0.1592,-3.159395 -0.3105,-6.922565 -0.4004,-11.159526 -2e-4,-0.01047 2e-4,-0.01794 0,-0.02842 l -0.168,-7.925614 -0.124,-9.275403 h -4.1744 l 0.1359,9.275403 0.049,6.181018 0.024,2.898531 0.1287,15.824353 0.021,2.3275 h -17.4548 c -15.6074,0.21761 -18.3527,0.3106 -33.369,-0.19017 -12.0885,-0.14828 -21.4787,0.61552 -21.2715,-1.60558 0.012,-0.11917 0.016,-0.40473 0.025,-0.53175 0.1015,-1.161238 0.1927,-2.769382 0.2553,-4.87205 0.01,-0.317301 0.021,-0.506666 0.028,-0.852661 0.063,-2.776644 0.065,-6.50616 -0.049,-11.811682 l 0.3142,-16.642912 h -3.9507 c 0.03,3.624132 0.8813,11.075175 0.1891,22.084957 0.056,5.425112 0.3402,6.559799 -0.1038,12.221468 -0.027,1.20187 -1.7437,0.70966 -4.4333,0.8015 -2.6682,0.0911 -2.7944,-0.32403 -2.7208,-0.87643 -0.1237,-4.433302 0.1479,-8.143562 0.1468,-11.335735 0.01,-10.616601 1.1996,-19.569403 1.4169,-22.89576 h -5.2958 c 0.1856,3.32674 0.892,8.979578 0.9535,16.214514 2e-4,0.01466 -2e-4,0.02203 0,0.03669 l 0.1534,18.849491 h -4.1889 -4.1889 l -0.01,-0.93018 -0.1374,-17.076469 c -0.066,-8.105985 -0.4774,-14.065226 -0.5917,-17.094047 h -4.1481 l 0.056,5.122685 c 0.01,0.932425 0.067,2.719773 0.1065,4.141866 0.022,0.770004 0.041,1.709093 0.064,2.544547 0.016,0.55355 0.021,0.835794 0.037,1.415418 0.033,1.219252 0.057,2.506063 0.082,3.783748 0.039,2.149372 0.072,4.343402 0.051,6.473507 l -0.1127,11.618925 h -5.379 -5.3769 l -0.011,-0.93018 -0.139,-17.225814 -0.153,-16.944702 z m 8.8687,40.686919 c 5.7712,0 6.2857,0.28289 6.3117,3.48919 0.025,3.20621 -0.4848,3.49126 -6.2544,3.49126 -5.7712,0 -6.2863,-0.28505 -6.3123,-3.49126 -0.025,-3.2063 0.4838,-3.48919 6.255,-3.48919 z m 14.7097,0 c 3.8951,0 4.2863,0.38151 3.9165,3.83904 -0.3228,3.01813 -1.2365,3.93506 -4.2581,4.28294 -2.5069,0.28861 -4.1387,-0.31985 -4.698,-1.74666 -1.505,-3.84049 0.4982,-6.37532 5.0396,-6.37532 z m 97.8514,0 c 1.8742,0 2.639,1.00136 2.6592,3.48919 0.022,2.7378 -0.6825,3.49126 -3.2685,3.49126 -2.764,0 -3.1945,-0.56507 -2.6588,-3.49126 0.4121,-2.25168 1.5718,-3.48919 3.2681,-3.48919 z m 10.4024,0 c 4.6092,0 4.9518,0.28538 4.5718,3.83904 -0.3129,2.92588 -1.2566,3.93704 -3.9537,4.25194 -4.3018,0.50213 -5.5367,-0.56986 -5.5713,-4.83278 -0.023,-2.80409 0.6674,-3.2582 4.9532,-3.2582 z m 13.9635,0 c 4.609,0 4.9474,0.28538 4.5672,3.83904 -0.3423,3.19951 -1.1652,3.91211 -4.9435,4.27674 -4.2224,0.40757 -4.5367,0.14545 -4.5691,-3.83904 -0.032,-3.97265 0.3202,-4.27674 4.9454,-4.27674 z m -110.8676,0.0543 c 2.1703,0 2.8002,0.93095 2.8267,4.18889 0.026,3.25794 -0.5851,4.18889 -2.757,4.18889 -2.172,0 -4.4265,-0.98521 -4.453,-4.24315 -0.026,-3.25794 2.2113,-4.13463 4.3833,-4.13463 z m 76.3321,0.046 c 1.4854,0.0778 1.6398,0.89523 1.6573,3.0577 0.016,1.93647 -0.9636,3.90468 -2.1745,4.37079 -1.2111,0.4661 -11.3657,0.84853 -17.4465,0.84853 -15.9138,0.25971 -23.2861,-0.548 -34.4754,-0.30851 -15.5784,0.32777 -18.2758,0.8071 -18.2887,-2.41743 -0.019,-4.57499 -1.7792,-4.69091 4.7366,-4.98057 1.0859,-0.0492 2.3314,-0.0647 3.7491,-0.0553 1.4178,0.0105 3.008,0.0458 4.7879,0.10231 19.3404,-0.15529 36.2231,-0.1944 53.853,-0.21859 1.2224,-0.20232 2.1599,-0.34242 2.8798,-0.3886 0.2702,-0.0173 0.5094,-0.0215 0.7214,-0.0103 z m 43.6904,0.2558 17.6099,0.13074 c 9.4108,0.31321 17.5367,-0.28073 18.4283,0.26769 0.8872,0.5482 0.9436,2.5985 0.5545,4.13359 -0.5626,2.22027 -1.7402,2.5048 -5.7841,2.50166 -3.1054,0 -10.0874,0.44567 -17.1928,0.19224 -12.8409,-0.45794 -13.7194,0.66845 -13.7485,-2.91662 z m -49.1965,10.81123 v 0.002 c 5.4001,0.0649 7.2391,1.21666 7.2631,4.18683 l 0.035,4.18889 h -17.2212 c -17.1738,0.54172 -19.7048,0 -37.2328,0 l -17.925,0.0543 -0.028,-3.49126 -0.028,-3.48919 17.9244,-0.0548 c 20.9882,-0.10609 30.0852,-1.52394 47.2142,-1.39681 z m -96.7057,0.002 c 6.3181,0 6.3662,0.0378 5.9681,4.43022 -0.438,4.83219 -0.9876,5.1403 -7.7313,4.3217 -3.9666,-0.48171 -4.5462,-1.06884 -4.5754,-4.65087 -0.031,-3.93726 0.2204,-4.10105 6.3386,-4.10105 z m 122.1398,0.11679 c 0.4673,0 0.9768,0.0343 1.5297,0.11214 2.5877,0.36568 3.4084,1.4533 3.7796,5.00486 0.4386,4.19456 0.1632,4.53874 -3.6505,4.53874 -3.2965,0 -4.3164,-0.74346 -5.0808,-3.69383 -1.0153,-3.91861 0.1513,-5.9372 3.422,-5.96191 z m -9.5637,0.0925 c 0.2383,-0.002 0.46,0.0145 0.6666,0.0522 1.2397,0.22693 1.9353,1.19818 2.4582,3.21582 0.5174,1.99638 0.9902,4.96145 0.1292,4.96145 -1.2519,2.05271 -6.225,1.57821 -7.1096,-0.67902 -1.3929,-3.5544 0.05,-7.05186 3.0882,-7.48792 0.2737,-0.0393 0.529,-0.0603 0.7674,-0.0625 z m 62.9382,0.47801 h 6e-4 c 6.4594,0.0105 6.6331,0.11974 6.6667,4.26641 l 0.035,4.25813 -17.2992,0.72037 c -9.5979,-0.16284 -17.9217,0.46582 -18.3116,0.0775 -0.3899,-0.38673 -0.7239,-2.57616 -0.7426,-4.86585 l -0.032,-4.16461 12.3269,-0.25321 c 6.3393,0.49321 13.7081,-0.0387 17.356,-0.0388 z m -162.3141,0.0103 c 2.7076,0 3.573,0.80784 3.9274,3.66334 0.3717,2.99655 -0.2141,3.78958 -3.2173,4.36459 -3.9113,0.74886 -5.4638,-1.08628 -4.6493,-5.50199 0.3004,-1.6284 1.7004,-2.52594 3.9392,-2.52594 z m 123.5553,0.69969 c 4.4988,0 4.892,0.33207 4.9232,4.18838 0.032,3.85642 -0.3566,4.18889 -4.8555,4.18889 -4.4991,0 -4.8877,-0.33247 -4.9191,-4.18889 -0.031,-3.85631 0.3523,-4.18838 4.8514,-4.18838 z m -110.7736,0.0543 c 2.0478,0 2.7996,0.92933 2.8205,3.4892 0.02,2.55977 -0.7154,3.49126 -2.7632,3.49126 -2.0479,0 -4.426,-0.98575 -4.4467,-3.54552 -0.021,-2.55987 2.3415,-3.43494 4.3894,-3.43494 z m 55.0152,11.34246 c 1.7713,-0.004 3.5111,0.0166 5.2147,0.0687 v 5.2e-4 l 17.1292,0.40256 0.4749,3.83904 0.4723,3.8390403 h -17.5896 c -4.1531,0 -18.1312,1.02756 -28.1921,0.82734 -4.432,-0.088 -26.3043,0.80104 -27.4712,-0.35863 -0.5161,-0.51197 -0.9507,-2.3970299 -0.9653,-4.1888903 -0.025,-3.13646 0.3818,-3.2582 10.9383,-3.2582 13.6595,0.0733 27.5897,-1.14498 39.9888,-1.17151 z m 82.8978,0.85835 c 9.8097,-0.0524 18.1318,0.23906 18.7105,0.57102 0.5785,0.33175 -0.1714,2.24258 -0.1576,4.1170704 0.027,3.3964699 1.2186,3.3018699 -12.3497,3.0680299 -23.0249,-0.39699 -24.0906,1.45167 -24.1303,-3.44837 l -0.035,-4.2116303 z m -163.7781,0.31109 c 6.1318,0 6.3608,0.14632 5.966,3.8390403 -0.3675,3.43575 -1.0361,3.88437 -6.3427,4.26848 -5.7776,0.41825 -5.9303,0.3198 -5.964,-3.8390399 -0.034,-4.1380004 0.1605,-4.2684804 6.3407,-4.2684804 z m 13.2658,0 c 3.8501,0 4.2385,0.38895 3.8696,3.8390403 -0.321,3.01583 -1.2333,3.93591 -4.2463,4.28295 -3.4468,0.39699 -3.8404,0.0105 -3.8715,-3.8411099 -0.031,-3.8469804 0.4011,-4.2808804 4.2482,-4.2808804 z m 99.0421,0 c 3.7233,0 4.1933,0.46548 4.2235,4.1888904 0.028,3.4574299 -0.5365,4.1888999 -3.2257,4.1888999 -1.7919,0 -3.679,-0.41873 -4.195,-0.9307 -0.5161,-0.51198 -0.9509,-2.3970199 -0.9653,-4.1888903 -0.022,-2.6891 0.7052,-3.2582 4.1625,-3.2582 z m 11.02,0 c 3.9221,0 5.7507,2.02308 5.7862,6.3975403 0.012,1.33224 -1.5844,1.98025 -4.8721,1.98025 -4.4975,0 -4.8877,-0.3326 -4.9191,-4.1888999 -0.029,-3.6889604 0.4476,-4.1888904 4.005,-4.1888904 z m 10.574,0.12868 c 0.6234,-0.0293 1.4357,0.0297 2.4934,0.13125 3.7841,0.36464 4.619,1.07942 5.0131,4.2788104 0.4379,3.5536699 0.1038,3.8390499 -4.5057,3.8390499 -4.625,0 -4.9829,-0.3041 -5.0152,-4.2767499 -0.024,-2.9882704 0.1443,-3.8836604 2.0144,-3.9723604 z m -109.0047,0.0274 c 0.2686,-0.0142 0.5062,-0.009 0.7162,0.0222 1.2607,0.17205 1.5323,1.17787 1.5544,3.9124204 0.029,3.6703199 -0.4798,4.2870799 -3.5486,4.2870799 -3.085,0 -3.5258,-0.53294 -3.1724,-3.8390499 0.2941,-2.7492004 1.3019,-3.9675704 3.5486,-4.2870704 0.3338,-0.0477 0.6333,-0.0814 0.9018,-0.0956 z m 54.9305,10.3730203 c 2.7221,-0.007 5.767,0.0525 9.647,0.22324 h 5e-4 l 14.5449,0.64027 0.092,10.01179 c -0.6207,23.1273597 -0.7947,31.5277797 -0.6398,52.5911097 0.033,4.47896 -0.4307,15.61346 -0.7224,18.8004 -1.1513,0.0723 -9.7053,-0.12875 -16.6202,-0.56638 -11.1357,-0.96341 -14.4596,-1.49138 -34.2206,-1.49138 h -18.1519 l -0.1597,-19.72282 c -0.2631,-15.17253 -1.4084,-30.41699 -2.0433,-42.45839 l -0.141,-17.3891197 h 18.8494 c 16.1433,0 21.3991,-0.61799 29.5651,-0.63872 z m -70.7549,0.4563 3.8432,0.44183 3.8432,0.44184 0.5359,17.8025297 c -0.088,15.94484 -0.018,24.38204 -0.2744,41.51167 -0.1554,10.36443 -0.5714,19.31767 -0.9245,19.89646 -0.8749,1.43445 -7.1179,1.33623 -8.0337,-0.1266 -0.4063,-0.64864 -0.423,-9.79192 -0.028,-20.31814 0.1334,-15.74462 0.4236,-19.94569 0.6688,-31.76551 0.1624,-5.87739 0.4821,-12.20534 0.4475,-18.2236897 z m 107.5139,0 0.09,11.0572 c -0.062,6.0524897 -0.8572,14.6564597 0.06,19.7331697 -1.4667,15.76294 -0.3327,31.35748 -1.9714,51.75239 l -6.2751,-0.29869 c -0.4074,-3.25489 -0.9733,-14.26473 -1.0516,-23.56187 -0.1314,-15.5759 0.3882,-19.37372 0.6403,-32.49982 -0.8053,-27.1557097 0.3834,-25.2469097 4.6694,-25.7405497 z m -111.7028,0.017 0.1452,18.0722797 c -0.2458,17.36139 -0.2959,27.18472 -0.5953,43.51001 -0.6437,17.58851 -0.88,18.87606 -3.5362,19.2567 -1.5657,0.22431 -3.2944,-0.0372 -3.8431,-0.58136 -0.5487,-0.54432 -1.0692,-9.68244 -1.1555,-20.30573 1.0888,-16.46792 -2.1414,-34.43941 -1.8489,-49.3122397 l 0.3679,-9.77253 5.2322,-0.43356 z m 130.8179,0.0879 c 1.0539,-0.0377 2.3213,0.35448 3.8168,0.92656 1.8676,0.71451 0.7758,3.91791 0.9039,19.6819997 -0.4633,21.45205 -0.9487,38.97976 -1.9224,61.82982 h -4.1889 -4.1889 c 1.3351,-28.06584 1.4667,-42.65146 1.2764,-63.74443 -0.1318,-14.5997097 1.1414,-18.5805397 4.3031,-18.6939497 z m -111.8444,0.29042 c 0.1593,-2.7e-4 0.3163,0.009 0.4694,0.0269 0.6119,0.0712 2.5468,0.025 2.8752,0.36432 0.6565,0.67796 0.3147,9.19003 0.9389,18.5973197 1.0553,16.85191 0.6672,24.35743 1.2702,40.82231 l 0.1576,19.5492 h -5.0823 -5.0809 l 0.8222,-7.33031 c 0.4516,-4.03171 0.7785,-12.82975 0.7344,-19.54919 -0.1829,-14.51228 -0.3873,-19.48182 -0.5643,-33.88424 -0.1185,-14.5984497 0.217,-17.6377297 2.0371,-18.3384097 0.4501,-0.17318 0.945,-0.25706 1.4225,-0.25787 z m 96.2248,0.48679 h 4.1889 c 4.1336,0 3.1332,-0.25189 4.0783,8.7049 0.5267,4.9916697 0.083,14.0008697 0.1757,19.5693497 0.2769,16.47021 -0.2118,21.09388 -1.9002,52.68929 l -4.5325,0.43563 -4.5341,0.4377 c 1.2216,-22.90525 2.0065,-34.35576 1.7854,-52.07331 -0.06,-4.82914 0.18,-13.53174 0.3783,-19.2913297 z m 62.576,0.60772 v 0.004 c -0.7543,32.0208897 -0.153,50.9474297 -1.3374,81.1516397 l -19.0851,-0.11059 h -19.5467 c 0.5006,-29.33399 0.2409,-36.96239 1.9286,-61.33476 l 1.3028,-19.6287697 h 12.3698 c 8.2789,0.36265004 16.1727,0.2186 24.368,-0.0816 z M 3029.4851,81.135728 c 3.9845,0 4.2512,0.31141 3.8778,4.53874 -0.3337,3.78111 -1.0414,4.61187 -4.238,4.98006 -3.5502,0.40893 -3.8383,0.0705 -3.8757,-4.53823 -0.038,-4.62505 0.2633,-4.98057 4.2359,-4.98057 z m 11.0815,0 c 3.8564,0 4.1909,0.38951 4.2276,4.88859 0.034,4.18878 -0.4227,4.886 -3.2153,4.886 -4.2288,0 -5.1296,-1.01205 -5.1687,-5.81669 -0.028,-3.46476 0.4879,-3.9579 4.1564,-3.9579 z m 13.2658,0 c 4.6542,0 4.8874,0.23442 4.9253,4.88859 0.038,4.65416 -0.1915,4.886 -4.8457,4.886 -4.6541,0 -4.8912,-0.23184 -4.9289,-4.886 -0.038,-4.65417 0.1952,-4.88859 4.8493,-4.88859 z m 9.0749,0 h 18.1524 c 14.8971,0.0639 18.8586,0.28941 27.4893,0.32763 2.7839,0.0178 6.4291,0.1643 10.2593,0.43563 l 13.9263,0.98753 0.03,3.84525 c 0.023,2.80827 -0.8138,4.07337 -3.1027,4.688082 -1.7241,0.46307 -8.6326,0.84941 -15.352,0.86093 -11.4828,0.17855 -14.5002,0.0378 -27.9265,-0.16795 -14.41,-0.22106 -23.5154,-1.363472 -23.458,-2.943482 0.021,-0.57596 0.026,-2.6184 0.013,-4.53823 z m 77.2067,1.42988 c 1.6652,0.14012 3.4773,1.7969 4.037,4.85345 0.3951,2.15838 -0.3583,2.89398 -3.3234,3.23547 -3.4469,0.397 -3.8424,0.0105 -3.8736,-3.84111 -0.025,-3.01153 1.4949,-4.38792 3.16,-4.24781 z m 31.8068,0.19586 h 18.8501 18.8494 l -0.048,5.35678 0.035,4.188892 -8.03,-0.28216 c -30.4654,-1.066042 -29.4456,0.94888 -29.5661,-2.771922 z m -19.2344,0.53433 c 1.9708,0.0356 2.4018,1.17567 2.4277,4.35633 0.021,2.48216 -0.7497,3.25819 -3.2318,3.25819 -3.8795,0 -5.1276,-1.0311 -5.1537,-4.25813 -0.012,-1.442 1.357,-2.65997 3.4339,-3.0577 1.0417,-0.19938 1.867,-0.31053 2.5239,-0.29869 z m 10.7745,0.63407 c 3.5371,0 4.1933,0.54155 4.2173,3.48919 0.024,2.94765 -0.6229,3.49126 -4.1599,3.49126 -3.5372,0 -4.1935,-0.54361 -4.2174,-3.49126 -0.024,-2.94764 0.6228,-3.48919 4.16,-3.48919 z m -134.659,9.772532 c 3.0584,0 3.4932,0.60619 3.528,4.88808 0.034,4.28188 -0.3915,4.886 -3.4499,4.886 -3.0585,0 -3.4959,-0.60412 -3.5306,-4.886 -0.035,-4.28189 0.3939,-4.88808 3.4525,-4.88808 z m 11.867,0 c 3.9561,0 4.1912,0.31087 4.2339,5.58571 0.045,5.61203 -0.4908,6.03125 -5.8968,4.62245 -1.7313,-0.45145 -2.4598,-2.03975 -2.4872,-5.4224 -0.036,-4.38525 0.3109,-4.78576 4.1501,-4.78576 z m 10.4717,0.89762 c 0.6844,-0.0105 1.5945,0.0941 2.8024,0.23513 4.5147,0.52674 4.8935,0.93256 4.9289,5.30355 0.037,4.4796 -0.223,4.73511 -4.8472,4.73511 -4.7276,0 -4.8897,-0.17393 -4.9315,-5.30562 -0.031,-3.93023 -0.012,-4.94419 2.0474,-4.96817 z m 124.1495,0.26458 c 3.161,0.0202 8.5508,0.23462 14.7904,0.23462 l 19.1259,0.1819 0.035,4.24212 0.032,4.24005 -18.3426,-0.52194 c -16.1633,-0.45992 -17.4207,-0.53573 -18.156,-3.19257 -0.4345,-1.56911 -0.4539,-4.34623 -0.4702,-4.92218 -0.01,-0.21598 1.0888,-0.27409 2.9853,-0.262 z m -113.6669,0.23462 h 16.6424 c 17.8965,0.61502 30.8612,0.5623 46.6653,0.0941 7.48,-0.20829 8.6121,0.84241 9.0367,4.24832 0.4372,3.50779 0.158,3.64661 -9.0403,4.516 -5.2195,0.49323 -12.477,0.81384 -16.1235,0.90589 -9.0101,0.22734 -15.7081,0.0109 -28.2536,0.0109 h -18.8495 l -0.039,-4.88859 z m 79.5869,0 c 3.7234,0 4.1932,0.46547 4.2235,4.18889 0.029,3.72331 -0.4325,4.18837 -4.1559,4.18837 -3.7232,0 -4.1916,-0.46506 -4.2219,-4.18837 -0.029,-3.72342 0.431,-4.18889 4.1543,-4.18889 z m 10.4717,0 c 2.9477,0 3.4977,0.65167 3.5264,4.18889 0.029,3.53712 -0.5111,4.18837 -3.4587,4.18837 -2.9477,0 -3.493,-0.65125 -3.5218,-4.18837 -0.029,-3.53722 0.5065,-4.18889 3.4541,-4.18889 z m 9.7281,0.12867 c 0.6234,-0.0293 1.4352,0.0313 2.4928,0.13281 3.7842,0.36463 4.6192,1.07723 5.0132,4.27674 0.4378,3.55356 0.1028,3.83904 -4.5058,3.83904 -4.6251,0 -4.9807,-0.30357 -5.0131,-4.27622 -0.024,-2.98849 0.1428,-3.88367 2.0129,-3.97237 z m -9.6356,11.04274 c 3.1416,0 3.4953,0.55709 3.5362,5.58364 0.037,4.48494 -0.458,5.5857 -2.5137,5.5857 -3.6071,0 -4.4319,-1.20071 -4.4751,-6.5164 -0.034,-4.03369 0.4272,-4.65294 3.4526,-4.65294 z m 12.4168,0 c 5.0043,0 6.4469,1.72963 6.4962,7.7928 0.025,3.00839 -0.5811,3.37654 -5.5573,3.37654 -5.4142,0 -5.9382,-0.42735 -5.9743,-4.88601 -0.047,-5.76188 0.3724,-6.28333 5.0354,-6.28333 z m 9.065,0 25.2367,0.2005 c 10.252,0.26023 10.3614,-1.17646 10.3824,5.01468 0.016,4.66893 -0.2556,5.16208 -1.5353,5.16041 -13.5548,0.79356 -24.1843,0.2389 -33.0591,0.10852 l -0.5483,-4.55063 z m -143.6951,0.17725 c 0.3198,-0.0107 0.6092,-0.004 0.8729,0.0191 v -0.002 c 1.5814,0.15321 2.2244,1.03026 2.7878,3.20497 0.5092,1.9657 0.5722,4.51996 0.1391,5.67356 -1.0018,2.6671 -7.6895,2.74248 -8.725,0.1049 -1.7419,-4.44534 5e-4,-8.47107 3.8716,-8.91728 0.3838,-0.0445 0.7339,-0.0725 1.0536,-0.0832 z m 8.4554,0.0351 c 0.4295,-0.0115 0.9886,0.10899 1.7114,0.3023 1.7317,0.46307 3.9341,0.84993 4.8943,0.86145 2.5913,0.0283 2.2462,7.93129 -0.3907,8.94622 -5.7534,2.21472 -7.5581,1.05202 -7.6062,-4.90099 -0.032,-3.95955 0.1019,-5.17526 1.3912,-5.20898 z m 103.2898,0.48472 c 2.9176,0 3.569,0.74321 3.9656,4.53616 0.4438,4.24534 0.1921,4.53874 -3.8922,4.53874 -4.0827,0 -4.3385,-0.2934 -3.9636,-4.53874 0.3348,-3.79295 0.9726,-4.53616 3.8902,-4.53616 z m -14.2689,0.0894 c 3.5646,0.0421 6.0432,0.25841 6.4249,0.62425 0.6783,0.65031 0.8402,2.7978 0.3602,4.77387 -0.8653,3.56864 -0.9681,3.59358 -15.2745,3.59358 -14.8682,0.20201 -21.2538,-0.0109 -37.0422,-0.0109 -17.293,0 -18.0199,-0.11746 -18.8066,-3.03496 -0.45,-1.66819 -0.5691,-3.44188 -0.2656,-3.93929 0.3032,-0.49732 8.7533,-0.90582 18.7734,-1.11673 15.6564,-0.32945 25.3019,-0.10041 36.0181,-0.66663 2.063,-0.10901 4.0675,-0.17681 5.9236,-0.21084 l -6e-4,0.005 c 1.392,-0.0257 2.7011,-0.0311 3.8893,-0.0171 z m -72.9899,0.61392 c 4.4991,0 4.8892,0.333 4.9205,4.18889 0.031,3.85631 -0.3543,4.18889 -4.8534,4.18889 -4.4989,0 -4.8899,-0.33258 -4.9212,-4.18889 -0.031,-3.85589 0.3549,-4.18889 4.8541,-4.18889 z m 85.8288,10.61279 c 0.3513,0.0215 0.7491,0.0622 1.1989,0.11317 l 3.8432,0.44183 0.069,13.82603 c 0.022,4.44022 -0.6255,14.6225 -0.646,17.64492 -0.041,6.11741 -0.4866,6.87441 -3.7062,6.87452 -1.6608,0 -2.6559,-0.09 -3.2458,-1.06557 0.1815,-3.64719 0.2499,-7.97516 0.1023,-12.12071 -0.3277,-8.98987 -0.1948,-15.69093 -0.2186,-18.62057 0.2075,-2.07178 0.058,-6.89603 1.6831,-7.09311 h 5e-4 c 0.2641,-0.0246 0.5686,-0.022 0.9199,-5.1e-4 z m -77,0.55449 h 18.3199 c 14.3774,0.6371 22.4885,-0.0994 36.1343,0.78548 h 5e-4 c 8.2597,0.53502 15.2619,-0.90906 15.5587,-0.65009 0.2948,0.25719 0.372,8.22877 0.753,15.32103 -0.1438,0.70288 -0.2142,2.31625 -0.1964,5.46736 l -0.9653,17.65887 -17.1091,-0.40049 c -12.6316,-0.72173 -22.1829,-1.01608 -36.7522,-1.83038 l -16.5319,-0.91674 -0.011,-0.76688 c 0.27,-3.18913 0.2557,-7.95466 0.4175,-15.95148 z m -8.0542,0.17931 c 0.2764,-0.007 0.5506,-0.003 0.8186,0.0129 v 5.2e-4 c 1.608,0.0932 3.0061,0.58038 3.4442,1.28002 0.5828,0.93127 0.3294,12.43737 -0.1307,24.79126 -0.1456,0.75607 -0.2893,1.56401 -0.4134,2.52387 -0.7248,5.6001 -2.2707,6.89881 -4.4054,6.89881 -1.4487,0 -2.7565,-0.79928 -3.51,-2.79156 0.2425,-2.57632 0.2499,-6.93549 -0.1534,-13.86531 l -0.5152,-18.33221 4.0334,-0.46044 c 0.2773,-0.0319 0.5556,-0.0507 0.8319,-0.0579 z m 97.4732,0.37724 c 3.0302,0 4.2791,0.15592 4.2426,13.69012 -0.031,11.58567 0.2692,23.64736 -1.4831,23.60631 l -6.8761,-0.16175 c -0.1759,-5.59475 -0.3011,-15.04231 -0.3602,-22.33248 -0.1073,-13.21846 0.9976,-14.8022 4.4768,-14.8022 z m 6.9034,0.14108 h 5.9108 5.9112 c -2e-4,2.01429 1.4628,37.98069 -1.1596,38.22092 -6.8524,-0.22054 -10.291,0.36112 -10.9859,-2.64015 0.04,-2.83948 0.4497,-7.50314 0.2202,-12.97233 z m 15.1319,0.0672 c 11.3401,0.33134 22.7053,0.0228 34.0326,0.69918 -0.073,1.4311 -0.2918,10.80694 -0.2305,17.09715 0.055,5.79476 0.3463,9.36285 0.599,13.24578 0.095,1.4542 0.049,4.04381 0.06,5.33396 0.1185,3.15835 -23.088,0.43762 -34.0713,1.54409 l -0.5787,-3.99252 c 0.1628,-2.76848 0.1884,-5.91794 0.17,-9.67434 -0.039,-7.96939 -0.5301,-24.22628 0.019,-24.2533 z m -150.2023,0.63045 h 4.7574 4.7574 l 0.2966,18.68361 c 0.061,3.84437 0.04,8.36162 0.1127,11.92847 -0.3468,3.75075 0.8072,5.41401 -4.561,4.80643 -2.0251,-0.22924 -5.6339,0.73505 -5.7697,-0.72192 l -0.1576,-2.22726 c 0.081,-0.45437 0.1919,-0.82166 0.1964,-1.46244 0.015,-2.0789 0.1048,-9.90579 0.1984,-17.39325 z m 12.3435,0 h 4.7941 4.7945 l 0.1003,10.67635 c 0.5444,5.87446 0.4683,15.77815 0.495,19.07274 9e-4,0.12503 0.024,0.2218 0.03,0.33951 -0.4468,3.78698 -0.4017,4.20285 -3.6752,4.20285 -3.3111,0 -5.3226,-0.52509 -5.8126,-3.82251 v -0.44803 z" fill="#8a603c" transform="translate(181.5875,90.644665) translate(-3172.5658,-11.03704)"/>
    <path d="m 3098.0621,-79.607615 c 0,3.344082 0.069,8.87916 0.1219,11.93984 0.057,3.339931 0.4721,81.829333 0.1613,90.427553 -0.069,1.90905 -0.034,6.92637 0.028,12.64574 -13.124,0.01679 -105.3172,0.82395 -107.3945,1.06092 v 2.98741 c 0.01,1.2e-4 0.01,0.0015 0.015,0.0016 1.8338,0.0293 7.0757,-0.72393 11.8386,-0.84646 4.7629,-0.12241 76.6962,-0.29351 80.9692,0.19637 1.2333,0.14137 7.163,0.26159 14.6099,0.37207 0.2707,20.53261 0.9507,52.252322 0.7814,55.411612 -0.233,4.34797 -1.304,66.77131 -1.2108,69.74923 0,0.0956 0.021,0.17822 0.032,0.26717 h 4.1372 c 0.053,-1.46526 0.4703,-78.138162 0.098,-84.575202 -0.1848,-3.19511 -0.1435,-22.14074 -0.055,-40.80578 18.4765,0.24536 44.8616,0.42142 52.1271,0.53588 10.8358,0.17073 63.87,-0.4509 66.4331,-0.3607 v -2.97914 c -3.1584,-0.10698 -17.0652,-0.32294 -21.1729,-0.09044 -4.3273,0.24483 -90.0589,-0.90576 -97.0535,-0.95498 -0.019,-1.1e-4 -0.2908,0 -0.3111,0 0.088,-17.00073 0.2047,-33.9944997 0.2047,-35.50015966 0,-3.28610004 -0.2906,-78.86525934 -0.293,-79.48248334 z" fill="#b9a99f" paint-order="markers stroke fill" transform="translate(181.5875,90.644665) translate(-3172.5658,-11.03704)"/>
</svg>