<?xml version="1.0" ?><svg xmlns="http://www.w3.org/2000/svg" width="276.55161mm" height="245.77515mm" viewBox="0 0 276.55161 245.77515">
    <g transform="translate(109.3309,200.91299) translate(-1440.3518,-267.38109)">
        <rect width="276.45007" height="244.20419" x="1331.0681" y="68.021217" ry="0" fill="#fff" paint-order="fill markers stroke"/>
        <path d="m 1590.6141,66.471115 c -18.6622,-0.03389 -42.5064,0.228673 -66.0402,0.240519 -19.6994,0.01102 -43.4853,-0.02838 -71.9355,0.02838 -69.0124,0.13803 -103.1577,-0.148775 -121.3049,-0.115439 -0.1212,2.48e-4 -0.1984,0.04436 -0.3091,0.05565 v 4.533179 c 0.1019,0.01653 0.1873,0.06805 0.2948,0.06833 5.3335,0.01928 12.1877,0.463407 20.8362,0.704753 l 21.9796,0.613643 -0.1102,5.938388 c -0.061,3.266193 0.083,8.562643 0.3201,11.770015 l 0.4301,8.072596 -26.2922,0.879867 -17.1218,0.43423 c -0.1322,0.0028 -0.2149,0.04684 -0.3375,0.05979 v 4.249854 c 0.1157,0.0138 0.2122,0.0617 0.3375,0.0625 l 5.6166,0.0441 0.6436,3.06245 c 0.354,2.67286 0.6824,7.04417 0.729,11.32154 l 0.069,12.34663 c -2.2016,0.10855 -4.412,0.23226 -7.1415,0.26918 -0.099,0.001 -0.1625,0.0383 -0.2534,0.0471 v 4.17438 c 0.091,0.011 0.1598,0.0501 0.2534,0.0512 3.0786,0.0328 21.7645,0.0741 34.3677,0.0369 l 10.4572,-0.0441 -0.2259,12.86062 0.027,14.67157 -20.9629,-0.13528 c -10.2239,-0.0664 -21.5289,0.3653 -23.5473,0.40577 -0.1433,0.003 -0.2287,0.0433 -0.3659,0.0513 v 6.00247 c 0.1102,0.008 0.1956,0.0515 0.3105,0.0557 3.766,0.12811 9.8101,-0.17026 10.0842,0.10387 0.2755,0.27441 0.2987,3.95698 0.6279,10.03163 l 0.6494,11.99354 c 0,0 -7.5443,0.62494 -11.3273,0.63356 -0.1322,3e-4 -0.2259,0.0499 -0.3447,0.0669 v 4.26409 c 0.1323,0.0248 0.2397,0.0843 0.386,0.0882 5.6667,0.15511 11.6651,-0.42382 18.8986,-0.0769 l 13.1509,0.6307 0.6494,10.30359 c 0.357,5.66684 0.9014,12.34046 1.2086,14.8296 l 0.5582,4.52607 -23.3593,0.33315 c -5.6899,0.0813 -8.2772,0.15291 -11.2119,0.17522 -0.1074,7.5e-4 -0.1791,0.0504 -0.2805,0.0625 v 5.18099 c 0.1075,0.0138 0.1901,0.0697 0.3061,0.0683 5.6091,-0.0697 8.4141,0.41166 9.0265,0.8044 0.6569,0.42098 1.0059,2.97134 1.3057,8.81578 l 0.5353,10.4246 c 0,0 -2.6328,0.17357 -4.0478,0.20773 -1.5233,0.0369 -3.4053,0.1328 -6.8381,0.11957 -0.113,-4.4e-4 -0.1819,0.0347 -0.2877,0.0413 v 4.04624 c 0.1102,0.0165 0.2039,0.0634 0.3205,0.0642 4.9878,0.0276 10.5462,-0.51823 18.3988,-0.51823 h 27.8113 l -0.028,12.45626 c 0,6.85079 -0.1763,12.58932 -0.3645,12.7524 -0.1873,0.1631 -12.15,0.31061 -26.5641,0.1124 -8.0074,-0.1102 -14.9205,0.45622 -19.1991,0.45418 -0.1515,-5e-5 -0.248,0.0468 -0.3816,0.0612 v 4.07473 c 0.088,0.0165 0.1653,0.0628 0.2535,0.0656 1.8732,0.0325 6.8031,-2.8e-4 9.8125,0.21352 l 3.6761,0.26063 0.6263,14.25872 c 0.2094,4.43298 0.2939,8.16889 0.319,11.02399 h 6.2772 l -0.7987,-8.37301 c -0.6744,-6.26944 -1.2354,-12.75838 -1.5233,-13.96114 l -0.319,-2.69512 33.0777,0.88414 h 33.5105 l 0.6022,3.64477 c 0.3312,2.00461 0.6039,8.3456 0.6136,14.09212 v 6.40824 h 5.7347 l -0.286,-3.49244 c -0.3388,-4.14281 -0.8662,-10.43512 -1.1734,-13.98393 l -0.5579,-6.45378 16.8527,-0.67343 c 4.6346,-0.18542 9.5593,-0.31788 13.7589,-0.38155 4.1999,-0.0636 7.6752,-0.059 9.4123,0.03 l 6.3185,0.32317 0.5882,6.80404 c 0.3235,3.74192 0.9199,9.90655 1.3255,13.69916 l 0.4414,4.12884 h 5.0299 l -0.413,-6.89372 c -0.3278,-5.4793 -0.8863,-11.82161 -1.24,-14.09355 l -0.642,-4.13024 h 11.2474 c 6.1863,0 11.4937,0.39778 11.7943,0.88413 0.3006,0.48636 0.8318,6.8287 1.1803,14.09356 l 0.4868,10.13982 h 5.2636 l -0.028,-0.1069 c -0.2818,-1.72863 -0.6284,-7.9528 -0.7703,-13.833 l -0.2563,-10.69225 30.616,-0.25622 30.616,-0.25761 -0.2917,13.37886 c -0.113,5.18627 -0.2978,9.15546 -0.4786,11.76715 h 6.1166 v -4.02489 c 0,-4.38592 0.2802,-10.86073 0.6136,-14.38827 l 0.605,-6.41392 18.4814,-0.66345 c 5.6397,-0.2025 16.1493,-0.19423 19.7287,-0.26339 0.1295,-0.002 0.2259,-0.051 0.3461,-0.0683 v -4.08328 c -0.1213,-0.011 -0.2122,-0.0546 -0.3461,-0.0526 l -11.7257,0.15649 -0.7047,-8.92684 c -0.4012,-5.07687 -0.6626,-11.63554 -0.8927,-12.54877 -0.3609,-1.43138 0.5111,-3.28936 6.4894,-3.53374 1.5701,-0.0642 5.8529,-0.3718 6.8337,-0.40861 0.1378,-0.006 0.2177,-0.0413 0.3461,-0.0526 v -4.01784 c -0.1185,-0.0138 -0.2232,-0.0562 -0.3461,-0.0584 -3.4488,-0.0623 -13.7859,-0.0193 -21.9909,-0.21076 -8.832,-0.20636 -17.2334,-0.0824 -17.5703,-0.42142 -0.3367,-0.33913 -0.9081,-4.84429 -1.2685,-10.01171 l -0.6548,-9.39524 4.1827,0.13803 c 2.3008,0.0758 11.1816,0.0333 19.7345,-0.0953 5.886,-0.0884 14.6362,-0.26752 17.5673,-0.42002 0.1378,-0.008 0.2204,-0.0534 0.3461,-0.0683 v -5.13968 c -0.1185,-0.011 -0.2204,-0.0609 -0.3461,-0.0584 -1.129,0.022 -4.169,0.0554 -4.9999,0.0499 -2.5157,-0.0138 -2.2107,1.34178 -2.735,-5.50275 -0.297,-3.8756 -0.716,-11.05882 -0.9298,-15.96292 l -0.3888,-8.91686 9.0535,-0.39721 c 0.1323,-0.006 0.2204,-0.043 0.3461,-0.054 v -4.33528 c -0.124,6e-5 -0.2149,-0.0311 -0.3461,-0.0248 -2.1338,0.11213 -9.885,-0.0165 -14.751,-0.0813 -4.8664,-0.0634 -11.4761,-0.38907 -14.6874,-0.72467 l -5.8386,-0.6108 -1.1776,-9.71841 c -0.648,-5.34536 -0.8185,-10.06307 -0.3788,-10.48295 0.44,-0.41996 8.2353,-0.92094 17.3227,-1.11336 7.4619,-0.15787 16.0853,-0.0557 19.6149,-0.057 0.088,-3e-5 0.157,-0.0463 0.2424,-0.054 v -5.9925 c -0.1377,-0.011 -0.2259,-0.0636 -0.3758,-0.0656 -2.3385,-0.0295 -6.9227,-0.24658 -9.388,-0.26476 -1.4359,-0.084 -2.371,-0.25788 -3.5551,-0.38726 l -0.2425,-8.4057 c -0.135,-4.62281 -0.2149,-11.61926 -0.2755,-13.75757 l -0.135,-4.56735 c 4.5401,-0.16668 8.6224,-0.46271 13.6479,-0.38155 0.1323,0.002 0.2067,-0.0388 0.3246,-0.0471 v -4.21995 c -0.072,-0.008 -0.1378,-0.0523 -0.2094,-0.0499 -2.1118,0.0755 -8.4146,0.0328 -22.4637,0.0328 h -21.7333 l -0.5651,-2.67236 c -0.3113,-1.47006 -1.0855,-5.51636 -1.6202,-10.78192 -0.5348,-5.26562 -1.2147,-11.42574 -1.512,-11.9067 -0.3138,-0.50787 8.549,-0.87899 21.1423,-0.887 15.6134,-0.008 23.8696,-0.71024 26.7349,-0.84995 0.088,-0.006 0.1433,-0.038 0.2287,-0.0471 v -4.222796 c -0.08,-0.0055 -0.1433,-0.03802 -0.2287,-0.03554 -2.2851,0.06888 -9.3458,0.309896 -12.234,0.306096 h -2.5372 l -0.055,-13.63511 -0.055,-15.094452 6.6731,0.169439 c 2.3033,0.05841 6.7688,-0.209939 8.2348,-0.192306 0.083,0.001 0.1239,-0.02204 0.2011,-0.0248 v -4.580153 c -0.085,-0.0055 -0.1653,-0.04546 -0.2507,-0.0427 -4.8658,-0.09726 -10.5099,-0.141061 -16.7304,-0.152357 z m -11.894,5.020087 c 5.4422,-0.06915 8.8513,-0.0675 8.9141,0.02204 0.1268,0.180459 0.069,6.998549 -0.1818,15.149968 l -0.4113,13.36458 -15.6881,-0.145192 c -16.8367,-0.155662 -37.655,0.201402 -39.8718,-0.64921 -1.0111,-0.388028 -1.4803,-3.335649 -1.8382,-11.526576 -0.2644,-6.053248 -0.7846,-11.927359 -1.156,-13.052788 -0.6731,-2.040617 -0.5915,-2.048083 29.1225,-2.757768 8.1945,-0.195887 15.669,-0.336232 21.1112,-0.405771 z m -142.9545,0.280468 c 6.501,0.01102 10.9229,0.09395 11.1794,0.271928 0.7014,0.487101 1.237,5.412771 1.4577,13.405909 l 0.3488,12.634207 -2.9157,0.06557 c -4.3847,0.09836 -65.082,1.083414 -65.3622,0.888408 -0.135,-0.09285 -0.2424,-2.605108 -0.2424,-4.732482 0,-2.12743 -0.7106,-8.940781 -1.579,-13.250715 -0.8684,-4.309851 -1.4147,-7.984404 -1.2144,-8.165111 0.6102,-0.550854 38.8262,-1.152098 58.3289,-1.117632 z m 17.1048,0.556695 h 36.0193 36.019 l 0.618,5.102657 c 0.3397,2.806478 0.481,8.819419 0.3132,13.363178 l -0.3047,8.261925 -3.8883,0.03554 c -2.1382,0.01928 -17.9282,-0.0956 -35.088,-0.256224 l -31.1996,-0.291875 -0.6364,-9.46356 c -0.3502,-5.204706 -0.9103,-11.102291 -1.2445,-13.106899 z m 10.738,31.471645 c 6.9536,0.0193 12.3384,0.0772 14.5433,0.22785 l 8.0184,0.54815 v 11.33292 c 0,6.2331 0.2769,12.31702 0.5995,13.51981 l 0.5852,2.18686 -19.7942,-0.14382 c -16.9254,-0.12343 -41.4634,0.11709 -54.5719,-0.86562 l -3.6747,-0.27469 -0.4342,-14.59327 -0.4329,-11.90099 31.1899,-0.0276 c 8.4816,-0.008 17.005,-0.0284 23.9586,-0.011 z m -90.8443,0.22482 c 17.0733,0.3305 31.148,0.0325 31.2766,0.18652 0.1295,0.15401 0.028,4.52759 -0.2534,11.61055 l -0.4885,14.02236 -4.4875,-0.0165 c -2.4697,-0.008 -17.8828,0.76179 -31.6754,0.3958 -13.7922,-0.36602 -23.3364,0.8092 -23.7877,0.32887 -0.451,-0.48037 -1.0012,-10.68056 -1.223,-17.3126 l -0.4028,-9.1945 z m 116.9854,0.0612 27.8141,0.42142 c 14.6557,0.22206 28.0907,-0.14078 31.2979,0.21655 l 5.8317,0.64921 0.591,9.23434 c 0.3253,4.27651 0.9948,8.61529 1.3894,11.4326 l 0.7163,5.1226 -18.3977,0.32034 c -10.0746,-0.14464 -24.9868,0.49784 -33.1389,0.35023 l -14.8224,-0.26752 v -7.60845 c 0,-4.18413 -0.2881,-10.36649 -0.6408,-13.73903 z m -68.7437,30.97334 c 2.8832,-0.0138 5.595,0.008 7.9517,0.094 l 17.1389,0.63212 0.5979,4.36802 c 0.3295,2.40249 0.5995,8.68158 0.5995,13.95263 v 9.58315 h -32.9041 -32.9052 l -0.5965,-9.47639 c -0.3284,-5.21198 -1.0114,-12.04707 -1.2643,-15.21403 l -0.4202,-3.92667 16.1837,0.10828 c 6.7779,0.25953 16.9695,-0.081 25.6186,-0.12095 z m 110.3608,0.53674 0.05,14.48795 0.052,13.6052 h -38.5234 c -21.1884,0 -38.8166,-0.29143 -39.1725,-0.6478 -0.3565,-0.35632 -0.648,-2.94225 -0.648,-5.74619 0,-2.80399 -0.6505,-8.49586 -1.4451,-12.64847 -0.7945,-4.15265 -1.3406,-7.63713 -1.2144,-7.7437 0.537,-0.45274 37.9437,-0.87416 58.5455,-0.65918 v 0 z m 30.5819,0.38586 h 26.3563 l 0.096,3.15926 c 0.2645,8.73528 0.8018,19.4266 1.2487,21.27914 0.3755,1.55591 -0.044,2.22207 -1.6773,2.65952 v 0 c -1.1977,0.32097 -13.1118,0.58852 -26.4757,0.59654 l -24.2988,0.0138 v -6.56056 c 0,-3.6083 -0.3808,-9.51282 -0.8414,-13.12114 l -0.8359,-7.44188 z m -189.6757,33.04201 c 3.5825,-0.001 7.5068,0.0317 11.6959,0.12233 l 30.4681,0.66062 -0.689,9.81949 c -0.3792,5.40073 -0.7492,9.87283 -0.823,9.93768 -0.074,0.0647 -14.8362,0.42575 -32.8044,0.80297 l -32.6688,0.68624 -0.551,-9.55183 c -0.3028,-5.25295 -0.4502,-9.07126 -0.8345,-10.33772 -0.5078,-1.67367 -0.5723,-2.12217 1.1747,-2.00891 0.5822,0.0377 2.3102,0.10029 4.0776,0.13528 2.5358,0.0501 10.2076,-0.26119 20.9544,-0.26615 z m 45.8627,0.46983 30.8596,0.25622 30.8581,0.2576 0.2067,10.44738 0.2066,10.44878 -12.3552,-0.22068 c -6.7952,-0.12095 -20.507,-0.3491 -30.4706,-0.50683 -21.0381,-0.33314 -19.2677,0.8283 -19.2903,-12.64991 z m 80.1066,0.0275 v 0 h 12.9291 l 0.6535,7.53298 c 0.3587,4.14281 0.9053,8.95351 1.2145,10.69082 l 0.5609,3.15927 h -14.0879 -14.0879 l -0.4458,-9.96188 c -0.2452,-5.47927 -0.27,-10.29132 -0.058,-10.69225 0.2149,-0.40092 6.2077,-0.72894 13.3189,-0.72894 z m 25.6643,0.27055 v 0 c 4.4219,0.0394 10.4589,0.15484 17.0435,0.33885 l 23.9443,0.66916 v 3.49241 c 0,1.92022 0.2871,6.44329 0.6279,10.05158 v 0 l 0.6193,6.56057 h -24.3231 -24.323 l -0.6993,-10.26939 c -0.3849,-5.6482 -0.4976,-10.47232 -0.2479,-10.72074 0.1239,-0.12426 2.9317,-0.16173 7.3536,-0.12233 z m -135.7987,25.97179 c 5.6094,0 5.6444,0.0193 6.1618,3.15927 0.818,4.96675 2.4832,21.72522 2.4832,24.9894 v 2.95424 h -12.4622 -12.4632 l -1.6687,-13.62797 c -0.9175,-7.49507 -1.8917,-14.20792 -2.1642,-14.91791 -0.5287,-1.37812 8.7408,-2.55703 20.1133,-2.55703 z m 9.4864,0 h 25.8464 25.8466 l -0.2672,15.308 -0.2673,15.308 -23.4202,0.26063 -23.4205,0.25926 -0.6464,-9.97896 c -0.6056,-9.36154 -1.2899,-13.73696 -2.9686,-18.96985 z m 56.0169,0.97098 h 21.8897 l 21.8887,10e-4 -0.3204,13.85008 c -0.1763,7.61754 -0.4893,14.36477 -0.6935,14.9948 -0.5584,1.72288 -41.1845,1.8198 -41.7636,0.0997 -0.2315,-0.6847 -0.5508,-7.47791 -0.7106,-15.09586 z m 48.3769,10e-4 h 16.7133 16.7132 l 0.8927,15.0674 0.8912,15.06453 h -16.7972 c -12.5828,-0.002 -16.8915,-0.30714 -17.1789,-1.21729 -0.2094,-0.66816 -0.5758,-7.44702 -0.81,-15.06456 z m 38.3568,0 h 26.3706 26.3688 v 14.01382 c 0,7.70746 0.2645,14.70447 0.5896,15.55003 0.6221,1.62124 -3.5009,1.70957 -38.0906,0.81295 l -11.7458,-0.30466 -1.1348,-11.39133 c -0.6241,-6.26544 -1.4093,-13.03146 -1.7454,-15.03604 z m -193.8957,34.87438 17.6202,0.5994 c 9.6905,0.33001 22.2114,0.77936 27.824,0.99804 5.613,0.21875 14.4698,0.41246 19.6819,0.42996 l 9.4764,0.0314 v 7.63407 l -0.3291,9.54924 -12.5276,0.50641 c -23.3066,0.94212 -60.2522,0.85323 -60.5539,-0.17067 -0.1571,-0.53457 -0.5061,-5.55345 -0.7488,-10.52992 z m 79.4617,1.08774 h 23.8431 c 18.2233,0 23.9324,0.28584 24.2236,1.21445 0.2094,0.66814 0.6602,4.38633 1.001,8.26192 l 0.387,8.57937 -23.0425,0.45302 -26.7413,-0.0697 0.3291,-10.17854 z m 94.5204,0.48551 h 40.5779 v 8.99086 c 0,4.94322 0.028,9.31247 0.052,9.71557 0.028,0.40092 -0.518,0.76975 -1.2144,0.82152 -25.2048,-0.88938 -25.5182,-1.69248 -50.6908,-1.81833 l -27.8796,-0.13939 -0.5609,-8.57937 c -0.2544,-3.89172 -0.8076,-7.48391 -0.8271,-8.01845 -0.028,-0.63304 14.1149,-0.97241 40.5423,-0.97241 z m -66.6678,22.37322 25.1648,0.72184 c 30.2661,0.86817 44.2165,0.95182 44.1936,1.93277 0,0.40093 -0.027,5.97743 -0.027,12.39218 v 11.66325 h -33.3967 -33.3951 l -0.5951,-10.93428 c -0.3268,-6.01383 -0.9455,-11.43031 -1.304,-12.97242 z m -27.0922,0.4015 c 6.1406,-0.0645 11.2212,-0.0606 13.7606,0.0275 l 9.2343,0.31893 0.3281,12.59797 0.27,13.36459 h -32.9766 -32.9782 l -0.5623,-5.58957 c -0.3092,-3.07367 -0.8368,-8.9278 -1.1718,-13.00868 l -0.6078,-7.41908 24.5868,0.0918 c 6.8868,-0.16652 13.9543,-0.31595 20.1169,-0.38346 z m 101.004,1.89005 13.5082,0.53104 c 7.43,0.29218 21.1873,0.21517 30.2488,0.52537 9.0615,0.31025 16.7801,-0.30515 17.2072,-0.0413 0.427,0.26394 0.5568,6.92094 0.5568,12.76949 v 10.63384 h -30.1292 -30.1305 v -6.17618 c 0,-3.39615 -0.2838,-8.88992 -0.6307,-12.20852 z"/>
    </g>
</svg>