<?xml version="1.0" ?><svg xmlns="http://www.w3.org/2000/svg" width="229.7796mm" height="244.213mm" viewBox="0 0 229.7796 244.213">
    <path d="M 2125.7469,55.210006 V 299.42301 h 229.7752 V 55.210006 Z" fill="#fff" paint-order="fill markers stroke" transform="translate(396.7881,-64.147735) translate(-2522.5328,8.9377293)"/>
    <path d="m 2154.5043,55.210018 c 0.8061,8.18271 0.5565,29.76819 -0.6873,34.06665 h 0.064 c -0.097,0.32673 -0.1944,0.68602 -0.2925,0.84698 -0.19,0.31123 -1.4401,0.57321 -3.1233,0.80977 v 0.0171 c -3.2325,0.4504 -8.8156,0.75382 -16.1985,0.82011 -3.878,0.0346 -5.2042,0.2237 -8.1385,0.31471 -0.1394,-0.003 -0.2611,0.01 -0.3835,0.0222 v 3.26026 c 0.043,-0.008 0.084,-0.007 0.1277,-0.0202 8.52,0.49847 17.2563,0.43977 21.0772,0.43977 1.4101,0 2.5301,0.0211 3.4443,0.0692 v 0.0103 c 3.428,0.18106 3.8929,0.83358 3.9124,3.23753 0.017,2.089892 -0.2897,2.872312 -3.9615,3.415812 -1.9062,0.28369 -4.682,0.50676 -8.9199,0.80615 -6.7684,0.47805 -10.8113,-0.46307 -15.2394,-0.11886 -0.1585,0.0107 -0.3035,0.04 -0.4408,0.078 v 4.10621 c 0.069,-0.0102 0.1364,-0.0125 0.2099,-0.0362 2.1003,-0.0398 3.2002,0.0284 5.4771,-0.047 l 18.8066,-0.62219 2.0945,-0.0687 2.2417,-0.0734 -0.4133,4.74906 -0.415,4.747 -1.5483,0.0651 v -0.062 l -18.7905,0.06 c -2.6466,0.009 -5.3997,-0.19549 -7.6627,-0.14831 v 4.2509 c 1.8401,0.0522 4.2232,0.0631 6.1407,0.12092 l 18.1421,1.08211 v 0.11007 l 3.7657,0.11472 -0.352,3.40341 c -0.1932,1.87249 -0.7015,3.75755 -1.1291,4.18889 -0.018,0.0178 -0.29,0.0313 -0.3395,0.0491 -1.1058,0.35982 -8.2964,0.29663 -17.6484,0.29663 -3.2837,0 -6.2976,-0.0885 -8.5795,-0.0346 v 3.1874 c 3.0202,0.20293 6.9601,0.2302 11.5384,0.42789 l 12.5688,0.54208 2.0924,0.0941 2.6484,0.11472 0.1436,17.7922 c 0.081,6.93391 0.2012,12.96783 0.3964,19.11718 -11.9892,0.134 -28.1907,0.29 -29.388,0.36277 v 2.98793 c 1.9763,-0.0168 7.0159,-0.72201 11.633,-0.84078 1.0455,-0.0272 11.7615,-0.0338 17.8553,-0.0579 0.1952,5.62491 0.4315,11.29305 0.7916,18.03972 0.3617,5.86473 0.5162,10.78283 0.5463,14.4787 l -0.092,-0.11007 c 0,3.86311 -0.1329,6.5635 -0.3473,6.91483 -0.4338,0.71126 -8.1425,1.1324 -17.1829,1.5384 -5.2859,0.23729 -8.7697,0.13889 -12.6091,0.59893 -0.217,0.0415 -0.409,0.0912 -0.5943,0.14263 v 3.16312 c 0.1734,0.0205 0.3503,0.0307 0.5338,0.0181 2.7146,0 4.0224,-0.28566 8.691,-0.45217 l 20.3202,-0.92655 0.3064,4.02921 0.03,5.73711 -21.3754,0.11886 c -3.1628,-0.12074 -5.9731,-0.0361 -8.506,-0.03 v 3.4556 c 6.0018,-0.0318 8.6383,-0.42552 10.2754,-0.45217 l 19.6288,-0.31729 0.045,3.82302 v 0.21239 l 0.024,4.54081 -2.3358,0.12867 -2.096,0.11679 -13.3625,0.73846 c -4.7107,0.26036 -8.8373,0.16778 -12.1786,0.3359 v 2.28874 c 3.0781,0.01 7.0935,-0.0888 11.2195,-0.19688 l 14.2601,-0.36846 2.0945,-0.0532 2.4236,-0.0651 0.041,5.02346 0.041,5.02347 h -2.7264 -2.0939 -14.0292 c -2.5775,0 -4.3797,-0.036 -5.9169,-0.0496 -1.5371,-0.0136 -3.6822,-0.10449 -5.1992,-0.0207 -0.041,1.8e-4 -0.075,0.009 -0.1137,0.0109 v 3.26647 c 0.065,0.006 0.1252,0.0189 0.1938,0.0196 2.9675,0.23604 5.693,-0.23371 10.711,-0.12867 l 14.2803,0.30076 4.2261,0.0879 -0.2031,16.94315 c 0.029,0.93955 0.1124,1.7696 0.1638,2.67322 -0.036,0.2883 -0.107,0.65881 -0.1065,0.86145 0.011,2.11177 -0.1808,11.03671 -0.6299,12.76459 -0.4302,1.6552 -0.8282,2.89644 -4.2705,3.70624 v 0.0103 c -2.9644,0.69838 -8.2327,1.07177 -18.017,1.07177 -2.3534,0 -4.4287,-0.18697 -6.348,-0.2868 v 3.65559 c 2.0134,-0.0648 3.9255,-0.19928 6.5526,-0.18397 8.2799,0.0492 15.1784,-0.54484 18.7679,-0.65888 1.3728,-0.0513 2.4806,-0.0629 2.7161,0.0816 0.3672,0.22578 0.635,2.03461 0.8325,4.53823 h 3.5393 l -0.038,-4.59972 h 6.2834 l 4.4958,-0.30438 0.032,4.9041 h 4.1661 c -0.214,-3.53371 -0.2231,-5.05998 0.7964,-5.45238 1.488,-0.57282 2.7273,-0.94813 3.7532,-0.87954 1.8237,0.12183 2.908,2.01719 3.5616,6.33192 h 4.8632 c 0.6834,-3.62813 1.6934,-5.45865 3.1048,-5.7304 1.557,-0.29991 2.4201,1.14778 2.7197,5.7304 h 3.932 l 0.1266,-5.21519 17.3132,0.41548 c 9.2571,0.35112 14.8105,0.65045 19.312,0.90795 0,0.44862 -0.053,3.36721 -0.049,3.51969 0,0.13293 0.024,0.2519 0.043,0.37207 h 4.1191 c 9e-4,-0.0141 0.01,-0.0261 0.01,-0.0403 0,-0.0576 0.015,-3.27236 0.019,-3.62045 4.8456,0.28526 7.9196,0.4563 12.8669,0.4563 h 17.4547 l 0.023,3.20446 h 4.0855 l -0.013,-0.81391 c 0.1398,-0.60444 0.2782,-1.39542 0.4025,-2.56263 l 3.236,0.2806 c 1.5805,0.22376 2.2494,0.67389 2.6076,3.09594 h 4.0354 l 0.058,-3.33727 c 2.0997,-0.12289 3.5004,0.086 5.3118,0.13126 l 3.8778,-0.13746 0.044,3.34347 h 4.2018 l -0.052,-3.48816 6.9195,-0.21291 3.2949,-0.0987 0.058,3.79977 h 4.2343 c 0.028,-1.26523 0.043,-2.70431 0.1194,-3.48041 6.2133,0.79776 24.1018,0.81899 31.4633,0.39687 1.4481,-0.0827 2.4445,-0.0674 3.0535,2.62775 0.034,0.1628 0.082,0.31358 0.1374,0.45579 h 3.3853 c -0.3681,-3.67113 1.0379,-3.48275 6.2673,-3.75784 0.2074,-0.0109 1.0437,-0.0231 1.7329,-0.0351 v -3.63433 c -0.4613,-0.0113 -1.8311,-0.0219 -2.0238,-0.031 -2.8318,-0.13406 -4.5333,0.0464 -5.9159,-0.59133 0.081,-3.01771 -0.085,-7.65687 -0.4092,-14.22342 l 0.248,-22.91953 7.2688,-0.28216 c 0.3406,-0.0132 0.6164,-10e-4 0.832,0.01 v -3.24577 c -0.2085,-0.0119 -0.6259,0.0367 -1.1009,0.0161 -8.0216,-0.34692 -6.8513,-0.79524 -6.9984,-3.98365 -0.2158,-4.68056 0.6615,-4.98725 3.9946,-5.29115 1.1515,-0.10493 2.0655,-0.0102 3.6193,-0.0626 0.1023,0.005 0.3944,-0.005 0.4854,-0.009 v -2.27185 c -0.149,0.0271 -0.4276,-0.0218 -0.6367,-0.005 -5.5923,-0.0953 -6.885,0.24808 -6.9164,-3.62352 l 0.3581,-5.44669 6.8007,-0.13695 c 0.1415,0.008 0.2701,0.002 0.3943,-0.009 v -3.1998 c -0.1242,-0.0267 -0.2557,-0.0423 -0.3943,-0.045 -5.3077,-0.35992 -6.2923,0.55059 -6.271,-3.42615 l -0.01,-4.94336 6.5231,-0.25368 c 0.036,0.002 0.1048,6.7e-4 0.1397,-3.3e-4 V 214.87 c -0.3208,0.004 -0.6029,0.0242 -0.86,0.0343 -3.5849,0.15467 -5.1882,-0.11817 -5.2898,-1.23909 0.1653,-12.69633 0.1593,-26.21617 0.1943,-39.51128 1.1206,0 5.9566,-3.3e-4 5.9566,-3.3e-4 v -2.97384 c 0,0 -3.539,-0.10449 -5.9445,-0.14338 0.042,-13.30861 0.1338,-26.34809 0.4915,-38.04057 l 4.6571,-0.26406 c 0.2912,-0.006 0.5492,0.006 0.796,-0.0281 v -3.16127 c -0.2447,-0.0244 -0.6822,-0.018 -0.9659,-0.007 l -3.9036,-0.11893 c -0.038,-3.996 0,-5.87051 0.5391,-9.08949 l 3.5466,-0.0961 c 0.3939,-0.0123 0.6515,8.2e-4 0.7886,-0.006 V 115.95 c -0.211,0.006 -0.6823,0.0236 -0.9764,0.0395 l -4.6187,-0.0398 0.053,-5.50819 c 0.029,-3.15782 1.5781,-2.79379 4.1835,-3.05511 0.2977,-0.0299 0.8771,-0.0327 1.323,-0.0233 l 0.041,-4.07437 c -0.2324,0.0251 -0.4464,-0.0657 -0.7002,-0.0587 -4.3872,-0.31375 -4.8787,-0.43861 -5.0049,-4.146002 -0.1125,-3.30663 0.4708,-3.45895 4.9003,-3.70692 0.325,-0.0279 0.5432,0.006 0.7847,-0.0287 v -3.22764 c -0.2344,-0.002 -0.5828,0.0153 -0.9235,0.005 l -4.9754,-0.0656 0.073,-4.87361 v -0.16588 c -0.012,-1.42576 -0.1537,-2.15952 -0.354,-5.5671 -0.2006,-3.40873 -0.4599,-7.40022 -0.7054,-11.14919 -0.4922,-7.51066 -0.8663,-12.23924 -1.0806,-15.09365 h -3.6897 c 0.2114,2.29046 0.7885,5.53994 0.7819,10.39988 0,1.18239 0.067,2.58125 0.1736,4.10052 0.1069,1.51949 0.2522,3.15811 0.4031,4.81677 0.3021,3.31793 0.6261,6.71499 0.7116,9.40252 l 0.1721,3.26027 0.026,4.84725 -4.8906,0.0899 c -5.7014,0.29479 -19.9089,0.72767 -31.3811,0.0816 l -0.2801,-2.92643 -0.5172,-15.41767 c 0.2405,-9.06552 0.1209,-15.40288 0.3069,-18.65467 h -4.2132 l 0.1654,15.40474 -0.123,4.46898 c -0.2112,7.63093 -0.1781,11.81048 -0.6175,14.15107 -0.5142,2.75152 -1.6838,2.92837 -4.778,2.63033 l -4.5424,-0.43563 -0.019,-2.14922 -0.057,-8.58242 c -0.013,-2.04706 -0.097,-4.36245 -0.1845,-6.68797 -0.121,-3.51816 -0.2293,-6.99123 -0.1148,-9.63352 h -0.045 c 0.026,-0.66381 0.065,-1.27871 0.125,-1.81436 l -0.01,-7.352 h -4.224 c -0.01,0.026 -0.018,0.0435 -0.026,0.0708 l 0.062,8.60465 c 0,0.12838 10e-5,0.35772 0.017,0.49092 0.06,4.79187 0.1708,12.54077 0.2124,17.66146 l 0.064,7.24245 0.021,2.32751 h -4.8866 -4.888 l -0.019,-2.32751 -0.1286,-15.82487 0.1622,-18.2454 h -3.9093 c -0.1804,2.23988 0.2783,6.2265 0.6501,18.59525 8e-4,0.0241 0,0.0333 0,0.0574 0.1297,4.31518 0.2177,7.5548 0.2315,10.01592 0.014,2.06707 -0.042,3.44674 -0.1473,4.55321 -0.025,0.27028 -0.036,0.62555 -0.069,0.8506 -0.3104,2.07303 -0.9784,2.3275 -2.2314,2.3275 -1.5135,0 -3.038,-0.471 -3.3889,-1.04696 -0.064,-0.10472 -0.1323,-0.71171 -0.2005,-1.28054 -0.1363,-1.13506 -0.2742,-3.31145 -0.4031,-5.78828 -0.1593,-3.1594 -0.311,-6.92205 -0.401,-11.15901 -2e-4,-0.0105 2e-4,-0.0179 0,-0.0284 l -0.1675,-7.92562 -0.1224,-9.17101 h -4.1755 l 0.1354,9.17101 0.049,6.18102 0.024,2.89853 0.1287,15.82436 0.02,2.32751 h -17.4546 c -6.0328,0.0838 -9.4287,0.11508 -13.0695,0.13487 -0.067,-17.74242 -0.1338,-36.10331 -0.1354,-36.5373 h -4.0681 c 0.01,3.35408 0.069,8.80021 0.1209,11.8339 0.016,0.95536 0.075,14.87981 0.1246,24.73803 -4.4809,-0.0136 -8.8897,-0.11313 -16.3437,-0.36174 -12.0884,-0.14828 -21.4787,0.61552 -21.2716,-1.60559 0.012,-0.11917 0.015,-0.40472 0.024,-0.53175 0.1016,-1.16123 0.1926,-2.76938 0.2553,-4.87205 0.01,-0.3173 0.021,-0.50667 0.028,-0.85266 0.063,-2.77665 0.065,-6.50616 -0.049,-11.81168 l 0.3111,-16.53646 h -3.9476 c 0.045,3.66306 0.8736,11.07493 0.1881,21.97902 0.056,5.42511 0.3416,6.55877 -0.1028,12.22044 -0.027,1.20187 -1.7448,0.71018 -4.4344,0.80202 -2.6682,0.0911 -2.7938,-0.323 -2.7202,-0.8754 -0.1238,-4.43331 0.1485,-8.14512 0.1473,-11.33729 0.01,-10.50487 1.1735,-19.37913 1.4087,-22.78879 h -5.2752 c 0.1939,3.34027 0.8858,8.94426 0.9467,16.11116 1e-4,0.0147 -3e-4,0.022 0,0.0367 l 0.1535,18.84949 h -4.1883 -4.1889 l -0.013,-0.93069 -0.1374,-17.07596 c -0.065,-8.01699 -0.4668,-13.92758 -0.5865,-16.99069 h -4.1517 l 0.054,5.01933 c 0.01,0.93242 0.067,2.71977 0.106,4.14187 0.022,0.77 0.042,1.70909 0.065,2.54454 0.016,0.55355 0.019,0.8358 0.035,1.41542 0.033,1.21925 0.057,2.50606 0.082,3.78375 0.039,2.14937 0.074,4.34288 0.053,6.47299 l -0.1127,11.61944 h -5.381 -5.3749 l -0.013,-0.93069 -0.139,-17.2253 -0.1514,-16.84135 z m 8.8646,40.58357 c 5.7712,0 6.2858,0.28288 6.3118,3.48919 0.025,3.206202 -0.4849,3.491262 -6.2544,3.491262 -5.7712,0 -6.2858,-0.28506 -6.3118,-3.491262 -0.025,-3.20631 0.4832,-3.48919 6.2544,-3.48919 z m 14.7097,0 c 3.895,0 4.2869,0.38151 3.9171,3.83904 -0.3227,3.018122 -1.2371,3.935062 -4.2587,4.282942 -2.5068,0.28861 -4.1387,-0.31985 -4.6979,-1.74666 -1.505,-3.840492 0.4982,-6.375322 5.0395,-6.375322 z m 97.8519,0 c 1.8743,0 2.6386,1.00136 2.6588,3.48919 0.022,2.737792 -0.6821,3.491262 -3.2681,3.491262 -2.764,0 -3.1949,-0.56508 -2.6592,-3.491262 0.412,-2.25168 1.5722,-3.48919 3.2685,-3.48919 z m 10.4025,0 c 4.6092,0 4.9513,0.28538 4.5713,3.83904 -0.3129,2.925862 -1.2567,3.937052 -3.9538,4.251932 -4.3018,0.50213 -5.5366,-0.56984 -5.5712,-4.832772 -0.023,-2.80408 0.6679,-3.2582 4.9537,-3.2582 z m 13.9635,0 c 4.6089,0 4.9473,0.28538 4.5671,3.83904 -0.3422,3.199502 -1.1657,3.912112 -4.9439,4.276742 -4.2225,0.40757 -4.5368,0.14543 -4.5692,-3.83904 -0.033,-3.972552 0.3209,-4.276742 4.946,-4.276742 z m -110.8682,0.0532 c 2.1703,0 2.8002,0.93096 2.8267,4.188892 0.026,3.25794 -0.5852,4.1889 -2.757,4.1889 -2.172,0 -4.4265,-0.98419 -4.4529,-4.242122 -0.026,-3.25794 2.2112,-4.13567 4.3832,-4.13567 z m 76.3323,0.0476 c 1.4854,0.0778 1.6397,0.89523 1.6572,3.05769 0.016,1.936482 -0.9631,3.904682 -2.174,4.370792 -1.2111,0.46611 -11.3657,0.84905 -17.4465,0.84905 -4.1712,0.0681 -7.7182,0.0584 -10.9383,0.0176 -0.014,-3.64771 -0.015,-3.97743 -0.028,-7.794362 8.295,-0.0283 17.0373,-0.0913 25.3293,-0.10284 1.2224,-0.20231 2.1595,-0.34242 2.8793,-0.3886 l -5e-4,0.001 c 0.27,-0.0173 0.5092,-0.0214 0.7214,-0.0103 z m 43.6903,0.25579 17.6103,0.13075 c 9.4108,0.31321 17.5368,-0.28022 18.4284,0.2682 0.8872,0.5482 0.943,2.59799 0.5539,4.133082 -0.5626,2.22026 -1.7402,2.50479 -5.7841,2.50165 -3.1054,0 -10.0874,0.44566 -17.1928,0.19224 -12.8408,-0.45794 -13.7194,0.66846 -13.7485,-2.91662 z m -105.9325,0.25942 c 1.4178,0.0105 3.0079,0.0463 4.7878,0.10284 8.8262,-0.0712 16.4697,-0.0683 24.5768,-0.10077 0.016,3.35072 0.024,4.037992 0.039,7.696682 -6.9782,-0.15257 -12.6417,-0.39437 -19.5999,-0.24546 -15.5784,0.32777 -18.2763,0.8071 -18.2893,-2.41742 -0.019,-4.574902 -1.7791,-4.690922 4.7367,-4.980582 1.086,-0.0492 2.3313,-0.0647 3.7491,-0.0553 z m 56.7355,10.549742 -5e-4,0.002 c 5.4001,0.0649 7.2386,1.21667 7.2626,4.18682 l 0.035,4.1889 h -17.2217 c -5.8334,0.18399 -9.8115,0.2209 -13.4276,0.21859 -0.01,-2.95111 -0.018,-4.38499 -0.03,-7.92975 7.4846,-0.37322 14.3519,-0.73365 23.382,-0.66663 z m -96.7051,0.002 c 6.318,0 6.3667,0.0378 5.9686,4.43022 -0.438,4.8322 -0.9877,5.1403 -7.7314,4.3217 -3.9667,-0.48171 -4.5463,-1.06883 -4.5754,-4.65088 -0.031,-3.93724 0.2199,-4.10104 6.3382,-4.10104 z m 122.1399,0.11679 c 0.4672,0 0.9771,0.0343 1.5301,0.11214 2.5877,0.36568 3.4083,1.45329 3.7795,5.00486 0.4386,4.19455 0.1629,4.53874 -3.6509,4.53874 -3.2965,0 -4.3159,-0.74346 -5.0803,-3.69383 -1.0153,-3.91862 0.1508,-5.9372 3.4216,-5.96191 z m -9.5638,0.0925 c 0.2384,-0.002 0.46,0.0145 0.6666,0.0522 v 5.2e-4 c 1.2397,0.22693 1.9359,1.19767 2.4588,3.21531 0.5174,1.99637 0.9897,4.96197 0.1287,4.96197 -1.2519,2.05272 -6.2252,1.57769 -7.1097,-0.67955 -1.3929,-3.55439 0.05,-7.05185 3.0887,-7.48791 0.2737,-0.0392 0.5285,-0.0603 0.7669,-0.0625 z m 62.9383,0.47801 c 6.46,0.0105 6.6342,0.11972 6.6678,4.2664 l 0.032,4.25866 -17.2992,0.71985 c -9.5979,-0.16284 -17.9196,0.46602 -18.3095,0.0775 -0.3899,-0.38673 -0.7238,-2.57615 -0.7425,-4.86585 l -0.032,-4.16409 12.3269,-0.25373 c 6.3395,0.49323 13.7089,-0.0388 17.3566,-0.0388 z m -162.3136,0.0103 c 2.7076,0 3.5725,0.80785 3.9269,3.66334 0.3717,2.99656 -0.2142,3.78959 -3.2174,4.3646 -3.9114,0.74884 -5.4633,-1.08628 -4.6488,-5.50199 0.3004,-1.6284 1.7004,-2.52595 3.9393,-2.52595 z m 56.1909,0.14315 c 0.011,3.04985 0.014,4.67565 0.023,7.74164 -5.3363,-0.0607 -10.4804,-0.2067 -19.866,-0.2067 l -17.925,0.0537 -0.028,-3.48971 -0.028,-3.49126 17.9255,-0.0532 c 8.0863,-0.0408 14.2037,-0.28747 19.8991,-0.55448 z m 67.3643,0.55655 c 4.4988,0 4.8915,0.33259 4.9227,4.18889 0.032,3.85641 -0.3566,4.18889 -4.8555,4.18889 -4.4991,0 -4.8877,-0.33248 -4.9191,-4.18889 -0.031,-3.8563 0.3528,-4.18889 4.8519,-4.18889 z m -110.7741,0.0532 c 2.0478,0 2.7996,0.93139 2.8205,3.49126 0.02,2.55977 -0.716,3.48971 -2.7637,3.48971 -2.0479,0 -4.4255,-0.98472 -4.4462,-3.54449 -0.021,-2.55988 2.3415,-3.43648 4.3894,-3.43648 z m 57.1252,11.35486 c 1.0493,0.008 2.0854,0.0267 3.1058,0.0579 l -6e-4,5.1e-4 17.1292,0.40256 0.4744,3.83905 0.4729,3.83904 h -17.5902 c -2.2549,0 -7.45,0.29529 -13.2984,0.54002 0,-1.46241 -0.021,-5.84154 -0.03,-8.53075 3.3213,-0.10343 6.589,-0.17283 9.7369,-0.14831 z m -13.685,0.29559 c 0.01,2.97111 0.012,5.69766 0.017,8.52248 -3.7536,0.12504 -7.5424,0.21481 -10.9323,0.14727 -4.4319,-0.088 -26.3037,0.80206 -27.4706,-0.3576 -0.5161,-0.51198 -0.9507,-2.39703 -0.9653,-4.18889 -0.025,-3.13646 0.3817,-3.2582 10.9383,-3.2582 9.5648,0.0513 19.2011,-0.50242 28.4127,-0.86506 z m 94.4728,0.5519 c 9.8098,-0.0524 18.1318,0.23907 18.7105,0.57103 0.5785,0.33175 -0.1714,2.24268 -0.1576,4.11706 0.027,3.39649 1.2186,3.30187 -12.3496,3.06803 -23.025,-0.39699 -24.0906,1.45168 -24.1303,-3.44837 l -0.035,-4.21163 z m -163.7781,0.3111 c 6.1318,0 6.3609,0.14631 5.9661,3.83904 -0.3675,3.43575 -1.0357,3.88436 -6.3423,4.26847 -5.7776,0.41815 -5.9303,0.31979 -5.964,-3.83904 -0.034,-4.13801 0.16,-4.26847 6.3402,-4.26847 z m 13.2659,0 c 3.8501,0 4.2384,0.38894 3.8694,3.83904 -0.3209,3.01582 -1.2327,3.93589 -4.2457,4.28294 -3.4468,0.39699 -3.8409,0.0104 -3.8721,-3.84111 -0.031,-3.84699 0.4012,-4.28087 4.2484,-4.28087 z m 99.042,0 c 3.7233,0 4.1932,0.46547 4.2235,4.18889 0.028,3.45742 -0.536,4.18889 -3.2251,4.18889 -1.792,0 -3.6791,-0.41872 -4.1951,-0.93069 -0.5161,-0.51198 -0.9508,-2.39704 -0.9653,-4.1889 -0.022,-2.68909 0.7046,-3.25819 4.162,-3.25819 z m 11.02,0 c 3.922,0 5.7507,2.02308 5.7862,6.39754 0.012,1.33225 -1.5845,1.98024 -4.8721,1.98024 -4.4975,0 -4.8871,-0.33259 -4.9186,-4.18889 -0.029,-3.68897 0.447,-4.18889 4.0045,-4.18889 z m 10.5745,0.12867 c 0.6233,-0.0293 1.4357,0.0297 2.4934,0.13126 3.784,0.36463 4.6185,1.07889 5.0126,4.27829 0.4378,3.55366 0.1039,3.83956 -4.5056,3.83956 -4.625,0 -4.9829,-0.3041 -5.0152,-4.27674 -0.024,-2.98828 0.1447,-3.88367 2.0148,-3.97237 z m -109.0052,0.0274 c 0.2685,-0.0142 0.5061,-0.009 0.7161,0.0222 v -5.2e-4 c 1.2607,0.17205 1.5325,1.1784 1.5546,3.91294 0.029,3.67033 -0.4799,4.28708 -3.5487,4.28708 -3.085,0 -3.5258,-0.53294 -3.1724,-3.83904 0.2941,-2.74921 1.302,-3.96757 3.5487,-4.28708 0.3337,-0.0476 0.6332,-0.0814 0.9017,-0.0956 z m 54.929,10.37301 h 5e-4 c 2.7218,-0.0105 5.7678,0.0527 9.6474,0.22324 l 14.5464,0.64027 0.092,10.01179 c -0.3231,12.03722 -0.5162,20.1944 -0.6139,28.11457 -12.1651,-0.14829 -27.9616,-0.34108 -30.086,-0.35605 -0.019,-1.1e-4 -0.2908,0 -0.3111,0 0.088,-17.00074 0.2046,-33.9945 0.2046,-35.50016 0,-0.12347 -0.01,-2.66583 -0.01,-2.98638 2.1529,-0.0733 4.224,-0.14141 6.5304,-0.14728 z m -10.5012,0.27027 v 0 c 0.014,12.35253 -2e-4,22.9904 -0.096,25.7483 -0.069,1.90904 -0.034,6.92688 0.028,12.64625 -4.1388,0.0105 -21.9368,0.16226 -36.5005,0.28215 -0.4102,-7.5261 -0.8749,-14.66297 -1.2047,-20.91913 l -0.141,-17.38964 h 18.8494 c 9.0598,0 14.4237,-0.19357 19.064,-0.36793 z m -60.2522,0.18603 3.8431,0.44183 3.8432,0.44184 0.5359,17.80201 c -0.043,7.82078 -0.049,13.80599 -0.073,19.92592 -4.0192,0.0367 -4.8307,0.0439 -8.801,0.0816 0.094,-3.30045 0.1904,-6.37689 0.2822,-10.80968 0.1625,-5.87739 0.4826,-12.20534 0.448,-18.22369 z m 107.5139,0 0.09,11.05721 c 0.049,6.08118 -7e-4,14.58294 -0.2697,19.74918 -0.1373,2.61989 -0.1826,5.25054 -0.2476,7.87859 -3.8532,-0.0461 -4.8442,-0.0563 -8.4573,-0.10025 0.1287,-3.65368 0.2742,-7.09368 0.3762,-12.40286 -0.8053,-27.15572 0.3835,-25.2469 4.6695,-25.74055 z m -111.7027,0.017 0.1457,18.07229 c -0.1167,8.23955 -0.2065,14.30473 -0.2827,20.64938 -4.5161,0.044 -5.1434,0.0713 -9.2284,0.11472 -0.6704,-9.83915 -1.6387,-19.54834 -1.4687,-28.19673 l 0.3684,-9.77253 5.2318,-0.43356 z m 130.8178,0.0879 h 5e-4 c 1.0539,-0.0377 2.3208,0.35448 3.8163,0.92656 1.8676,0.7145 0.7763,3.91791 0.9044,19.68201 -0.1391,6.43387 -0.307,12.2526 -0.4626,18.22989 -2.8742,-0.0304 -5.5079,-0.0568 -8.5432,-0.0904 0.044,-6.44519 0.046,-12.89082 -0.019,-20.05408 -0.1319,-14.5997 1.1419,-18.58053 4.3036,-18.69395 z m -111.8444,0.29094 c 0.1591,-2.7e-4 0.3163,0.008 0.4692,0.0264 v -5.2e-4 c 0.6119,0.0712 2.5454,0.0253 2.8737,0.36432 0.6564,0.67795 0.3169,9.19054 0.9411,18.59783 0.4876,7.78864 0.6555,13.53483 0.7668,19.13785 -3.3728,0.0283 -4.6689,0.0327 -8.1828,0.0641 -0.1113,-5.6891 -0.2254,-11.2659 -0.3277,-19.59415 -0.1185,-14.59846 0.2171,-17.63722 2.0371,-18.3379 0.4501,-0.17318 0.9452,-0.25706 1.4227,-0.25787 z m 96.2246,0.48628 h 4.1889 c 4.1337,0 3.1333,-0.2519 4.0784,8.70489 0.5267,4.99168 0.083,14.00088 0.1762,19.56935 0.062,3.7074 0.071,6.71862 0.051,9.66814 -3.6707,-0.0408 -5.5455,-0.0583 -9.2428,-0.10231 0.015,-2.63119 0.046,-5.18969 0.01,-8.07703 -0.06,-4.82915 0.18,-13.53175 0.3783,-19.29133 z m 62.5766,0.60306 v 0.004 c -0.3412,14.48043 -0.4039,26.18744 -0.4811,37.56618 -4.6465,-0.044 -9.5687,-0.047 -11.7115,0.0734 -1.4546,0.0827 -13.0976,-0.0137 -26.8649,-0.15141 0.2278,-5.17557 0.5285,-10.73684 1.0164,-17.78186 l 1.3033,-19.62878 h 12.3698 c 8.2788,0.36264 16.1727,0.21849 24.368,-0.0816 z m -168.274,39.79602 c 1.0142,2.1e-4 1.803,0.0103 2.8143,0.0103 -0.027,5.61863 -0.064,11.26951 -0.1778,18.90892 -0.1554,10.36443 -0.5713,19.31819 -0.9245,19.89698 -0.8748,1.43445 -7.1183,1.3357 -8.034,-0.12713 -0.4064,-0.64864 -0.4235,-9.79192 -0.028,-20.31814 0.071,-8.41643 0.1892,-13.60397 0.3193,-18.3503 2.7825,0 3.1965,-0.0191 6.0312,-0.0191 z m 6.3856,0.0165 c 2.9179,0 5.4527,0.0149 8.2079,0.0233 0.096,5.63383 0.1525,11.21379 0.4335,18.88619 l 0.1576,19.54919 h -5.0828 -5.0804 l 0.8221,-7.3303 c 0.4515,-4.03171 0.7785,-12.82975 0.7344,-19.54919 -0.063,-4.95891 -0.1267,-8.09104 -0.1923,-11.57862 z m -16.0578,0.015 c -0.077,6.20811 -0.1384,12.67506 -0.278,20.28714 -0.6437,17.58841 -0.8801,18.87604 -3.5362,19.2567 -1.5657,0.22431 -3.2949,-0.0367 -3.8437,-0.58084 -0.5487,-0.54433 -1.0692,-9.68244 -1.1555,-20.30574 0.4024,-6.08515 0.1505,-12.36523 -0.231,-18.62883 3.4693,-0.0105 4.9992,-0.0221 9.0444,-0.0284 z m 28.1843,0.0186 c 11.0769,0.044 20.4,0.11864 21.7909,0.27802 1.2332,0.14137 7.1626,0.2621 14.6095,0.37258 0.1599,12.13409 0.4092,26.33056 0.5952,38.0752 -4.338,-0.1864 -9.5214,-0.30282 -17.9843,-0.30282 h -18.1524 l -0.1592,-19.72283 c -0.1095,-6.31628 -0.3849,-12.5952 -0.6997,-18.70015 z m 40.1835,0.69763 c 10.7803,0.14314 19.6182,0.21516 30.4143,0.31264 -0.053,6.19544 -0.085,12.14043 -0.022,20.67006 0.032,4.47896 -0.4303,15.61346 -0.7221,18.8004 -1.1511,0.0723 -9.7051,-0.12874 -16.6201,-0.56637 -5.2069,-0.4505 -8.7504,-0.79493 -13.0204,-1.04542 -0.1323,-5.37358 -0.1104,-21.19007 -0.03,-38.17131 z m 109.073,0.24133 c -0.092,12.67224 -0.2331,25.08559 -0.8325,40.37635 l -19.0847,-0.11059 h -19.5471 c 0.3223,-18.88704 0.3728,-28.89378 0.7875,-40.04717 15.5301,-0.0785 29.0987,-0.16131 38.6768,-0.21859 z m -74.5598,0.11214 c 2.7703,0.0251 6.3137,0.0664 8.445,0.0884 -0.1992,12.06194 -0.035,24.68172 -1.2743,40.07353 l -6.2747,-0.29869 c -0.4074,-3.2549 -0.9731,-14.26475 -1.0515,-23.56187 -0.062,-7.32945 0.025,-11.98815 0.1555,-16.30082 z m 11.7363,0.12092 c 1.2662,0.0147 5.0571,0.0479 5.876,0.0615 0.4914,0.0105 2.6467,-0.0186 3.3032,-0.0145 -0.1718,8.78598 -0.7307,17.71032 -1.8842,39.2963 l -4.532,0.43564 -4.5346,0.4377 c 0.9294,-17.42558 1.5983,-28.2472 1.7715,-40.21667 z m 20.5408,0 c -0.3458,12.71937 -0.7458,25.38188 -1.3704,40.04097 h -4.1889 -4.1884 c 0.7959,-16.73286 1.1327,-28.62101 1.2599,-40.00635 2.0208,0.0105 5.6786,-0.0241 8.4878,-0.0346 z m -139.5,41.43571 c 3.9845,0 4.2512,0.31142 3.8778,4.53874 -0.3337,3.78112 -1.0414,4.61186 -4.2379,4.98006 -3.5502,0.40893 -3.8389,0.0704 -3.8763,-4.53822 -0.038,-4.62505 0.2638,-4.98058 4.2364,-4.98058 z m 11.081,0 c 3.8564,0 4.191,0.38952 4.2277,4.88859 0.034,4.18879 -0.4227,4.88601 -3.2153,4.88601 -4.2288,0 -5.1291,-1.01205 -5.1682,-5.8167 -0.028,-3.46475 0.4873,-3.9579 4.1558,-3.9579 z m 13.2659,0 c 4.6542,0 4.8874,0.23443 4.9253,4.88859 0.038,4.65416 -0.191,4.88601 -4.8453,4.88601 -4.6542,0 -4.8917,-0.23185 -4.9294,-4.88601 -0.038,-4.65416 0.1953,-4.88859 4.8494,-4.88859 z m 9.0754,0 h 18.1518 c 9.7507,0.0419 13.2362,0.13257 17.9927,0.21498 0.062,4.42839 0.1379,9.37961 0.1168,10.96109 -3.4556,-0.044 -6.9437,-0.10891 -12.7857,-0.19844 -14.4099,-0.22107 -23.5148,-1.36348 -23.4575,-2.94349 0.021,-0.57596 0.026,-2.6184 0.013,-4.53823 z m 39.3526,0.25167 v 0 c 1.6721,0.0241 4.3134,0.0671 6.2874,0.0755 2.784,0.0178 6.4287,0.1643 10.2588,0.43563 l 13.9268,0.98805 0.03,3.84524 c 0.023,2.80828 -0.8138,4.07287 -3.1027,4.68757 -1.7241,0.46307 -8.6326,0.84993 -15.352,0.86145 -5.1815,0.0806 -8.4762,0.0815 -11.9445,0.0553 -0.019,-4.92874 -0.045,-9.31495 -0.1049,-10.94868 z m 37.8535,1.17822 c 1.6652,0.14011 3.4778,1.79689 4.0375,4.85345 0.3951,2.15838 -0.3587,2.89397 -3.3238,3.23546 -3.4469,0.39699 -3.8425,0.0109 -3.8737,-3.84059 -0.025,-3.01153 1.4949,-4.38844 3.16,-4.24832 z m 31.8069,0.19637 h 18.8495 18.8495 l -0.049,5.35678 0.035,4.18889 -8.03,-0.28267 c -30.4655,-1.06605 -29.4445,0.94939 -29.5651,-2.77141 z m -19.2345,0.53382 c 1.9708,0.0356 2.4018,1.17566 2.4277,4.35632 0.021,2.48206 -0.7492,3.2582 -3.2313,3.2582 -3.8795,0 -5.128,-1.0311 -5.1542,-4.25814 -0.012,-1.442 1.357,-2.66007 3.4339,-3.05769 1.0417,-0.19939 1.867,-0.31052 2.5239,-0.29869 z m 10.775,0.63407 c 3.5371,0 4.1934,0.54154 4.2174,3.48919 0.024,2.94766 -0.6234,3.49126 -4.1605,3.49126 -3.5372,0 -4.1934,-0.5436 -4.2173,-3.49126 -0.024,-2.94765 0.6232,-3.48919 4.1604,-3.48919 z m -134.6594,9.77253 c 3.0584,0 3.4936,0.60619 3.5284,4.88807 0.034,4.28189 -0.392,4.88653 -3.4504,4.88653 -3.0585,0 -3.4958,-0.60464 -3.5305,-4.88653 -0.035,-4.28188 0.394,-4.88807 3.4525,-4.88807 z m 11.8669,0 c 3.9561,0 4.1912,0.31087 4.2339,5.5857 0.045,5.61204 -0.4903,6.03125 -5.8963,4.62246 -1.7313,-0.45145 -2.4598,-2.03975 -2.4872,-5.42241 -0.036,-4.38524 0.3104,-4.78575 4.1496,-4.78575 z m 10.4723,0.89762 c 0.6843,-0.0105 1.594,0.0941 2.8019,0.23513 4.5147,0.52674 4.894,0.93254 4.9294,5.30355 0.037,4.47959 -0.2236,4.73511 -4.8478,4.73511 -4.7275,0 -4.8892,-0.17393 -4.931,-5.30562 -0.031,-3.93024 -0.012,-4.94419 2.0475,-4.96817 z m 125.1623,0.27698 c 3.2335,0.0491 8.1599,0.22221 13.7754,0.22221 l 19.1255,0.1819 0.035,4.24212 0.03,4.24005 -18.342,-0.52141 c -16.1634,-0.45992 -17.4212,-0.53624 -18.1566,-3.19309 -0.4346,-1.56912 -0.4519,-4.34519 -0.4681,-4.92115 0,-0.14399 0.4805,-0.21748 1.3663,-0.24701 v 0 c 0.6643,-0.0223 1.554,-0.02 2.6318,-0.004 z m -114.6803,0.22221 h 16.6428 c 7.7003,0.26462 14.4159,0.38368 20.9093,0.42117 -0.034,0.77879 -0.1369,6.91213 -0.1948,9.41492 -5.2,-0.0105 -10.6977,-0.062 -18.4299,-0.062 h -18.8495 l -0.039,-4.88807 z m 79.5869,0 c 3.7235,0 4.1937,0.46548 4.224,4.18889 0.029,3.72332 -0.4329,4.1889 -4.1563,4.1889 -3.7233,0 -4.1912,-0.46558 -4.2215,-4.1889 -0.029,-3.72341 0.4305,-4.18889 4.1538,-4.18889 z m 10.4722,0 c 2.9477,0 3.4973,0.65167 3.5259,4.18889 0.029,3.53712 -0.5106,4.1889 -3.4582,4.1889 -2.9477,0 -3.4935,-0.65178 -3.5223,-4.1889 -0.029,-3.53722 0.507,-4.18889 3.4546,-4.18889 z m -24.2342,0.0775 c 5.2334,0.10811 6.1459,1.28468 6.5175,4.26485 0.4372,3.5078 0.1584,3.64663 -9.0398,4.51601 -5.2196,0.49323 -12.4771,0.81383 -16.1236,0.90588 -2.2583,0.0565 -4.3198,0.0361 -6.4161,0.0476 0,-3.10463 0.015,-6.65161 0.011,-9.35757 7.4486,0 14.636,-0.12562 22.533,-0.35967 v -5.2e-4 c 0.935,-0.026 1.7711,-0.032 2.5187,-0.0165 z m 33.9618,0.0512 c 0.6234,-0.0293 1.4353,0.0317 2.4929,0.13332 3.7843,0.36463 4.6191,1.07724 5.0131,4.27674 0.4378,3.55356 0.1027,3.83905 -4.5057,3.83905 -4.6251,0 -4.9808,-0.3041 -5.0131,-4.27675 -0.024,-2.98849 0.1428,-3.88366 2.0128,-3.97236 z m -9.6356,11.04222 c 3.1416,0 3.4958,0.55709 3.5367,5.58364 0.037,4.48493 -0.4584,5.5857 -2.514,5.5857 -3.6071,0 -4.4321,-1.20072 -4.4752,-6.5164 -0.034,-4.0337 0.4272,-4.65294 3.4525,-4.65294 z m 12.4173,0 c 5.0044,0 6.4465,1.72964 6.4958,7.7928 0.025,3.00839 -0.5811,3.37654 -5.5573,3.37654 -5.4142,0 -5.9382,-0.42787 -5.9743,-4.88652 -0.047,-5.76179 0.3728,-6.28282 5.0358,-6.28282 z m 9.0646,0 25.2372,0.2005 c 10.2521,0.26023 10.3609,-1.17646 10.3818,5.01468 0.016,4.66893 -0.2561,5.16208 -1.5358,5.16041 -13.5546,0.79356 -24.1838,0.23889 -33.0585,0.10852 l -0.5483,-4.55063 z m -143.6951,0.17725 c 0.3197,-0.0106 0.6097,-0.004 0.8733,0.0191 v -0.002 c 1.5815,0.15321 2.2246,1.03026 2.788,3.20497 0.5092,1.9657 0.5718,4.51996 0.1385,5.67356 -1.0017,2.66711 -7.6896,2.74206 -8.7251,0.1049 -1.7419,-4.44535 0,-8.47159 3.8721,-8.9178 0.384,-0.0445 0.7334,-0.0721 1.0532,-0.0827 z m 8.4553,0.0356 c 0.4296,-0.0115 0.9891,0.10952 1.712,0.30283 1.7316,0.46307 3.9342,0.84942 4.8943,0.86093 2.5913,0.0283 2.2462,7.93128 -0.3907,8.94622 -5.7534,2.21472 -7.5585,1.05253 -7.6067,-4.90048 -0.032,-3.95956 0.1018,-5.17578 1.3911,-5.2095 z m 103.2903,0.48473 c 2.9176,0 3.5691,0.74372 3.9657,4.53667 0.4438,4.24534 0.1921,4.53874 -3.8923,4.53874 -4.0827,0 -4.3385,-0.2934 -3.9636,-4.53874 0.3348,-3.79295 0.9726,-4.53667 3.8902,-4.53667 z m -14.2694,0.0858 c 3.5646,0.0421 6.0437,0.25893 6.4255,0.62477 0.6784,0.65031 0.8401,2.79728 0.3601,4.77335 -0.8652,3.56864 -0.9681,3.59358 -15.2745,3.59358 -6.6168,0.0901 -11.3451,0.0808 -16.1783,0.062 0.01,-2.95864 0.01,-5.61575 0.012,-8.42894 5.1657,-0.0555 9.9135,-0.14005 14.843,-0.40049 2.0631,-0.10902 4.067,-0.1768 5.9231,-0.21084 v 0.004 c 1.392,-0.0257 2.701,-0.0311 3.8892,-0.0171 z m -72.9899,0.61857 c 4.4991,0 4.8899,0.33249 4.9212,4.18837 0.031,3.85631 -0.3544,4.18889 -4.8535,4.18889 -4.499,0 -4.8898,-0.33258 -4.9211,-4.18889 -0.031,-3.85588 0.3543,-4.18837 4.8534,-4.18837 z m 44.8759,0.0579 c -0.057,2.58933 -0.1076,4.97201 -0.1737,8.38346 -4.9949,-0.0293 -10.0284,-0.0734 -17.2439,-0.0734 -17.2929,0 -18.0198,-0.11797 -18.8066,-3.03547 -0.4499,-1.66819 -0.5696,-3.44189 -0.2661,-3.9393 0.3032,-0.49731 8.7538,-0.90581 18.774,-1.11672 6.9825,-0.14692 12.4968,-0.17367 17.7163,-0.21859 z m 40.9535,10.55491 c 0.3513,0.0215 0.7486,0.0622 1.1984,0.11317 l 3.8432,0.44183 0.067,13.82603 c 0.022,4.44022 -0.626,14.6225 -0.6465,17.64492 -0.041,6.11741 -0.4866,6.87441 -3.7062,6.87452 -1.6608,0 -2.6559,-0.0906 -3.2458,-1.06609 0.1815,-3.64718 0.2521,-7.97464 0.1049,-12.12019 -0.3277,-8.98987 -0.1954,-15.69092 -0.2191,-18.62057 0.2075,-2.07177 0.058,-6.89603 1.6836,-7.09311 0.2641,-0.0246 0.5691,-0.022 0.9203,-5.1e-4 z m -76.9999,0.555 h 18.3198 c 6.8318,0.30275 12.2233,0.29234 17.4914,0.29611 -0.3063,16.28957 -0.5076,28.76452 -0.5906,37.02461 -6.1078,-0.28055 -11.7567,-0.5379 -19.4779,-0.96945 l -16.5318,-0.91674 -0.01,-0.76688 c 0.27,-3.18913 0.2558,-7.95466 0.4176,-15.95148 z m 69.5983,0.11007 c 0.236,-0.0137 0.3779,-0.008 0.415,0.0248 0.2948,0.25719 0.3714,8.2293 0.7524,15.32154 -0.1438,0.70288 -0.2142,2.31574 -0.1964,5.46685 l -0.9653,17.65939 -17.109,-0.40101 c -4.5293,-0.25876 -9.0675,-0.46423 -13.178,-0.65681 0.051,-6.75986 0.1242,-19.37002 0.172,-37.19773 4.6098,0.023 9.2897,0.0898 14.9655,0.45786 7.2273,0.46813 13.4918,-0.57924 15.1438,-0.6749 z m -77.6526,0.0693 c 0.2763,-0.007 0.5501,-0.003 0.818,0.0129 1.608,0.0932 3.0062,0.58101 3.4443,1.28054 0.5828,0.93127 0.3293,12.43735 -0.1308,24.79125 -0.1456,0.75608 -0.2888,1.56402 -0.4129,2.52388 -0.7247,5.6001 -2.2712,6.8988 -4.4059,6.8988 -1.4486,0 -2.7559,-0.79978 -3.5094,-2.79207 0.2424,-2.57632 0.2499,-6.93496 -0.1534,-13.86479 l -0.5158,-18.33222 4.0334,-0.46043 c 0.2773,-0.0319 0.5562,-0.0507 0.8325,-0.0579 z m 97.471,0.37724 c 3.0303,0 4.2807,0.1549 4.2442,13.68908 -0.031,11.58567 0.2697,23.64788 -1.4826,23.60683 l -6.8766,-0.16123 c -0.1759,-5.59475 -0.3006,-15.04283 -0.3596,-22.333 -0.1074,-13.21846 0.9954,-14.80168 4.4746,-14.80168 z m 6.905,0.14107 h 5.9113 5.9108 c -2e-4,2.01429 1.4627,37.98018 -1.1597,38.22041 -6.8523,-0.22054 -10.2924,0.36113 -10.9874,-2.64015 0.04,-2.83947 0.4502,-7.50211 0.2207,-12.9713 z m 15.1319,0.0667 c 11.34,0.3313 22.7045,0.0233 34.0316,0.6997 -0.073,1.4311 -0.2903,10.80642 -0.229,17.09663 0.055,5.79476 0.3934,9.79474 0.6462,13.67765 0.095,1.45421 0,3.61194 0.012,4.90209 0.1185,3.15835 -23.0874,0.43762 -34.0708,1.54409 l -0.5788,-3.99252 c 0.1629,-2.76848 0.1884,-5.91794 0.17,-9.67434 -0.039,-7.96939 -0.5311,-24.22628 0.019,-24.2533 z m -150.2016,0.62993 h 4.7573 4.7573 l 0.2966,18.68413 c 0.061,3.84437 0.04,8.36162 0.1122,11.92847 -0.3468,3.75065 0.8072,5.41402 -4.561,4.80643 -2.0251,-0.22923 -5.7022,0.73928 -5.7697,-0.72244 -0.067,-1.44649 0.029,-2.66887 0.039,-3.68969 0.019,-2.07887 0.1049,-9.9058 0.1985,-17.39326 z m 12.3434,0 h 4.794 4.794 l 0.1008,10.67687 c 0.5444,5.87446 0.4684,15.77762 0.4951,19.07222 9e-4,0.12503 0.024,0.22182 0.03,0.33951 -0.4468,3.78688 -0.4017,4.20337 -3.6752,4.20337 -3.3111,0 -5.323,-0.52561 -5.8131,-3.82303 v -0.44751 z" transform="translate(396.7881,-64.147735) translate(-2522.5328,8.9377293)"/>
</svg>