<?xml version="1.0" ?><svg xmlns="http://www.w3.org/2000/svg" width="243.41666mm" height="243.41666mm" viewBox="0 0 243.41666 243.41666">
    <path d="m 20402.115,8330.2938 v 920 h 920 v -920 z" fill="#fff" paint-order="fill markers stroke" transform="translate(-109.85103,248.81423) matrix(0.26458333,0,0,0.26458333,-5288.2085,-2452.8711)"/>
    <path d="m 20424.238,8330.2938 c 5.794,22.5357 26.238,43.5493 30.614,48.5549 5.098,5.8329 4.713,10.0636 -1.405,14.9778 -6.118,4.9144 -9.056,21.9722 -9.197,26.0122 -0.181,5.1901 0.57,14.5665 -4.834,15.5311 -5.405,0.9644 -13.462,-5.8338 -23.761,-12.9526 -3.814,-2.6368 -8.491,-4.9714 -13.386,-6.2667 v 18.2139 c 10.384,1.4154 18.519,8.9136 22.817,12.3958 5.558,4.501 21.925,7.0264 28.299,3.5819 6.373,-3.4447 5.149,-27.282 8.157,-36.3299 3.008,-9.0479 12.393,-16.5329 22.845,-27.7393 10.452,-11.2061 -14.99,-24.3891 -25.137,-32.5643 -5.919,-4.7696 -10.31,-14.1079 -12.795,-23.4148 z m 55.446,0 c 2.593,5.6497 5.171,11.1162 7.966,15.6998 8.566,14.0543 26.305,23.6807 37.573,25.1963 11.268,1.5156 30.793,-20.4763 35.323,-26.8089 0.172,-0.2391 0.253,-0.4838 0.275,-0.7296 4.888,-5.454 8.936,-10.254 11.467,-13.3576 h -30.412 c -3.215,3.8571 -5.492,6.7028 -8.374,10.3252 -5.088,3.179 -13.477,4.3218 -19.136,-0.5043 -1.908,-1.628 -5.452,-5.3537 -9.373,-9.8209 z m 266.406,0 c -9.517,22.9195 -39.291,27.7779 -90.081,29.1606 -55.432,1.5089 -73.363,6.2037 -86.363,22.6103 -13.358,16.8566 -5.023,43.8178 16.824,54.4283 5.093,2.4729 29.84,5.5483 54.982,6.8317 49.724,2.538 51.256,3.2901 65.09,32.0298 l 5.416,11.2555 -14.2,-3.2048 c -34.212,-7.7232 -90.377,2.5235 -99.886,18.2241 -2.388,3.9433 -4.343,15.0459 -4.343,24.6713 0,27.4681 -22.825,37.5467 -50.5,22.297 -31.74,-17.4919 -53.261,-41.171 -67.776,-74.5745 -0.822,-1.8945 -1.407,-3.5531 -2.064,-5.2826 v -0.032 c 0,-0.024 -0.02,-0.045 -0.03,-0.07 -0.174,-0.4603 -0.351,-0.9263 -0.544,-1.4026 h -0.02 c -0.412,-1.0351 -0.821,-2.0807 -1.244,-3.0737 -3.201,-7.5469 -8.858,-8.8144 -14.702,-8.7163 -3.507,0.059 -7.079,0.608 -10.234,0.5907 -5.623,-0.031 -26.318,1.2541 -44.134,2.7677 v 20.2887 c 17.502,-2.0393 35.204,-5.1027 41.689,-5.4643 10.197,-0.5688 11.681,8.7129 15.274,15.7899 l 9.14,24.8006 c 0,0 -18.278,14.6573 -25.681,27.2666 -12.437,21.1863 -33.858,23.8109 -40.421,24.8476 v 22.3319 c 25.603,-5.6601 47.042,-13.9107 60.127,-41.0379 6.053,-12.5479 23.159,-15.0303 26.563,-15.0303 3.401,0 13.871,6.9617 23.268,15.4673 21.949,19.8685 41.378,25.8464 64.279,19.7824 19.564,-5.1825 30.204,-19.5412 30.205,-40.7875 0,-17.3042 11.183,-24.3252 44.218,-27.7561 19.646,-2.0409 28.588,-0.8879 46.803,6.0403 20.348,7.7365 22.8,10.0128 25.392,23.5686 4.116,21.5322 -0.291,29.6982 -18.914,35.0528 -59.637,17.1488 -123.733,57.7597 -130.79,82.8651 -4.805,17.1072 5.659,30.6034 26.848,34.6385 28.484,5.4238 37.181,9.5897 37.181,17.8095 0,12.4426 -16.599,17.163 -61.476,17.4776 -65.382,0.4589 -85.901,14.9672 -80.717,57.0782 1.726,14.0023 4.029,22.3891 0.493,26.1395 -4.494,4.767 -15.535,0.456 -22.562,0.6414 -10.661,0.2814 -19.043,2.5233 -25.476,8.2681 -8.576,7.6598 -14.128,18.6362 -18.489,35.3305 -7.924,25.5256 -15.816,53.6963 -27.111,77.7815 v 39.3688 c 7.172,-9.3442 14.405,-22.7826 20.798,-38.2627 15.407,-37.3164 25.897,-62.2295 30.377,-76.1404 3.91,-12.1406 9.678,-19.9165 28.172,-22.2766 14.624,-1.8661 32.98,2.6282 45.373,13.0783 4.134,3.4867 6.752,8.5504 8.29,14.4473 4.44,17.0198 1.546,33.4912 -2.387,45.1699 -1.467,4.369 -10.491,9.7342 -19.815,13.1758 -30.37,11.2164 -41.308,34.3589 -29.359,62.1338 6.717,15.6127 34.549,20.5772 70.46,12.5701 35.339,-7.8807 43.913,-7.9485 43.913,-0.3414 0,5.8786 -25.162,17.3369 -49.889,22.7192 -24.485,5.3294 -49.387,18.1407 -56.789,29.2169 -27.121,40.5779 23.893,69.1366 83.26,46.6139 27.946,-10.602 60.593,-14.0285 69.742,-7.3192 10.859,7.9679 20.268,26.6636 17.416,34.6122 -3.586,9.9798 -23.715,11.5892 -46.314,7.5255 -70.691,-12.7142 -70.074,-12.6811 -82.458,-4.54 -15.042,9.8874 -16.948,22.6208 -5.453,36.3655 11.376,13.5958 11.424,17.0391 0.383,26.796 -11.899,10.5172 -29.098,10.0478 -35.522,-0.9697 -11.295,-19.3572 -64.364,-43.1423 -83.954,-37.7971 -2.197,0.5991 -4.998,1.724 -6.253,2.7199 v 22.3891 c 4.135,-2.8987 7.48,-3.3492 11.774,-2.8272 18.543,2.2542 44.984,11.3094 50.627,20.9518 3.691,6.3103 10.562,14.8724 15.263,19.0286 17.684,15.6282 57.982,4.7343 72.163,-19.5067 5.886,-10.0548 8.261,-11.2612 15.48,-7.8462 37.659,20.8325 -14.226,53.8648 -24.907,77.2429 h 30.387 c 8.411,-11.0321 19.4,-27.2853 26.601,-42.4414 12.668,-26.6554 4.988,-40.2669 -27.487,-54.4639 -33.428,-14.6168 -39.376,-26.9366 -12.992,-26.9366 7.195,0 21.388,3.7374 31.529,8.3094 27.264,12.2915 68.86,11.2312 106.295,-3.4656 16.956,-6.6561 41.123,-13.3111 53.71,-14.7867 21.834,-2.5599 23.5,-2.1055 36.147,9.8622 10.507,9.9405 13.26,16.0196 13.26,29.2845 0,14.2233 -2.973,19.8179 -19.796,37.2375 -14.25,14.7501 -28.428,40.1005 -33.695,57.3182 l 21.113,0.083 c 5.395,-11.1754 16.453,-30.4687 21.304,-34.4958 11.803,-9.801 23.418,-10.9035 60.83,-5.7815 18.886,2.5832 20.92,3.8076 18.558,11.0979 -4.076,12.5847 -6.394,22.2246 -6.553,29.0932 h 23.477 c 6.579,-9.7193 12.256,-24.1413 15.254,-39.3473 6.296,-31.9659 5.927,-68.3865 -1.225,-119.0337 -5.079,-35.991 -7.02,-41.4411 -17.602,-49.4869 -10.252,-7.7942 -16.617,-9.0427 -46.099,-9.0427 -41.678,0 -51.598,-6.2456 -47.278,-29.7607 4.045,-22.0385 14.124,-28.4215 47.471,-30.0758 41.392,-2.0538 48.263,-6.8697 47.54,-33.3164 -0.95,-35.0102 -1.291,-34.2925 18.302,-38.9553 22.545,-5.3648 55.122,-1.7059 73.69,8.2738 15.927,8.5618 30.877,34.0571 31.014,52.9243 0.07,8.7039 -6.632,21.3949 -21.907,41.4907 -29.869,39.2971 -42.855,44.5647 -24.276,96.7103 23.891,67.0683 41.718,76.2702 108.37,55.938 54.368,-16.5854 62.437,-0.6453 23.485,24.7875 -28.419,18.5527 -30.611,21.1638 -26.776,31.8442 2.813,7.8296 43.481,23.216 56.849,26.7529 9.419,2.4921 7.46,6.7949 6.4,10.3346 l 21.635,-0.017 c 2.879,-5.4282 5.349,-13.467 7.667,-23.6905 3.07,-13.5422 8.569,-25.2979 13.347,-28.538 13.449,-9.1161 60.779,-20.912 71.939,-21.0033 19.834,-0.1614 51.752,4.7039 66.242,-4.9525 4.457,-2.9697 9.523,-7.1683 12.722,-10.0802 v -22.376 c -7.298,3.9681 -23.715,13.2509 -31.386,16.7094 -18.07,8.1472 -47.075,-7.9903 -47.075,-13.9522 0,-1.9325 7.137,-11.0635 15.862,-20.2906 19.329,-20.4477 23.665,-29.9375 23.665,-51.7897 0,-14.0713 -2.243,-18.5345 -13.514,-26.916 -19.647,-14.6107 -28.889,-12.8179 -52.9,10.2616 -16.461,15.8253 -22.291,19.2818 -26.409,15.6436 -4.116,-3.6385 -4.041,-8.0013 0.35,-19.7561 9.823,-26.3049 -2.567,-43.3698 -31.488,-43.3698 -22.638,0 -42.756,12.9698 -62.549,40.315 -17.79,24.579 -32.708,32.7111 -48.401,26.3908 -14.64,-5.8957 -14.218,-18.0289 1.376,-39.7467 12.971,-18.062 20.231,-22.0982 77.622,-43.1709 42.383,-15.561 67.908,-36.1938 78.376,-63.3378 3.998,-10.3763 7.273,-23.0378 7.273,-28.135 0,-5.0968 7.666,-31.1184 10.009,-34.9908 4.413,-7.2887 34.097,-19.5905 47.429,-19.6568 3.838,-0.019 11.297,-2.2265 19.378,-5.2245 v 0.068 c 0.35,-0.1417 0.536,-0.2253 0.876,-0.3638 2.92,-1.0998 5.851,-2.3679 8.791,-3.6193 6.696,-2.6576 8.815,-2.544 8.025,4.3844 -1.089,9.5583 -17.802,46.9401 -31.539,64.4854 -13.737,17.545 -30.795,26.2196 -31.521,47.2347 -0.728,21.0147 5.515,28.1561 12.622,32.57 13.74,8.5326 20.495,15.9091 35.757,4.5176 8.522,-6.3604 19.782,-16.2753 29.449,-28.4321 l 0.07,-40.4257 c -7.885,16.1635 -21.586,35.2988 -31.262,44.3085 -10.756,10.0161 -20.811,9.7564 -24.072,1.0651 -1.781,-4.7419 -4.852,-11.9982 7.721,-27.4484 16.131,-23.6633 34.961,-50.5605 47.5,-76.08 l -0.03,-53.1287 c -7.107,2.6448 -22.678,8.7009 -30.48,8.3465 v 0.1105 c -23.533,-1.1829 -37.559,-6.9194 -40.609,-17.6595 -4.352,-15.3184 2.878,-37.1918 16.982,-51.3885 12.25,-12.3293 9.598,-20.2781 9.036,-32.2099 -0.258,-5.46 2.488,-14.1158 8.216,-17.8339 3.376,-2.1914 22.222,-9.9946 36.858,-16.7293 V 8658.61 c -8.138,3.2415 -17.864,8.5865 -22.486,10.235 -6.688,2.3854 -15.619,5.6443 -23.392,9.052 -7.744,3.3959 -24.379,11.8237 -23.78,26.3797 0.823,20.0275 -3.363,27.6662 -11.125,36.0636 -10.052,13.4143 -11.669,19.6438 -11.669,44.9769 0,16.172 1.541,32.1131 3.425,35.4222 2.546,4.4796 -0.48,7.6636 -11.863,12.4613 -20.33,8.5691 -34.063,39.0062 -39.38,68.1797 -5.912,32.4395 -13.605,44.3272 -36.292,56.0785 -22.776,11.7984 -24.838,12.0068 -24.838,2.5148 0,-4.0362 -3.913,-14.9508 -8.689,-24.2568 -16.215,-31.5782 -10.062,-61.655 14.464,-70.7114 30.671,-11.3272 46.576,-47.4548 37.479,-85.1586 -3.742,-15.4961 -9.079,-23.7947 -22.983,-35.7129 -9.96,-8.5388 -21.565,-17.2726 -25.79,-19.4073 -5.495,-2.7801 -8.148,-10.0777 -9.339,-25.7178 -2.032,-26.7026 -5.782,-32.9792 -27.468,-45.9556 -17.361,-10.3916 -23.217,-23.828 -15.158,-34.7885 3.484,-4.735 7.617,-4.796 28.255,-0.4201 29.564,6.2682 58.272,-13.4633 70.097,-23.9136 4.864,-4.2977 13.962,-17.0932 20.219,-28.4331 9.728,-17.6404 13.359,-20.7887 25.096,-21.7982 3.408,-0.2931 6.472,-0.4079 9.247,-0.1464 15.768,1.4847 22.091,18.3602 27.693,79.951 1.198,13.1743 19.94,22.2904 31.764,23.3941 5.629,0.5253 28.955,-3.907 46.513,-6.1131 v -20.0262 c -7.655,0.5063 -16.944,1.4025 -21.278,1.7288 -11.362,0.8548 -29.298,-1.2679 -32.02,-8.6677 -0.04,-0.5233 -0.351,-2.5619 -0.367,-2.9591 l -0.634,-15.5255 19.748,-1.2396 c 7.819,-0.491 25.341,-2.8976 34.563,-5.3802 v -22.312 c -6.108,0.202 -15.814,1.0902 -27.302,2.1302 l -27.892,2.526 -2.917,-12.887 c -6.795,-30.0202 -33.257,-45.9053 -64.21,-38.539 -20.732,4.9337 -31.453,17.279 -41.331,47.5629 -4.005,12.2746 -10.252,20.9849 -12.65,22.7285 -10.897,7.9219 -32.044,15.4813 -35.661,12.4087 -4.541,-3.862 4.726,-70.5026 11.686,-83.9996 3.274,-6.3526 14.083,-11.5807 39.292,-19.0004 43.625,-12.8401 55.943,-21.8321 59.187,-43.2122 2.195,-14.4506 0.956,-17.6472 -10.912,-28.1349 -10.914,-9.6465 -16.998,-11.8312 -32.949,-11.8312 -10.761,0 -26.656,2.6207 -35.326,5.8228 -31.47,11.6194 -55.397,4.5714 -48.801,-14.3704 1.708,-4.905 13.456,-18.582 26.113,-30.3927 10.27,-12.4847 23.267,-26.7704 31.441,-46.9215 h -21.597 c -3.589,6.8909 -10.454,15.1894 -16.481,22.8203 -18.616,23.5784 -37.585,39.7672 -60.948,39.7374 -8.695,-0.01 -29.634,-4.3395 -46.542,-9.6222 -37.459,-11.7027 -48.474,-12.0162 -67.229,-1.9108 -13.961,7.5236 -31.289,33.3322 -31.486,46.9289 -0.06,3.448 -4.191,10.8706 -9.2,16.495 -8.009,9.0018 -12.234,10.2279 -35.241,10.2279 -24.017,0 -26.483,-0.8085 -30.421,-9.9559 -2.355,-5.4762 -4.281,-17.597 -4.281,-26.9348 0,-14.2293 27.847,-26.1584 42.571,-41.1924 15.628,-15.9592 8.623,-28.8245 15.902,-46.5934 h -23.134 c -0.911,7.9099 1.001,23.4213 -7.844,30.584 -19.803,16.0295 -49.455,34.281 -49.455,69.2918 0,25.4324 1.301,30.1853 10.49,38.3047 5.768,5.0982 17.336,10.4065 25.712,11.7954 13.816,2.2906 16.208,4.7499 25.745,26.4566 13.171,29.9886 27.349,37.5096 70.796,37.5096 27.093,0.01 30.172,0.8568 37.151,10.2727 5.4,7.284 8.131,20.7756 9.397,46.434 2.237,45.1775 -0.308,54.1814 -18.026,63.7279 -15.906,8.5724 -30.665,9.6061 -50.391,3.5292 -13.262,-4.0893 -13.39,-4.4017 -13.528,-32.4762 -0.174,-39.3814 -14.696,-68.0345 -38.569,-76.1066 -12.284,-4.154 -43.756,2.3414 -59.572,12.2944 -7.24,4.5548 -18.085,18.5452 -25.339,32.69 -13.508,26.3297 -23.717,32.334 -46.436,27.2947 -30.861,-6.8457 -36.806,-32.6094 -11.059,-47.8984 16.43,-9.7541 26.539,-26.4524 26.54,-43.8405 0,-20.3744 -13.765,-63.7265 -26.487,-83.4146 -15.969,-24.728 -30.943,-31.1813 -80.854,-34.8559 -39.526,-2.9098 -55.146,-9.4565 -55.146,-23.1073 0,-12.9817 20.729,-18.6206 75.835,-20.6263 51.251,-1.8655 79.736,-9.2061 91.424,-19.5348 6.392,-5.6504 10.743,-17.9127 15.247,-28.3243 z m 233.579,66.8351 c 13.468,0.2093 37.336,3.2675 53.026,6.7941 26.25,5.8959 28.941,7.4824 33.411,19.7056 2.673,7.3117 9.311,16.4808 14.755,20.3769 11.955,8.5528 43.633,9.455 60.749,1.729 32.488,-14.6704 57.629,-9.4564 51.888,10.7623 -2.208,7.7832 -8.337,12.5186 -23.704,18.3159 -64.001,24.1495 -69.378,29.5764 -81.686,82.46 -3.907,16.7724 -7.102,31.1815 -7.101,32.0205 0,0.8388 -4.5,1.5264 -10.005,1.5264 -21.043,0 -42.872,23.2859 -42.543,45.4119 0.245,17.0636 10.349,29.1251 33.428,39.9081 14.501,6.7744 21.316,12.4091 21.316,17.6277 0,6.8097 -3.805,7.8878 -33.927,9.6108 -36.537,2.0901 -51.414,9.5199 -52.852,26.3985 -0.392,4.5832 -3.749,9.4759 -7.468,10.8747 -3.714,1.3987 -27.509,3.2558 -52.87,4.1256 -49.778,1.7073 -61.505,-1.2319 -61.44,-15.3905 0.05,-8.0231 19.496,-49.2956 23.234,-49.2956 0.948,0 8.141,2.8287 15.98,6.286 27.771,12.2456 73.42,-1.4536 88.65,-26.6048 2.899,-4.7871 4.879,-23.9205 4.616,-44.7779 -0.365,-29.8357 -2.384,-40.1661 -11.173,-57.1381 -5.902,-11.3948 -15.367,-23.2965 -21.029,-26.4453 -5.662,-3.1491 -25.006,-6.5811 -42.986,-7.6268 -39.425,-2.293 -51.104,-10.7069 -46.87,-33.7608 1.376,-7.5042 4.6,-14.2606 7.159,-15.0154 13.954,-4.1107 30.824,-22.34 37.51,-40.5286 11.379,-30.9662 20.526,-37.8064 49.932,-37.3502 z m 327.602,17.3708 c -3.099,-0.044 -5.973,0.1672 -8.406,0.615 -9.739,1.7912 -34.114,12.3093 -35.693,34.5841 -1.579,22.2751 7.855,30.588 28.297,31.231 7.588,0.2385 19.771,-0.6973 30.5,-1.9071 v -20.2169 c -7.971,0.6961 -17.243,1.4519 -21.936,2.2834 -15.548,2.7557 -16.625,-6.0622 -11.934,-15.156 4.69,-9.0938 9.533,-7.118 24.473,-10.9761 2.689,-0.6946 6.849,-0.7661 9.398,-0.6063 v -18.1272 c -4.465,-1.0107 -10.6,-1.665 -14.704,-1.7239 z m -457.651,162.0491 c 6.26,-0.1821 9.767,2.1021 15.439,8.4743 11.648,13.0886 19.876,48.312 16.01,68.5398 -4.152,21.7145 -20.934,53.8726 -33.494,64.1817 -19.847,16.2865 -51.646,25.7248 -90.373,26.8222 -41.153,1.1664 -57.888,6.695 -66.1,21.8376 -7.196,13.2718 -1.52,34.2555 15.103,55.7954 12.407,16.0786 19.901,37.8047 16.079,46.6084 -3.243,7.4703 -14.428,6.6833 -38.45,-2.7079 -26.541,-10.3779 -48.373,-7.4491 -71.202,9.5507 -9.29,6.9179 -21.779,15.5259 -27.75,19.128 -11.384,6.8662 -24.568,8.5854 -27.938,3.6399 -2.287,-3.3573 13.858,-53.4389 -13.713,-76.3747 -7.438,-6.1898 -13.44,-15.6879 -15.564,-23.8443 -5.093,-19.5544 -8.78,-35.0226 -8.78,-38.1058 0,-14.3314 17.185,-20.5146 62.682,-22.554 45.396,-2.0354 58.985,-8.6507 68.941,-33.5658 6.313,-15.8026 6.195,-16.4027 -5.262,-26.5315 -7.593,-6.7096 -18.367,-11.1478 -30.56,-12.5907 -24.69,-2.9215 -26.905,-12.0826 -7.284,-30.164 11.934,-10.9949 67.08,-39.9885 76.059,-39.9885 1.267,0 2.304,6.5987 2.304,14.6628 0,25.3861 22.901,43.5591 54.895,43.5591 26.957,0 39.269,-8.6046 52.911,-36.9694 12.75,-26.5147 21.27,-33.2456 48.686,-38.4601 2.882,-0.548 5.275,-0.8828 7.361,-0.9432 z m -430.69,43.6585 c -1.068,0 -2.185,0 -3.338,0.015 -4.097,0.051 -8.688,0.4196 -13.323,0.6387 v 20.0174 c 2.844,-0.2678 5.473,-0.6449 7.68,-0.7163 16.382,-0.5296 20.749,3.4807 15.118,7.9457 -2.732,2.168 -12.287,6.9187 -22.798,10.8676 v 21.6819 c 12.413,-5.7007 24.023,-11.6978 27.488,-13.2098 8.308,-3.6252 32.197,-12.1201 29.581,-24.4217 -2.614,-12.3015 -21.075,-21.2896 -32.316,-22.481 -2.107,-0.2233 -4.887,-0.3249 -8.092,-0.3376 z m 627.146,103.287 v 0 c 3.233,0.02 6.534,0.2779 9.8,0.8195 20.291,3.3641 64.705,29.6101 74.09,43.7784 10.012,15.1214 14.556,44.9536 8.396,55.1259 -2.717,4.4916 -10.718,10.8047 -17.772,14.029 -17.095,7.8118 -29.373,7.0114 -64.479,-4.2043 -24.239,-7.7448 -26.317,-14.5598 -10.309,-33.8021 17.088,-20.5303 17.112,-34.0594 0.07,-46.7302 -7.234,-5.3789 -17.225,-10.9226 -22.202,-12.3188 -19.473,-5.4636 -0.221,-16.8413 22.404,-16.6975 z m -195.665,17.7852 c 3.055,-0.3358 4.419,1.1494 6.276,4.2175 12.932,21.3526 72.815,30.0118 124.801,18.044 31.733,-7.3064 30.207,-7.3869 44.139,2.2973 12.363,8.5933 12.688,8.3804 2.79,20.8343 -11.414,16.3262 -11.617,40.6895 -0.431,53.2563 7.527,8.4587 26.075,17.4125 50.181,24.2306 5.757,1.628 7.186,4.2824 4.883,9.0632 -1.797,3.7173 -4.201,16.5528 -5.334,28.5231 -1.592,16.7533 0.114,26.1267 7.415,40.7068 5.431,10.8492 8.416,22.6926 6.987,27.7223 -1.923,6.7688 -5.632,8.7821 -16.169,8.782 -17.285,0 -40.969,-21.0391 -44.986,-39.9623 -4.201,-19.7968 -28.113,-41.9032 -53.409,-49.3819 -19.548,-5.782 -21.846,-7.7576 -25.967,-22.3365 -5.259,-18.6053 -24.936,-38.3582 -41.368,-41.5245 -6.304,-1.2148 -21.34,-0.3846 -33.416,1.8453 -62.316,11.506 -69.445,9.1681 -86.52,-28.3617 -6.557,-14.4122 -10.883,-28.6047 -9.609,-31.5386 1.274,-2.9343 9.594,-6.5111 18.482,-7.9494 8.889,-1.4384 24.565,-6.7285 34.835,-11.7561 8.617,-4.2189 13.365,-6.3762 16.42,-6.7117 z m -113.193,17.4646 c 5.582,0.2515 8.633,4.455 16.367,17.9408 6.206,10.8255 15.42,29.4584 20.476,41.4063 12.918,30.5151 26.798,37.6615 67.604,34.8052 75.375,-5.2763 78.294,-5.0378 84.821,6.9443 9.185,16.8588 4.299,22.0814 -20.665,22.0815 -17.001,0 -24.714,2.1985 -35.274,10.0496 -12.034,8.9514 -13.51,12.3514 -13.51,31.1467 0,19.0755 -1.081,21.4605 -11.262,24.883 -6.198,2.0822 -17.618,3.7861 -25.374,3.7861 -28.018,0 -47.605,22.4445 -48.159,55.186 -0.277,16.2155 1.634,20.5981 13.634,31.2028 13.089,11.5572 15.753,12.2908 42.669,11.5855 41.579,-1.089 44.32,2.2617 48.332,59.0022 3.376,47.7702 1.464,69.1924 -6.989,78.1938 -2.828,3.0118 -9.465,5.476 -14.743,5.476 -17.39,0 -23.487,-8.154 -25.411,-34.0142 -2.067,-27.7939 -11.202,-41.7116 -34.491,-52.581 -12.2,-5.6935 -21.727,-6.6552 -50.189,-5.0596 -19.324,1.0836 -40.568,3.1405 -47.208,4.5701 -8.713,1.8745 -12.121,1.1193 -12.122,-2.706 -0.02,-2.9176 -4.712,-14.1705 -10.424,-25.007 -17.176,-32.6041 -48.746,-36.6819 -113.145,-14.616 -23.076,7.9089 -31.806,9.2315 -41.714,6.3141 -29.69,-8.7433 -12.038,-30.8676 34.951,-43.7916 17.36,-4.7756 38.096,-13.0055 46.078,-18.2896 12.46,-8.2501 14.326,-11.6111 13.176,-23.7768 -1.064,-11.2824 -3.967,-15.2745 -14.242,-19.6079 -11.496,-4.8471 -16.407,-4.5327 -44.92,2.8823 -37.543,9.7618 -46.877,10.2605 -53.813,2.8748 -14.565,-15.5101 11.03,-38.7584 47.816,-43.4335 36.058,-4.5833 74.799,-24.7815 74.799,-38.9984 0,-9.6739 30.31,-10.7376 54.41,-1.909 29.386,10.7638 42.744,10.4659 55.177,-1.2302 14.92,-14.0362 11.351,-44.9431 -7.924,-68.6655 -16.221,-19.9611 -22.193,-42.1637 -13.138,-48.8062 3.271,-2.3975 11.241,-5.5342 17.715,-6.9704 2.69,-0.5964 4.832,-0.952 6.692,-0.8682 z m -332.059,48.8603 c -0.878,-0.012 -1.842,0.3302 -2.89,0.6089 v 55.1611 c 7.886,-16.5429 11.048,-32.4523 11.11,-41.5532 0.05,-7.8554 -2.065,-14.1367 -8.22,-14.2168 z m 626.181,183.0636 c 19.066,-0.09 21.39,5.3177 8.709,20.2886 -28.527,33.6832 -32.114,55.3874 -12.08,73.0968 23.991,21.2029 61.18,11.0004 87.198,-23.9192 15.104,-20.2805 37.538,-35.3593 47.544,-31.9661 4.442,1.5058 5.247,7.54 3.259,24.3468 -2.411,20.4036 -1.747,22.9003 7.677,28.7332 19.402,12.011 36.222,8.406 56.206,-12.0486 17.326,-17.7331 18.261,-18.1497 24.607,-10.903 10.368,11.8413 7.872,23.3917 -9.387,43.3716 -8.791,10.1801 -20.517,27.5656 -26.053,38.6347 -6.733,13.4576 -15.161,22.904 -25.428,28.5136 -18.463,10.0832 -49.156,11.8763 -53.803,36.2719 -0.585,3.0724 -3.538,12.4287 -13.215,13.455 -11.794,1.2515 -37.422,-10.48 -37.422,-13.5376 0,-1.5016 8.051,-5.938 17.886,-9.8583 32.196,-12.8333 55.593,-45.0146 33.323,-60.5193 -10.151,-7.068 -15.579,-8.0179 -34.036,-5.9615 -12.079,1.345 -39.572,5.8175 -50.97,9.0895 -30.49,8.7574 -43.669,6.2194 -52.517,-10.1152 -16.752,-30.9362 -18.459,-58.2662 -18.459,-70.2182 0,-7.3297 7.012,-24.2095 16.482,-39.7186 15.051,-24.6517 17.672,-26.9755 30.479,-27.0361 z m -580.878,216.5842 c -2.737,0 -5.489,0.2822 -8.242,0.7989 -11.012,2.0668 -19.681,5.191 -19.579,31.4617 0,3.5833 0.562,7.1959 1.453,10.781 h 22.225 c -1.696,-6.5035 -2.475,-12.8303 -2.06,-17.2115 1.02,-10.7471 6.22,-9.323 17.233,-7.1184 7.322,1.4657 12.682,12.7813 17.97,24.3299 h 25.115 c -9.829,-11.2919 -23.309,-27.6368 -30.336,-33.8377 -7.496,-6.6137 -15.565,-9.1974 -23.779,-9.2039 z" transform="translate(-109.85103,248.81423) matrix(0.26458333,0,0,0.26458333,-5288.2085,-2452.8711)"/>
</svg>