<?xml version="1.0" ?><svg xmlns="http://www.w3.org/2000/svg" width="276.55157mm" height="245.77516mm" viewBox="0 0 276.55157 245.77516">
    <g transform="translate(-128.52082,200.91301) matrix(0.26458333,0,0,0.26458333,-512.81189,-498.36317)">
        <rect width="1044.8507" height="922.9765" x="2424.113" y="1130.0912" ry="0" fill="#855d36" paint-order="fill markers stroke"/>
        <path d="m 2708.4841,1257.0703 -247.9101,0.4981 0.5527,116.6054 251.5918,-3.3125 z m 481.6504,120.252 -323.1855,4.9687 11.4101,121.7422 316.0078,-2.3184 z m -408.9512,367.0468 -6.2578,84.8067 208.8926,-0.6621 -4.2324,-82.4883 z" fill="#98753e" paint-order="fill markers stroke"/>
        <path d="m 2600.8181,1377.9844 4.5996,122.0742 138.2715,0.2559 4.3477,103.5429 255.5058,2.3457 -3.8066,-101.7168 -185.1016,-4.041 59.4922,0.1094 -15.0918,-120.418 z m 824.5273,226.9199 -221.7753,1.3262 16.1952,133.3359 201.5313,1.1602 z m -367.1718,347.6699 -112.6367,4.6367 12.6992,93.42 103.8027,1.1582 z" fill="#7c4633" paint-order="fill markers stroke"/>
        <path d="m 3405.0743,1124.2325 c -70.5343,-0.1281 -160.6541,0.8643 -249.6007,0.9091 -74.4544,0.042 -164.3539,-0.1073 -271.8822,0.1072 -260.8343,0.5217 -389.8874,-0.5623 -458.4752,-0.4363 -0.4581,10e-4 -0.7499,0.1677 -1.1683,0.2104 v 17.1332 c 0.3851,0.062 0.7079,0.2572 1.1142,0.2583 20.1581,0.073 46.0638,1.7515 78.751,2.6636 l 83.0725,2.3193 -0.4165,22.4443 c -0.2306,12.3447 0.3137,32.3628 1.2098,44.4851 l 1.6256,30.5106 -99.3721,3.3255 -64.7123,1.6412 c -0.4997,0.011 -0.8122,0.177 -1.2756,0.226 v 16.0624 c 0.4373,0.052 0.802,0.2332 1.2756,0.2362 l 21.2281,0.1667 2.4325,11.5746 c 1.3379,10.1022 2.5791,26.6236 2.7553,42.7901 l 0.2608,46.6644 c -8.3211,0.4103 -16.6753,0.8778 -26.9915,1.0174 -0.3742,0 -0.6142,0.1447 -0.9578,0.178 v 15.7772 c 0.344,0.042 0.604,0.1893 0.9578,0.1935 11.6356,0.124 82.2595,0.2801 129.8936,0.1395 l 39.5233,-0.1667 -0.8538,48.6071 0.1021,55.4516 -79.2299,-0.5113 c -38.6415,-0.251 -81.3691,1.3806 -88.9977,1.5336 -0.5416,0.011 -0.8644,0.1636 -1.3829,0.1939 v 22.6865 c 0.4165,0.03 0.7393,0.1946 1.1735,0.2105 14.2337,0.4842 37.0776,-0.6435 38.1136,0.3926 1.0412,1.0371 1.1289,14.9555 2.3731,37.9148 l 2.4544,45.3299 c 0,0 -28.5138,2.362 -42.8118,2.3946 -0.4997,0 -0.8538,0.1886 -1.3028,0.2528 v 16.1163 c 0.5,0.094 0.9059,0.3186 1.4589,0.3333 21.4174,0.5863 44.0886,-1.6018 71.4278,-0.2906 l 49.7042,2.3837 2.4544,38.9427 c 1.3493,21.418 3.4069,46.6411 4.5679,56.0489 l 2.1098,17.1064 -88.2872,1.2592 c -21.5051,0.3072 -31.2839,0.5779 -42.3756,0.6622 -0.406,0 -0.677,0.1905 -1.0602,0.2362 v 19.5817 c 0.4063,0.052 0.7185,0.2635 1.1569,0.2582 21.1998,-0.2635 31.8013,1.5558 34.1159,3.0402 2.4828,1.5911 3.8018,11.2303 4.9349,33.3195 l 2.0232,39.4001 c 0,0 -9.9507,0.656 -15.2987,0.7851 -5.7574,0.1395 -12.8705,0.5019 -25.8448,0.4519 -0.4271,0 -0.6875,0.1312 -1.0874,0.1561 v 15.2929 c 0.4165,0.062 0.7706,0.2396 1.2113,0.2426 18.8516,0.1043 39.8597,-1.9586 69.5388,-1.9586 h 105.1136 l -0.1058,47.0787 c 0,25.8928 -0.6664,47.5817 -1.3777,48.1981 -0.7079,0.6164 -45.9212,1.1739 -100.3997,0.4248 -30.2642,-0.4165 -56.3925,1.7243 -72.5636,1.7166 -0.5726,-2e-4 -0.9373,0.1769 -1.4422,0.2313 v 15.4005 c 0.3326,0.062 0.6247,0.2374 0.9581,0.248 7.0798,0.1228 25.7125,0 37.0866,0.807 l 13.8939,0.985 2.3671,53.8913 c 0.7915,16.7545 1.1108,30.8745 1.2057,41.6654 h 23.7249 l -3.0188,-31.646 c -2.5489,-23.6955 -4.6692,-48.2206 -5.7573,-52.7665 l -1.2057,-10.1863 125.0181,3.3417 h 126.6539 l 2.276,13.7755 c 1.2518,7.5765 2.2825,31.5424 2.3191,53.2615 v 24.2201 h 21.6745 l -1.081,-13.1997 c -1.2805,-15.6579 -3.2738,-39.4398 -4.4349,-52.8527 l -2.1086,-24.3922 63.6953,-2.5453 c 17.5166,-0.7008 36.1296,-1.2014 52.0021,-1.442 15.8737,-0.2404 29.0086,-0.223 35.5741,0.1133 l 23.8809,1.2215 2.2231,25.716 c 1.2227,14.1427 3.4768,37.4421 5.0098,51.7764 l 1.6683,15.6051 h 19.0106 l -1.5609,-26.0551 c -1.239,-20.7091 -3.3498,-44.6801 -4.6866,-53.2669 l -2.4265,-15.6104 h 42.5099 c 23.3813,0 43.4407,1.5034 44.5768,3.3416 1.1362,1.8382 3.1439,25.8093 4.461,53.267 l 1.8399,38.3238 h 19.8939 l -0.1058,-0.4041 c -1.0651,-6.5334 -2.3751,-30.0578 -2.9114,-52.2822 l -0.9687,-40.4116 115.714,-0.9684 115.714,-0.9737 -1.1025,50.5658 c -0.4271,19.6016 -1.1255,34.6033 -1.8089,44.4743 h 23.1179 v -15.2122 c 0,-16.5767 1.059,-41.0484 2.3191,-54.3809 l 2.2866,-24.2416 69.851,-2.5075 c 21.3154,-0.7654 61.0367,-0.7341 74.5652,-0.9955 0.4894,-0.01 0.8538,-0.1927 1.3081,-0.2581 v -15.4329 c -0.4585,-0.042 -0.8021,-0.2064 -1.3081,-0.1988 l -44.3176,0.5915 -2.6635,-33.7393 c -1.5163,-19.1882 -2.5043,-43.9768 -3.374,-47.4284 -1.364,-5.4099 1.9318,-12.4322 24.5269,-13.3559 5.9342,-0.2426 22.1212,-1.4052 25.8282,-1.5443 0.5208,-0.023 0.8228,-0.1561 1.3081,-0.1988 v -15.1856 c -0.4479,-0.052 -0.8436,-0.2124 -1.3081,-0.2207 -13.0349,-0.2355 -52.1042,-0.073 -83.1152,-0.7966 -33.3808,-0.7799 -65.1342,-0.3114 -66.4075,-1.5927 -1.2725,-1.2818 -3.4322,-18.3092 -4.7943,-37.8396 l -2.4748,-35.5095 15.8086,0.5217 c 8.6959,0.2864 42.2611,0.1258 74.5871,-0.3602 22.2463,-0.3341 55.3179,-1.0111 66.3961,-1.5875 0.5208,-0.03 0.833,-0.2018 1.3081,-0.2582 v -19.4255 c -0.4479,-0.042 -0.833,-0.2302 -1.3081,-0.2207 -4.2671,0.083 -15.7569,0.2093 -18.8973,0.1886 -9.5082,-0.052 -8.3554,5.0713 -10.337,-20.7978 -1.1225,-14.648 -2.7061,-41.7972 -3.5142,-60.3323 l -1.4695,-33.7016 34.218,-1.5012 c 0.5,-0.023 0.833,-0.1625 1.3081,-0.2041 v -16.3853 c -0.4687,2e-4 -0.8123,-0.1176 -1.3081,-0.094 -8.0648,0.4238 -37.3607,-0.062 -55.7518,-0.3072 -18.3927,-0.2397 -43.3743,-1.4705 -55.5115,-2.7389 l -22.0671,-2.3086 -4.4508,-36.731 c -2.4491,-20.2029 -3.0935,-38.0336 -1.4317,-39.6206 1.663,-1.5872 31.1256,-3.4807 65.4716,-4.208 28.2025,-0.5966 60.7949,-0.2105 74.1351,-0.2154 0.3326,-10e-5 0.5934,-0.175 0.9162,-0.2041 v -22.6488 c -0.5205,-0.042 -0.8538,-0.2404 -1.4204,-0.2479 -8.8384,-0.1115 -26.1645,-0.932 -35.4822,-1.0007 -5.427,-0.3175 -8.9613,-0.9747 -13.4366,-1.4637 l -0.9165,-31.7695 c -0.5103,-17.4721 -0.8123,-43.9154 -1.0413,-51.9972 l -0.5102,-17.2624 c 17.1594,-0.63 32.5886,-1.7488 51.5826,-1.4421 0.5,0.01 0.7812,-0.1466 1.2268,-0.178 v -15.9494 c -0.2721,-0.03 -0.5208,-0.1977 -0.7914,-0.1886 -7.9816,0.2854 -31.8032,0.124 -84.9022,0.124 h -82.1416 l -2.1358,-10.1003 c -1.1766,-5.5561 -4.1027,-20.8492 -6.1236,-40.7505 -2.0213,-19.9016 -4.591,-43.1839 -5.7146,-45.0017 -1.1861,-1.9196 32.3111,-3.3222 79.9079,-3.3525 59.0112,-0.03 90.2158,-2.6844 101.0453,-3.2124 0.3326,-0.023 0.5416,-0.1436 0.8643,-0.178 v -15.9602 c -0.3023,-0.021 -0.5416,-0.1437 -0.8643,-0.1343 -8.6366,0.2603 -35.3228,1.1713 -46.2388,1.1569 h -9.5894 l -0.2079,-51.5343 -0.2079,-57.0499 25.2212,0.6404 c 8.7054,0.2208 25.5829,-0.7935 31.1237,-0.7268 0.3137,0 0.4683,-0.083 0.76,-0.094 v -17.3109 c -0.3212,-0.021 -0.6247,-0.1718 -0.9475,-0.1613 -18.3904,-0.3676 -39.7225,-0.5332 -63.233,-0.5759 z m -44.9537,18.9736 c 20.5689,-0.2614 33.4537,-0.2551 33.6911,0.083 0.4792,0.682 0.2608,26.4512 -0.6871,57.2597 l -1.5546,50.5118 -59.2936,-0.5487 c -63.6347,-0.5884 -142.318,0.7612 -150.6965,-2.4538 -3.8215,-1.4665 -5.5948,-12.6071 -6.9475,-43.565 -0.9993,-22.8784 -2.9654,-45.0797 -4.3692,-49.3333 -2.544,-7.7126 -2.2355,-7.7408 110.0693,-10.4231 30.9713,-0.7404 59.2214,-1.2708 79.7904,-1.5336 z m -540.3004,1.06 c 24.5707,0.042 41.2834,0.3551 42.2528,1.0278 2.651,1.841 4.6753,20.4577 5.5094,50.668 l 1.3183,47.7513 -11.0199,0.2478 c -16.5721,0.3718 -245.9793,4.0948 -247.0383,3.3578 -0.5102,-0.3509 -0.9161,-9.8461 -0.9161,-17.8865 0,-8.0407 -2.6858,-33.792 -5.9679,-50.0815 -3.2822,-16.2892 -5.3469,-30.1773 -4.5899,-30.8602 2.3063,-2.082 146.7447,-4.3544 220.4557,-4.2242 z m 64.648,2.1041 h 136.136 136.1348 l 2.3357,19.2856 c 1.2839,10.6072 1.818,33.3332 1.1838,50.5065 l -1.1517,31.2262 -14.6959,0.1343 c -8.0814,0.073 -67.7601,-0.3613 -132.6161,-0.9684 l -117.9197,-1.1032 -2.4053,-35.7677 c -1.3236,-19.6714 -3.4405,-41.9615 -4.7036,-49.5379 z m 40.5846,118.9479 c 26.2813,0.073 46.6333,0.2918 54.9668,0.8612 l 30.3058,2.0717 v 42.8331 c 0,23.5582 1.0465,46.5525 2.2658,51.0985 l 2.2118,8.2653 -74.8128,-0.5436 c -63.97,-0.4665 -156.712,0.4426 -206.256,-3.2716 l -13.8886,-1.0382 -1.6411,-55.1557 -1.6361,-44.9801 117.8831,-0.1043 c 32.0564,-0.03 64.2708,-0.1073 90.5522,-0.042 z m -343.3486,0.8497 c 64.5291,1.2492 117.7248,0.1229 118.2108,0.705 0.4895,0.5821 0.1058,17.1121 -0.9577,43.8824 l -1.8463,52.9979 -16.9606,-0.062 c -9.3343,-0.03 -67.5886,2.8792 -119.7181,1.496 -52.128,-1.3834 -88.2006,3.0584 -89.9063,1.2429 -1.7045,-1.8155 -3.784,-40.3674 -4.6223,-65.4334 l -1.5224,-34.7509 z m 442.1496,0.2313 105.1242,1.5928 c 55.3916,0.8393 106.1695,-0.5321 118.2912,0.8185 l 22.0411,2.4537 2.2337,34.9014 c 1.2294,16.1632 3.7598,32.5617 5.2512,43.2098 l 2.7073,19.3611 -69.5346,1.2107 c -38.0772,-0.5467 -94.4383,1.8816 -125.2493,1.3237 l -56.0217,-1.0111 v -28.7564 c 0,-15.814 -1.0889,-39.1804 -2.4219,-51.927 z m -259.8187,117.0646 c 10.8971,-0.052 21.1464,0.03 30.0537,0.3553 l 64.7769,2.3891 2.2598,16.5091 c 1.2453,9.0803 2.2658,32.8123 2.2658,52.7343 v 36.2198 h -124.3619 -124.3662 l -2.2544,-35.8163 c -1.2412,-19.6988 -3.8227,-45.5322 -4.7785,-57.5018 l -1.5882,-14.841 61.1668,0.4093 c 25.6172,0.9809 64.1367,-0.3062 96.8262,-0.4572 z m 417.1117,2.0287 0.189,54.7576 0.1965,51.4212 H 3035.932 c -80.0821,0 -146.7084,-1.1015 -148.0535,-2.4484 -1.3474,-1.3467 -2.4491,-11.1203 -2.4491,-21.7179 0,-10.5977 -2.4586,-32.1103 -5.4618,-47.8052 -3.0029,-15.6951 -5.0669,-28.8648 -4.5899,-29.2675 2.0296,-1.7112 143.4093,-3.3039 221.2743,-2.4914 v 0 z m 115.5851,1.4583 h 99.6143 l 0.3629,11.9405 c 0.9996,33.0153 3.0304,73.4234 4.7195,80.4251 1.4192,5.8806 -0.1663,8.3984 -6.3394,10.0518 v 0 c -4.5268,1.2131 -49.5565,2.2243 -100.0657,2.2546 l -91.8379,0.052 v -24.7959 c 0,-13.6376 -1.4393,-35.9539 -3.1801,-49.5917 l -3.1593,-28.1268 z m -716.8845,124.8832 c 13.5401,0 28.3721,0.1198 44.2049,0.4624 l 115.1551,2.4968 -2.6041,37.113 c -1.4332,20.4122 -2.8316,37.3147 -3.1106,37.5598 -0.2797,0.2445 -56.0738,1.6091 -123.9851,3.0348 l -123.4726,2.5937 -2.0826,-36.1014 c -1.1444,-19.8537 -1.7015,-34.2851 -3.154,-39.0717 -1.9192,-6.3257 -2.163,-8.0208 4.4398,-7.5928 2.2005,0.1425 8.7315,0.3791 15.4114,0.5113 9.5842,0.1894 38.5799,-0.9871 79.1978,-1.0059 z m 173.3393,1.7758 116.6347,0.9683 116.6291,0.9736 0.7812,39.4862 0.7808,39.4915 -46.6968,-0.8341 c -25.6826,-0.4571 -77.5068,-1.3194 -115.1645,-1.9156 -79.514,-1.2591 -72.8228,3.1306 -72.9082,-47.8107 z m 302.7651,0.1039 v 0 h 48.8659 l 2.4699,28.4711 c 1.3557,15.6579 3.4216,33.84 4.5903,40.4062 l 2.1199,11.9406 h -53.2456 -53.2456 l -1.6849,-37.6512 c -0.9268,-20.7091 -1.0205,-38.8963 -0.2192,-40.4117 0.8122,-1.5152 23.4621,-2.755 50.3391,-2.755 z m 96.9989,1.0225 v 0 c 16.7127,0.149 39.5297,0.5853 64.4164,1.2807 l 90.4981,2.5291 v 13.1997 c 0,7.2575 1.0851,24.3526 2.3732,37.9902 v 0 l 2.3406,24.7959 h -91.9298 -91.9294 l -2.643,-38.8135 c -1.4547,-21.3475 -1.8807,-39.5804 -0.937,-40.5193 0.4683,-0.4696 11.0805,-0.6113 27.7932,-0.4623 z m -513.2549,98.1611 c 21.2009,0 21.3332,0.073 23.2887,11.9406 3.0917,18.772 9.3853,82.1111 9.3853,94.4481 v 11.1656 h -47.1012 -47.105 l -6.3069,-51.5072 c -3.4677,-28.3279 -7.1497,-53.6993 -8.1797,-56.3827 -1.9982,-5.2086 33.0361,-9.6644 76.0188,-9.6644 z m 35.8541,0 h 97.6872 97.6879 l -1.0099,57.857 -1.0102,57.8571 -88.5173,0.985 -88.5184,0.9799 -2.4431,-37.7158 c -2.2889,-35.3822 -4.8752,-51.9192 -11.2199,-71.697 z m 211.7174,3.6699 h 82.7328 82.7289 l -1.211,52.3467 c -0.6663,28.7907 -1.8493,54.2921 -2.6211,56.6733 -2.1104,6.5117 -155.6579,6.878 -157.8466,0.3768 -0.875,-2.5878 -2.0818,-28.263 -2.6858,-57.0552 z m 182.8419,0 h 63.1683 63.168 l 3.374,56.9476 3.3683,56.9368 h -63.4854 c -47.5571,-0.01 -63.8419,-1.1608 -64.9282,-4.6008 -0.7914,-2.5253 -2.1762,-28.1462 -3.0614,-56.9369 z m 144.9706,0 h 99.6683 99.6616 v 52.9656 c 0,29.1305 0.9997,55.5759 2.2284,58.7718 2.3513,6.1275 -13.2317,6.4613 -143.9644,3.0725 l -44.3936,-1.1515 -4.289,-43.0538 c -2.3588,-23.6804 -5.3265,-49.2528 -6.5968,-56.8291 z m -732.8342,131.8086 66.596,2.2655 c 36.6255,1.2473 83.9486,2.9456 105.1616,3.7721 21.2145,0.8268 54.689,1.5589 74.3883,1.6251 l 35.8163,0.1186 v 28.8532 l -1.2438,36.0916 -47.3484,1.914 c -88.088,3.5608 -227.7249,3.2248 -228.8652,-0.645 -0.5937,-2.0205 -1.9128,-20.9894 -2.8301,-39.7982 z m 300.3277,4.1112 h 90.1156 c 68.8755,0 90.4532,1.0803 91.5538,4.59 0.7914,2.5253 2.4953,16.5783 3.7833,31.2262 l 1.4627,32.426 -87.0898,1.7122 -101.0695,-0.2635 1.2439,-38.47 z m 357.2425,1.835 h 153.3652 v 33.9812 c 0,18.683 0.1058,35.1967 0.1965,36.7203 0.1059,1.5152 -1.9578,2.9092 -4.5898,3.1049 -95.2622,-3.3614 -96.4467,-6.3968 -191.5873,-6.8724 l -105.3717,-0.5268 -2.1199,-32.426 c -0.9615,-14.7089 -3.0524,-28.2857 -3.1261,-30.306 -0.1058,-2.3926 53.3477,-3.6752 153.2308,-3.6752 z m -251.9728,84.5602 95.111,2.7282 c 114.3916,3.2813 167.1175,3.5974 167.0309,7.305 0,1.5153 -0.102,22.5918 -0.102,46.8365 v 44.0816 h -126.2237 -126.2178 l -2.2491,-41.3264 c -1.2352,-22.7294 -3.5736,-43.2012 -4.9286,-49.0296 z m -102.3958,1.5175 c 23.2086,-0.2438 42.4109,-0.2291 52.0086,0.1039 l 34.9013,1.2054 1.2401,47.6144 1.0204,50.5118 h -124.6359 -124.642 l -2.1253,-21.1259 c -1.1686,-11.617 -3.1627,-33.7429 -4.4288,-49.1667 l -2.2972,-28.0406 92.9265,0.347 c 26.0288,-0.6294 52.7406,-1.1942 76.0323,-1.4493 z m 381.7474,7.1435 51.0547,2.007 c 28.0818,1.1043 80.0779,0.8133 114.3261,1.9857 34.2482,1.1726 63.4208,-1.1533 65.0351,-0.1561 1.6138,0.9976 2.1044,26.1579 2.1044,48.2626 v 40.1909 h -113.8741 -113.879 v -23.343 c 0,-12.8359 -1.0727,-33.5997 -2.3838,-46.1424 z"/>
        <rect width="1044.8507" height="922.9765" x="2424.113" y="1130.0912" ry="0" fill="#855d36" paint-order="fill markers stroke"/>
        <path d="m 2708.4844,1257.0703 -247.9102,0.4981 0.5528,116.6054 251.5918,-3.3125 z m 481.6504,120.252 -323.1856,4.9687 11.4102,121.7422 316.0078,-2.3184 z m -408.9512,367.0468 -6.2578,84.8067 208.8926,-0.6621 -4.2325,-82.4883 z m -293.6582,203.1758 0.7973,105.0801 271.3453,-0.4023 -2.6348,-100.4844 z" fill="#98753e" paint-order="fill markers stroke"/>
        <path d="m 3403.8672,1132.3984 -242.2246,2.3868 11.8222,118.4414 230.7618,5.6093 z m -803.0488,245.586 4.5996,122.0742 138.2715,0.2559 4.3476,103.5429 255.5059,2.3457 -3.8067,-101.7168 -185.1015,-4.041 59.4922,0.1094 -15.0918,-120.418 z m 824.5273,226.9199 -221.7754,1.3262 16.1953,133.3359 201.5313,1.1602 z m -367.1719,347.6699 -112.6367,4.6367 12.6992,93.42 103.8028,1.1582 z" fill="#7c4633" paint-order="fill markers stroke"/>
        <path d="m 3405.0743,1124.2325 c -70.5343,-0.1281 -160.6541,0.8643 -249.6007,0.9091 -74.4544,0.042 -164.3539,-0.1073 -271.8822,0.1072 -260.8343,0.5217 -389.8874,-0.5623 -458.4752,-0.4363 -0.4581,10e-4 -0.7499,0.1677 -1.1683,0.2104 v 17.1332 c 0.3851,0.062 0.7079,0.2572 1.1142,0.2583 20.1581,0.073 46.0638,1.7515 78.751,2.6636 l 83.0725,2.3193 -0.4165,22.4443 c -0.2306,12.3447 0.3137,32.3628 1.2098,44.4851 l 1.6256,30.5106 -99.3721,3.3255 -64.7123,1.6412 c -0.4997,0.011 -0.8122,0.177 -1.2756,0.226 v 16.0624 c 0.4373,0.052 0.802,0.2332 1.2756,0.2362 l 21.2281,0.1667 2.4325,11.5746 c 1.3379,10.1022 2.5791,26.6236 2.7553,42.7901 l 0.2608,46.6644 c -8.3211,0.4103 -16.6753,0.8778 -26.9915,1.0174 -0.3742,0 -0.6142,0.1447 -0.9578,0.178 v 15.7772 c 0.344,0.042 0.604,0.1893 0.9578,0.1935 11.6356,0.124 82.2595,0.2801 129.8936,0.1395 l 39.5233,-0.1667 -0.8538,48.6071 0.1021,55.4516 -79.2299,-0.5113 c -38.6415,-0.251 -81.3691,1.3806 -88.9977,1.5336 -0.5416,0.011 -0.8644,0.1636 -1.3829,0.1939 v 22.6865 c 0.4165,0.03 0.7393,0.1946 1.1735,0.2105 14.2337,0.4842 37.0776,-0.6435 38.1136,0.3926 1.0412,1.0371 1.1289,14.9555 2.3731,37.9148 l 2.4544,45.3299 c 0,0 -28.5138,2.362 -42.8118,2.3946 -0.4997,0 -0.8538,0.1886 -1.3028,0.2528 v 16.1163 c 0.5,0.094 0.9059,0.3186 1.4589,0.3333 21.4174,0.5863 44.0886,-1.6018 71.4278,-0.2906 l 49.7042,2.3837 2.4544,38.9427 c 1.3493,21.418 3.4069,46.6411 4.5679,56.0489 l 2.1098,17.1064 -88.2872,1.2592 c -21.5051,0.3072 -31.2839,0.5779 -42.3756,0.6622 -0.406,0 -0.677,0.1905 -1.0602,0.2362 v 19.5817 c 0.4063,0.052 0.7185,0.2635 1.1569,0.2582 21.1998,-0.2635 31.8013,1.5558 34.1159,3.0402 2.4828,1.5911 3.8018,11.2303 4.9349,33.3195 l 2.0232,39.4001 c 0,0 -9.9507,0.656 -15.2987,0.7851 -5.7574,0.1395 -12.8705,0.5019 -25.8448,0.4519 -0.4271,0 -0.6875,0.1312 -1.0874,0.1561 v 15.2929 c 0.4165,0.062 0.7706,0.2396 1.2113,0.2426 18.8516,0.1043 39.8597,-1.9586 69.5388,-1.9586 h 105.1136 l -0.1058,47.0787 c 0,25.8928 -0.6664,47.5817 -1.3777,48.1981 -0.7079,0.6164 -45.9212,1.1739 -100.3997,0.4248 -30.2642,-0.4165 -56.3925,1.7243 -72.5636,1.7166 -0.5726,-2e-4 -0.9373,0.1769 -1.4422,0.2313 v 15.4005 c 0.3326,0.062 0.6247,0.2374 0.9581,0.248 7.0798,0.1228 25.7125,0 37.0866,0.807 l 13.8939,0.985 2.3671,53.8913 c 0.7915,16.7545 1.1108,30.8745 1.2057,41.6654 h 23.7249 l -3.0188,-31.646 c -2.5489,-23.6955 -4.6692,-48.2206 -5.7573,-52.7665 l -1.2057,-10.1863 125.0181,3.3417 h 126.6539 l 2.276,13.7755 c 1.2518,7.5765 2.2825,31.5424 2.3191,53.2615 v 24.2201 h 21.6745 l -1.081,-13.1997 c -1.2805,-15.6579 -3.2738,-39.4398 -4.4349,-52.8527 l -2.1086,-24.3922 63.6953,-2.5453 c 17.5166,-0.7008 36.1296,-1.2014 52.0021,-1.442 15.8737,-0.2404 29.0086,-0.223 35.5741,0.1133 l 23.8809,1.2215 2.2231,25.716 c 1.2227,14.1427 3.4768,37.4421 5.0098,51.7764 l 1.6683,15.6051 h 19.0106 l -1.5609,-26.0551 c -1.239,-20.7091 -3.3498,-44.6801 -4.6866,-53.2669 l -2.4265,-15.6104 h 42.5099 c 23.3813,0 43.4407,1.5034 44.5768,3.3416 1.1362,1.8382 3.1439,25.8093 4.461,53.267 l 1.8399,38.3238 h 19.8939 l -0.1058,-0.4041 c -1.0651,-6.5334 -2.3751,-30.0578 -2.9114,-52.2822 l -0.9687,-40.4116 115.714,-0.9684 115.714,-0.9737 -1.1025,50.5658 c -0.4271,19.6016 -1.1255,34.6033 -1.8089,44.4743 h 23.1179 v -15.2122 c 0,-16.5767 1.059,-41.0484 2.3191,-54.3809 l 2.2866,-24.2416 69.851,-2.5075 c 21.3154,-0.7654 61.0367,-0.7341 74.5652,-0.9955 0.4894,-0.01 0.8538,-0.1927 1.3081,-0.2581 v -15.4329 c -0.4585,-0.042 -0.8021,-0.2064 -1.3081,-0.1988 l -44.3176,0.5915 -2.6635,-33.7393 c -1.5163,-19.1882 -2.5043,-43.9768 -3.374,-47.4284 -1.364,-5.4099 1.9318,-12.4322 24.5269,-13.3559 5.9342,-0.2426 22.1212,-1.4052 25.8282,-1.5443 0.5208,-0.023 0.8228,-0.1561 1.3081,-0.1988 v -15.1856 c -0.4479,-0.052 -0.8436,-0.2124 -1.3081,-0.2207 -13.0349,-0.2355 -52.1042,-0.073 -83.1152,-0.7966 -33.3808,-0.7799 -65.1342,-0.3114 -66.4075,-1.5927 -1.2725,-1.2818 -3.4322,-18.3092 -4.7943,-37.8396 l -2.4748,-35.5095 15.8086,0.5217 c 8.6959,0.2864 42.2611,0.1258 74.5871,-0.3602 22.2463,-0.3341 55.3179,-1.0111 66.3961,-1.5875 0.5208,-0.03 0.833,-0.2018 1.3081,-0.2582 v -19.4255 c -0.4479,-0.042 -0.833,-0.2302 -1.3081,-0.2207 -4.2671,0.083 -15.7569,0.2093 -18.8973,0.1886 -9.5082,-0.052 -8.3554,5.0713 -10.337,-20.7978 -1.1225,-14.648 -2.7061,-41.7972 -3.5142,-60.3323 l -1.4695,-33.7016 34.218,-1.5012 c 0.5,-0.023 0.833,-0.1625 1.3081,-0.2041 v -16.3853 c -0.4687,2e-4 -0.8123,-0.1176 -1.3081,-0.094 -8.0648,0.4238 -37.3607,-0.062 -55.7518,-0.3072 -18.3927,-0.2397 -43.3743,-1.4705 -55.5115,-2.7389 l -22.0671,-2.3086 -4.4508,-36.731 c -2.4491,-20.2029 -3.0935,-38.0336 -1.4317,-39.6206 1.663,-1.5872 31.1256,-3.4807 65.4716,-4.208 28.2025,-0.5966 60.7949,-0.2105 74.1351,-0.2154 0.3326,-10e-5 0.5934,-0.175 0.9162,-0.2041 v -22.6488 c -0.5205,-0.042 -0.8538,-0.2404 -1.4204,-0.2479 -8.8384,-0.1115 -26.1645,-0.932 -35.4822,-1.0007 -5.427,-0.3175 -8.9613,-0.9747 -13.4366,-1.4637 l -0.9165,-31.7695 c -0.5103,-17.4721 -0.8123,-43.9154 -1.0413,-51.9972 l -0.5102,-17.2624 c 17.1594,-0.63 32.5886,-1.7488 51.5826,-1.4421 0.5,0.01 0.7812,-0.1466 1.2268,-0.178 v -15.9494 c -0.2721,-0.03 -0.5208,-0.1977 -0.7914,-0.1886 -7.9816,0.2854 -31.8032,0.124 -84.9022,0.124 h -82.1416 l -2.1358,-10.1003 c -1.1766,-5.5561 -4.1027,-20.8492 -6.1236,-40.7505 -2.0213,-19.9016 -4.591,-43.1839 -5.7146,-45.0017 -1.1861,-1.9196 32.3111,-3.3222 79.9079,-3.3525 59.0112,-0.03 90.2158,-2.6844 101.0453,-3.2124 0.3326,-0.023 0.5416,-0.1436 0.8643,-0.178 v -15.9602 c -0.3023,-0.021 -0.5416,-0.1437 -0.8643,-0.1343 -8.6366,0.2603 -35.3228,1.1713 -46.2388,1.1569 h -9.5894 l -0.2079,-51.5343 -0.2079,-57.0499 25.2212,0.6404 c 8.7054,0.2208 25.5829,-0.7935 31.1237,-0.7268 0.3137,0 0.4683,-0.083 0.76,-0.094 v -17.3109 c -0.3212,-0.021 -0.6247,-0.1718 -0.9475,-0.1613 -18.3904,-0.3676 -39.7225,-0.5332 -63.233,-0.5759 z m -44.9537,18.9736 c 20.5689,-0.2614 33.4537,-0.2551 33.6911,0.083 0.4792,0.682 0.2608,26.4512 -0.6871,57.2597 l -1.5546,50.5118 -59.2936,-0.5487 c -63.6347,-0.5884 -142.318,0.7612 -150.6965,-2.4538 -3.8215,-1.4665 -5.5948,-12.6071 -6.9475,-43.565 -0.9993,-22.8784 -2.9654,-45.0797 -4.3692,-49.3333 -2.544,-7.7126 -2.2355,-7.7408 110.0693,-10.4231 30.9713,-0.7404 59.2214,-1.2708 79.7904,-1.5336 z m -540.3004,1.06 c 24.5707,0.042 41.2834,0.3551 42.2528,1.0278 2.651,1.841 4.6753,20.4577 5.5094,50.668 l 1.3183,47.7513 -11.0199,0.2478 c -16.5721,0.3718 -245.9793,4.0948 -247.0383,3.3578 -0.5102,-0.3509 -0.9161,-9.8461 -0.9161,-17.8865 0,-8.0407 -2.6858,-33.792 -5.9679,-50.0815 -3.2822,-16.2892 -5.3469,-30.1773 -4.5899,-30.8602 2.3063,-2.082 146.7447,-4.3544 220.4557,-4.2242 z m 64.648,2.1041 h 136.136 136.1348 l 2.3357,19.2856 c 1.2839,10.6072 1.818,33.3332 1.1838,50.5065 l -1.1517,31.2262 -14.6959,0.1343 c -8.0814,0.073 -67.7601,-0.3613 -132.6161,-0.9684 l -117.9197,-1.1032 -2.4053,-35.7677 c -1.3236,-19.6714 -3.4405,-41.9615 -4.7036,-49.5379 z m 40.5846,118.9479 c 26.2813,0.073 46.6333,0.2918 54.9668,0.8612 l 30.3058,2.0717 v 42.8331 c 0,23.5582 1.0465,46.5525 2.2658,51.0985 l 2.2118,8.2653 -74.8128,-0.5436 c -63.97,-0.4665 -156.712,0.4426 -206.256,-3.2716 l -13.8886,-1.0382 -1.6411,-55.1557 -1.6361,-44.9801 117.8831,-0.1043 c 32.0564,-0.03 64.2708,-0.1073 90.5522,-0.042 z m -343.3486,0.8497 c 64.5291,1.2492 117.7248,0.1229 118.2108,0.705 0.4895,0.5821 0.1058,17.1121 -0.9577,43.8824 l -1.8463,52.9979 -16.9606,-0.062 c -9.3343,-0.03 -67.5886,2.8792 -119.7181,1.496 -52.128,-1.3834 -88.2006,3.0584 -89.9063,1.2429 -1.7045,-1.8155 -3.784,-40.3674 -4.6223,-65.4334 l -1.5224,-34.7509 z m 442.1496,0.2313 105.1242,1.5928 c 55.3916,0.8393 106.1695,-0.5321 118.2912,0.8185 l 22.0411,2.4537 2.2337,34.9014 c 1.2294,16.1632 3.7598,32.5617 5.2512,43.2098 l 2.7073,19.3611 -69.5346,1.2107 c -38.0772,-0.5467 -94.4383,1.8816 -125.2493,1.3237 l -56.0217,-1.0111 v -28.7564 c 0,-15.814 -1.0889,-39.1804 -2.4219,-51.927 z m -259.8187,117.0646 c 10.8971,-0.052 21.1464,0.03 30.0537,0.3553 l 64.7769,2.3891 2.2598,16.5091 c 1.2453,9.0803 2.2658,32.8123 2.2658,52.7343 v 36.2198 h -124.3619 -124.3662 l -2.2544,-35.8163 c -1.2412,-19.6988 -3.8227,-45.5322 -4.7785,-57.5018 l -1.5882,-14.841 61.1668,0.4093 c 25.6172,0.9809 64.1367,-0.3062 96.8262,-0.4572 z m 417.1117,2.0287 0.189,54.7576 0.1965,51.4212 H 3035.932 c -80.0821,0 -146.7084,-1.1015 -148.0535,-2.4484 -1.3474,-1.3467 -2.4491,-11.1203 -2.4491,-21.7179 0,-10.5977 -2.4586,-32.1103 -5.4618,-47.8052 -3.0029,-15.6951 -5.0669,-28.8648 -4.5899,-29.2675 2.0296,-1.7112 143.4093,-3.3039 221.2743,-2.4914 v 0 z m 115.5851,1.4583 h 99.6143 l 0.3629,11.9405 c 0.9996,33.0153 3.0304,73.4234 4.7195,80.4251 1.4192,5.8806 -0.1663,8.3984 -6.3394,10.0518 v 0 c -4.5268,1.2131 -49.5565,2.2243 -100.0657,2.2546 l -91.8379,0.052 v -24.7959 c 0,-13.6376 -1.4393,-35.9539 -3.1801,-49.5917 l -3.1593,-28.1268 z m -716.8845,124.8832 c 13.5401,0 28.3721,0.1198 44.2049,0.4624 l 115.1551,2.4968 -2.6041,37.113 c -1.4332,20.4122 -2.8316,37.3147 -3.1106,37.5598 -0.2797,0.2445 -56.0738,1.6091 -123.9851,3.0348 l -123.4726,2.5937 -2.0826,-36.1014 c -1.1444,-19.8537 -1.7015,-34.2851 -3.154,-39.0717 -1.9192,-6.3257 -2.163,-8.0208 4.4398,-7.5928 2.2005,0.1425 8.7315,0.3791 15.4114,0.5113 9.5842,0.1894 38.5799,-0.9871 79.1978,-1.0059 z m 173.3393,1.7758 116.6347,0.9683 116.6291,0.9736 0.7812,39.4862 0.7808,39.4915 -46.6968,-0.8341 c -25.6826,-0.4571 -77.5068,-1.3194 -115.1645,-1.9156 -79.514,-1.2591 -72.8228,3.1306 -72.9082,-47.8107 z m 302.7651,0.1039 v 0 h 48.8659 l 2.4699,28.4711 c 1.3557,15.6579 3.4216,33.84 4.5903,40.4062 l 2.1199,11.9406 h -53.2456 -53.2456 l -1.6849,-37.6512 c -0.9268,-20.7091 -1.0205,-38.8963 -0.2192,-40.4117 0.8122,-1.5152 23.4621,-2.755 50.3391,-2.755 z m 96.9989,1.0225 v 0 c 16.7127,0.149 39.5297,0.5853 64.4164,1.2807 l 90.4981,2.5291 v 13.1997 c 0,7.2575 1.0851,24.3526 2.3732,37.9902 v 0 l 2.3406,24.7959 h -91.9298 -91.9294 l -2.643,-38.8135 c -1.4547,-21.3475 -1.8807,-39.5804 -0.937,-40.5193 0.4683,-0.4696 11.0805,-0.6113 27.7932,-0.4623 z m -513.2549,98.1611 c 21.2009,0 21.3332,0.073 23.2887,11.9406 3.0917,18.772 9.3853,82.1111 9.3853,94.4481 v 11.1656 h -47.1012 -47.105 l -6.3069,-51.5072 c -3.4677,-28.3279 -7.1497,-53.6993 -8.1797,-56.3827 -1.9982,-5.2086 33.0361,-9.6644 76.0188,-9.6644 z m 35.8541,0 h 97.6872 97.6879 l -1.0099,57.857 -1.0102,57.8571 -88.5173,0.985 -88.5184,0.9799 -2.4431,-37.7158 c -2.2889,-35.3822 -4.8752,-51.9192 -11.2199,-71.697 z m 211.7174,3.6699 h 82.7328 82.7289 l -1.211,52.3467 c -0.6663,28.7907 -1.8493,54.2921 -2.6211,56.6733 -2.1104,6.5117 -155.6579,6.878 -157.8466,0.3768 -0.875,-2.5878 -2.0818,-28.263 -2.6858,-57.0552 z m 182.8419,0 h 63.1683 63.168 l 3.374,56.9476 3.3683,56.9368 h -63.4854 c -47.5571,-0.01 -63.8419,-1.1608 -64.9282,-4.6008 -0.7914,-2.5253 -2.1762,-28.1462 -3.0614,-56.9369 z m 144.9706,0 h 99.6683 99.6616 v 52.9656 c 0,29.1305 0.9997,55.5759 2.2284,58.7718 2.3513,6.1275 -13.2317,6.4613 -143.9644,3.0725 l -44.3936,-1.1515 -4.289,-43.0538 c -2.3588,-23.6804 -5.3265,-49.2528 -6.5968,-56.8291 z m -732.8342,131.8086 66.596,2.2655 c 36.6255,1.2473 83.9486,2.9456 105.1616,3.7721 21.2145,0.8268 54.689,1.5589 74.3883,1.6251 l 35.8163,0.1186 v 28.8532 l -1.2438,36.0916 -47.3484,1.914 c -88.088,3.5608 -227.7249,3.2248 -228.8652,-0.645 -0.5937,-2.0205 -1.9128,-20.9894 -2.8301,-39.7982 z m 300.3277,4.1112 h 90.1156 c 68.8755,0 90.4532,1.0803 91.5538,4.59 0.7914,2.5253 2.4953,16.5783 3.7833,31.2262 l 1.4627,32.426 -87.0898,1.7122 -101.0695,-0.2635 1.2439,-38.47 z m 357.2425,1.835 h 153.3652 v 33.9812 c 0,18.683 0.1058,35.1967 0.1965,36.7203 0.1059,1.5152 -1.9578,2.9092 -4.5898,3.1049 -95.2622,-3.3614 -96.4467,-6.3968 -191.5873,-6.8724 l -105.3717,-0.5268 -2.1199,-32.426 c -0.9615,-14.7089 -3.0524,-28.2857 -3.1261,-30.306 -0.1058,-2.3926 53.3477,-3.6752 153.2308,-3.6752 z m -251.9728,84.5602 95.111,2.7282 c 114.3916,3.2813 167.1175,3.5974 167.0309,7.305 0,1.5153 -0.102,22.5918 -0.102,46.8365 v 44.0816 h -126.2237 -126.2178 l -2.2491,-41.3264 c -1.2352,-22.7294 -3.5736,-43.2012 -4.9286,-49.0296 z m -102.3958,1.5175 c 23.2086,-0.2438 42.4109,-0.2291 52.0086,0.1039 l 34.9013,1.2054 1.2401,47.6144 1.0204,50.5118 h -124.6359 -124.642 l -2.1253,-21.1259 c -1.1686,-11.617 -3.1627,-33.7429 -4.4288,-49.1667 l -2.2972,-28.0406 92.9265,0.347 c 26.0288,-0.6294 52.7406,-1.1942 76.0323,-1.4493 z m 381.7474,7.1435 51.0547,2.007 c 28.0818,1.1043 80.0779,0.8133 114.3261,1.9857 34.2482,1.1726 63.4208,-1.1533 65.0351,-0.1561 1.6138,0.9976 2.1044,26.1579 2.1044,48.2626 v 40.1909 h -113.8741 -113.879 v -23.343 c 0,-12.8359 -1.0727,-33.5997 -2.3838,-46.1424 z"/>
    </g>
</svg>