<?xml version="1.0" ?><svg xmlns="http://www.w3.org/2000/svg" width="242.77635mm" height="244.10966mm" viewBox="0 0 242.77635 244.10966">
    <path fill="#fff" paint-order="fill markers stroke" d="M6154.3408 1186.8153H7000.63639V2037.7376H6154.3408z" transform="translate(198.15513,93.109914) matrix(0.28686945,0,0,0.28686945,-1963.6475,-433.56979)"/>
    <path d="m 6195.9067,1186.8112 c -0.652,24.473 -20.0238,96.6826 -17.0781,127.4883 2.9632,30.9927 -10.6289,121.9037 -8.8945,192.6543 5.2327,213.4216 9.3924,296.8029 18.3945,368.7637 4.7202,37.7332 8.0138,85.3302 7.3203,105.7695 -0.694,20.4376 0.3977,32.7819 0.3067,40.1641 -0.028,2.292 -0.039,13.9997 -0.1036,16.0547 h 9.1192 c 0.2638,-6.6314 1.6708,-12.4734 2.0859,-21.9668 1.7152,-39.2286 -1.2696,-111.3657 -7.9902,-164.7774 -4.6173,-36.6961 -11.0164,-155.4818 -14.2207,-263.9648 -5.3966,-182.6811 12.6931,-316.7755 20.1308,-400.1856 z m 46.5,0 c -2.3988,18.484 -10.7772,28.908 -14.334,43.1055 -9.5341,38.0571 -14.8945,79.1428 -14.8945,102.3164 0,32.0346 26.64,285.4433 31.4434,299.1016 8.0769,22.9599 13.698,181.3919 8.3691,235.8066 -4.4203,45.1364 -7.9767,87.5885 -8.7832,122.2403 -0.443,19.0367 -0.3597,26.7295 -1.8398,48.373 h 18.25 c 11.4709,-74.8033 19.2367,-293.9638 10.2558,-359.8965 -44.4321,-326.2044 -43.0798,-360.4301 -25.1543,-447.5547 1.7866,-8.6826 10.8809,-20.9524 14.9063,-43.4922 z m 46.8887,0 c -0.394,8.1446 -0.776,18.5747 -1.4785,33.584 -0.9608,20.5264 -3.364,111.6239 -3.7344,176.459 -0.7359,129.7678 10.3963,184.4933 35.3086,254.8379 l 14.543,41.0703 -3.2578,154.3653 c -1.3422,63.596 -3.0197,131.2051 -4.502,190.5781 h 17.1094 c 1.7756,-49.7923 3.0449,-113.4551 3.9941,-196.2969 1.5496,-135.2116 5.3724,-263.8497 8.4961,-285.8613 3.9472,-27.8144 2.9224,-189.2273 -5.3144,-300.3594 -1.9622,-26.4744 -6.5911,-38.9203 -7.1446,-68.377 h -17.1758 c -1.2448,32.2601 16.1232,104.0588 14.9981,149.8907 -3.371,137.3242 -3.2388,241.0181 -11.6777,281.7363 l -3.5547,17.1504 -7.043,-20.2168 c -17.9955,-51.6489 -19.9329,-111.7113 -19.6797,-264.7793 0.063,-38.536 -0.2032,-141.8298 -0.2773,-163.7813 z m 79.3535,0 c 0.8205,6.404 6.9137,69.4989 8.5703,95.1641 1.3181,20.4211 -1.8007,329.368 -3.6504,361.4961 -1.8217,31.6422 -10.975,334.0278 -4.8964,394.2344 h 9.5625 1.3496 c 0,0 -1.7615,-91.4278 -2.3164,-133.0449 -0.5549,-41.6171 9.0627,-265.5179 11.6523,-300.6426 2.5896,-35.1244 0.9245,-229.212 1.5781,-267.3477 0.8376,-48.8716 -10.971,-146.9274 -10.9511,-149.8594 z m 40.6621,0 c -0.7636,7.1604 3.3992,38.822 3.4239,54.7832 0.025,15.9613 4.4328,48.1064 3.8418,54.0254 -0.5912,5.919 8.1789,14.1438 10.6914,0.6875 2.5125,-13.4561 3.7428,-46.6654 4.3339,-58.8359 0.5912,-12.1705 2.4649,-50.6602 2.4649,-50.6602 z m 60.4649,0 -5.5957,61.9708 c -10.7992,119.601 -20.6093,246.8013 -30.5098,289.6113 -32.6018,140.9815 -21.687,195.9592 -27.5547,245.7695 -7.4012,62.8271 -4.8387,176.368 3.3496,253.543 h 24.4434 c -0.8384,-35.3571 -1.4072,-88.0169 -1.3594,-141.9864 l 0.1289,-145.789 4.6504,-128.6367 c 24.2397,-116.9994 29.6817,-145.3014 35.4629,-262.3008 3.6983,-74.857 12.3068,-130.9904 11.7871,-172.1817 z m 73.7324,0 c -2.5933,11.306 -5.575,36.6539 -7.9707,52.7872 -7.698,51.8385 -21.8972,154.5016 -33.0332,228.0195 -30.7968,203.3233 -34.267,245.9799 -34.5996,425.2519 -0.1387,74.4909 0.3069,117.7362 1.8652,144.836 h 15.1426 c 1.1096,-29.1385 2.0742,-70.8706 3.3301,-144.836 3.5055,-206.4222 7.3698,-256.0347 33.9746,-436.2304 14.3495,-97.1869 33.408,-237.3653 38.0312,-269.8282 z m 106.9453,0 c -6.0977,78.6986 -6.0326,259.2521 -1.9414,328.7129 12.0618,204.7821 12.3289,402.0308 1.5742,522.1817 h 18.5449 c 8.0779,-100.6787 9.7044,-347.595 1.2735,-447.8574 -4.3937,-52.2507 -7.7053,-169.9251 -7.6563,-274.4278 0.011,-54.7776 7.2346,-100.0754 6.377,-128.6094 z m 52.1699,0 c 0,0 -1.7435,27.1275 -1.5742,36.8945 0.1693,9.7671 1.3543,16.913 0.8125,25.0802 -0.5418,8.1671 7.4324,9.5541 9.9551,-1.8282 2.5227,-11.3822 1.6073,-29.5909 1.8613,-34.2383 0.254,-4.6474 2.6074,-25.9082 2.6074,-25.9082 z m 58.3867,0 c -0.9537,7.6714 -1.8945,10.6715 -2.4687,12.9512 -12.0296,47.7509 -16.6274,104.6828 -25.8047,147.1094 -3.0607,14.1498 -7.8837,140.2163 -10.7168,280.1445 -2.8331,139.929 -7.7486,282.7192 -10.9219,317.3086 -2.7643,30.1304 -6.1202,67.3354 -8.4492,93.3809 h 13.668 c 5.576,-82.7716 12.953,-271.4988 17.0703,-447.8496 4.7807,-204.7596 5.9316,-220.8749 20.0137,-280.1465 8.2178,-34.5899 4.9303,-57.1261 11.1758,-85.4258 0.4132,-1.8733 3.5285,-14.8301 5.0976,-23.2891 0.7241,-3.9038 1.7777,-7.08 2.0488,-14.1836 z m 45.045,0 c -1.2775,15.2081 -6.0671,31.6978 -11.5996,50.002 -11.5079,38.0737 -17.7779,80.078 -26.2383,175.8066 -9.546,108.0423 -10.8582,164.8796 -9.2813,403.0664 0.6583,99.408 1.4069,172.2358 2.0781,222.0196 h 10.6954 c 2.0947,-52.2258 3.7349,-149.8727 4.3125,-273.4746 0.757,-161.9392 3.0827,-303.4437 5.1679,-314.4492 2.0855,-11.006 6.3004,-56.0307 9.3672,-100.0528 3.067,-44.0231 9.1028,-91.6179 13.4121,-105.7676 8.3676,-27.4747 8.562,-49.1148 8.8985,-57.1504 z m 12.2793,0 c 0.6489,5.7673 2.6096,13.8596 3.33,16.4824 0.9092,3.31 10.5799,23.6906 11.6543,28.0606 0.026,0.1053 0.072,0.2152 0.1055,0.3222 8.8003,30.2589 18.8819,88.0367 26.1113,152.3575 3.5346,31.4448 8.3415,199.9608 10.6836,374.4785 1.9082,142.2141 3.949,228.4366 6.3828,279.1934 h 17.6836 c -0.2021,-2.7423 -0.3139,-5.0713 -0.5507,-7.9707 -3.0697,-37.5723 -5.4536,-180.2166 -5.2911,-316.9864 0.2978,-256.4576 -3.933,-332.1598 -23.7226,-424.5371 -8.4809,-39.5861 -17.6784,-67.1485 -26.4336,-80.5723 -0.1484,-0.3944 -0.2624,-0.6988 -0.4238,-1.1289 -3.8835,-10.3442 -4.337,-16.7732 -4.0899,-19.6992 z m 58.2246,0 c 0.5685,10.3108 4.2354,85.1834 14.164,120.0391 7.6139,26.7275 22.2039,97.4783 32.4219,157.2246 18.2211,106.532 18.5651,111.8822 18.0352,277.2871 -0.2979,92.7613 -3.6761,201.6397 -7.5059,241.9473 -1.7994,18.9362 -3.0096,38.0491 -3.6289,54.3965 h 15.7031 c 6.2147,-109.165 11.6715,-358.0305 7.6446,-424.9824 -5.1756,-86.0539 -29.5099,-243.9421 -48.0235,-311.5899 -10.0586,-34.8611 -2.8041,-66.2635 -8.6445,-99.6739 -0.5604,-3.2057 -2.0226,-10.7931 -2.4277,-14.6484 z m 53.5156,0 c 0.013,11.9602 2.927,18.8963 5.1621,26.6856 4.6504,16.2064 12.0282,38.7563 15.1074,66.3574 3.0796,27.602 7.2232,52.8112 9.2071,56.0215 2.3561,3.8037 6.6339,3.313 12.3437,-1.4258 7.3266,-6.0824 8.3526,-20.8685 6.3438,-91.5703 -0.7238,-25.4762 -2.4021,-42.3413 -3.4747,-56.0684 h -14.041 c -0.038,0.54 -0.099,1.0139 -0.1211,1.6192 -1.3164,36.8417 -3.3727,44.0756 -13.4062,8.2402 -0.7892,-2.7463 -1.313,-5.3868 -1.4336,-9.8594 z m -310.7363,4.0859 c -1.061,0.109 -2.285,0.9714 -2.8477,2.2618 -7.4031,16.9782 -19.8971,61.5243 -32.7031,119.4102 -12.8342,58.0117 -13.2293,67.6248 -11.7481,285.8613 1.6176,238.2287 -3.3439,333.8044 -21.0351,405.2461 -3.2956,13.3094 -5.3827,24.0381 -7.6172,34.0293 h 16.832 c 0.8523,-2.6975 0.9341,-4.9061 1.8067,-7.6231 9.0879,-28.3014 19.5388,-68.1779 23.2246,-88.6172 9.4779,-52.5572 14.6927,-235.0068 9.2324,-323.0234 -7.4135,-119.4994 -1.6903,-244.9525 15.6328,-342.6601 7.2738,-41.0234 10.4632,-70.55 11.0918,-82.6231 0.09,-1.7264 -0.8081,-2.3708 -1.8691,-2.2618 z m 210.459,205.211 c -4.906,-0.2717 -7.6569,21.7814 -15.9668,113.7051 -6.9462,76.8306 -11.8373,457.198 -7.711,527.8926 h 6.7617 c 0.8953,-4.3178 1.6843,-9.2088 2.1231,-14.7696 1.7779,-22.5429 2.3162,-20.5997 3.1719,11.4336 0.035,1.3172 0.1239,2.0968 0.166,3.336 h 15.4375 c 2.0473,-31.7665 3.5807,-89.179 5.5156,-192.0039 4.7811,-254.0587 1.7906,-439.218 -7.2402,-448.2481 -0.8113,-0.8114 -1.557,-1.3069 -2.2578,-1.3457 z m -5.1583,80.6485 c 1.9897,-2.9294 2.7438,70.0409 1.668,170.2714 -1.1475,106.9111 -2.9149,198.245 -3.9297,202.9629 -3.9115,18.1917 -2.0963,-347.2972 1.8457,-371.623 0.1435,-0.8843 0.2841,-1.416 0.416,-1.6113 z m -518.0449,287.3457 c -2.1855,0.2713 -4.7737,5.6739 -6.4316,17.6562 -3.316,23.9641 -11.5081,220.8185 -10.8047,255.9961 h 9.5566 c 0.4019,-5.6068 3.6287,-27.9891 3.4278,-42.2773 -0.201,-14.2883 8.372,-201.1486 8.2715,-218.2403 -0.05,-8.5459 -1.834,-13.406 -4.0196,-13.1347 z m 671.8164,38.6894 c -2.1502,0.2344 -3.8294,7.2104 -7.0156,20.3067 -3.9215,16.1184 -4.9922,122.0489 -6.8652,141.1171 -1.8376,18.7074 -3.3105,57.679 -3.8086,73.4903 h 9.7578 4.2519 c 0,0 0.1167,-85.0794 1.4629,-100.0918 1.3462,-15.0122 1.8151,-94.9736 4.2149,-107.9317 2.3997,-12.9579 2.6333,-22.3868 -0.4102,-25.9687 -0.5706,-0.6716 -1.0917,-0.976 -1.5879,-0.9219 z" transform="translate(198.15513,93.109914) matrix(0.28686945,0,0,0.28686945,-1963.6475,-433.56979)"/>
</svg>